<svg width="88" height="88" viewBox="0 0 88 88" fill="none" xmlns="http://www.w3.org/2000/svg">
<g clip-path="url(#clip0_0_10)">
<path d="M35.5957 66.4566C37.4792 70.0515 40.6425 72.9927 44.7426 74.5271C53.584 77.836 63.4338 73.351 66.7426 64.5096C69.3892 57.438 67.0496 49.7212 61.4829 45.2222" stroke="black" stroke-width="2" stroke-linecap="round" stroke-linejoin="round"/>
<path d="M46.4836 50.251C46.5181 52.3317 46.1705 54.454 45.397 56.521C42.0881 65.3624 32.2383 69.8474 23.397 66.5385C14.5556 63.2297 10.0706 53.3799 13.3794 44.5385C16.033 37.4481 22.8935 33.1593 30.0668 33.4456" stroke="black" stroke-width="2" stroke-linecap="round" stroke-linejoin="round"/>
<path d="M42.0583 49.1884C50.8997 52.4972 60.7494 48.0122 64.0583 39.1708C67.3672 30.3294 62.8821 20.4797 54.0408 17.1708C45.1994 13.8619 35.3496 18.3469 32.0408 27.1884C28.7319 36.0297 33.2169 45.8795 42.0583 49.1884Z" stroke="black" stroke-width="2" stroke-linecap="round" stroke-linejoin="round"/>
</g>
<defs>
<clipPath id="clip0_0_10">
<rect width="68" height="68" fill="white" transform="translate(23.9649) scale(1.00548) rotate(20.5182)"/>
</clipPath>
</defs>
</svg>
