<svg width="103" height="103" viewBox="0 0 103 103" fill="none" xmlns="http://www.w3.org/2000/svg">
<g clip-path="url(#clip0_0_4)">
<path d="M62.9819 12.9368L21.3359 24.8713L8.3254 51.994L60.841 84.0958L88.3832 29.0518L62.9819 12.9368ZM35.488 42.161L24.884 26.8751L61.4068 16.4088L60.3978 35.0226L35.488 42.161ZM60.2315 38.0908L58.2336 74.9493L37.236 44.6806L60.2315 38.0908ZM32.5402 43.0058L13.1987 48.5485L22.6775 28.7883L32.5402 43.0058ZM34.288 45.5255L57.0955 78.4031L13.1979 51.5693L34.288 45.5255ZM63.1853 37.2443L84.0253 31.2722L61.0164 77.2564L63.1853 37.2443ZM63.3515 34.1761L64.2721 17.194L82.4247 28.7104L63.3515 34.1761Z" fill="#28705A"/>
</g>
<defs>
<clipPath id="clip0_0_4">
<rect width="83" height="83" fill="white" transform="translate(0 22.9422) scale(1.00338) rotate(-15.9907)"/>
</clipPath>
</defs>
</svg>
