<svg width="80" height="80" viewBox="0 0 80 80" fill="none" xmlns="http://www.w3.org/2000/svg">
<path d="M61.8151 41.0951C61.8186 37.1579 60.7376 33.2959 58.6907 29.9326C56.6439 26.5694 53.7103 23.8349 50.2117 22.0291C46.7132 20.2233 42.7848 19.416 38.8576 19.6958C34.9305 19.9756 31.1562 21.3316 27.949 23.6152C24.7417 25.8987 22.2254 29.0215 20.676 32.641C19.1266 36.2604 18.6041 40.2366 19.1657 44.1335C19.7274 48.0303 21.3515 51.6973 23.8598 54.7319C26.3682 57.7665 29.6639 60.0516 33.3855 61.3365V77.3785H47.3774V61.3365C51.5902 59.8832 55.2449 57.1523 57.8326 53.5242C60.4204 49.8961 61.8125 45.5515 61.8151 41.0951Z" stroke="#28705A" stroke-width="3" stroke-linecap="round" stroke-linejoin="round"/>
<path d="M49.8075 67.3792H31.173V74.6524H49.8075V67.3792Z" stroke="#28705A" stroke-width="2" stroke-linecap="round" stroke-linejoin="round"/>
<path d="M40.3821 2.62158V7.61937" stroke="#28705A" stroke-width="2" stroke-linecap="round" stroke-linejoin="round"/>
<path d="M66.1273 12.5044L62.9567 16.3684" stroke="#28705A" stroke-width="2" stroke-linecap="round" stroke-linejoin="round"/>
<path d="M13.8727 12.5044L17.0433 16.3684" stroke="#28705A" stroke-width="2" stroke-linecap="round" stroke-linejoin="round"/>
</svg>
