<svg width="571" height="115" viewBox="0 0 571 115" fill="none" xmlns="http://www.w3.org/2000/svg">
<path d="M22.0915 30.1597H8.11627L5.71502 36.9793H4.21028e-05L11.9583 3.55387H18.2976L30.2558 36.9793H24.4928L22.0915 30.1597ZM20.5547 25.6934L15.1279 10.1813L9.65307 25.6934H20.5547ZM273.177 23.6283C273.177 20.9709 273.721 18.6177 274.81 16.5686C275.93 14.5196 277.435 12.9348 279.324 11.8142C281.245 10.6616 283.358 10.0853 285.663 10.0853C287.745 10.0853 289.553 10.5015 291.09 11.3339C292.659 12.1343 293.908 13.1429 294.836 14.3595V10.5175H300.359V36.9793H294.836V33.0412C293.908 34.2899 292.643 35.3304 291.042 36.1629C289.441 36.9953 287.616 37.4115 285.567 37.4115C283.294 37.4115 281.213 36.8352 279.324 35.6826C277.435 34.498 275.93 32.8651 274.81 30.7841C273.721 28.671 273.177 26.2857 273.177 23.6283ZM294.836 23.7244C294.836 21.8994 294.452 20.3146 293.684 18.9699C292.947 17.6252 291.971 16.6007 290.754 15.8963C289.537 15.1919 288.225 14.8397 286.816 14.8397C285.407 14.8397 284.095 15.1919 282.878 15.8963C281.661 16.5686 280.669 17.5772 279.9 18.9219C279.164 20.2346 278.796 21.8034 278.796 23.6283C278.796 25.4533 279.164 27.0541 279.9 28.4308C280.669 29.8075 281.661 30.8641 282.878 31.6005C284.127 32.3048 285.439 32.657 286.816 32.657C288.225 32.657 289.537 32.3048 290.754 31.6005C291.971 30.8961 292.947 29.8716 293.684 28.5269C294.452 27.1502 294.836 25.5493 294.836 23.7244ZM320.651 10.0853C322.732 10.0853 324.589 10.5175 326.222 11.3819C327.887 12.2464 329.183 13.5271 330.112 15.2239C331.04 16.9208 331.505 18.9699 331.505 21.3712V36.9793H326.078V22.1876C326.078 19.8183 325.485 18.0094 324.301 16.7607C323.116 15.4801 321.499 14.8397 319.45 14.8397C317.401 14.8397 315.768 15.4801 314.552 16.7607C313.367 18.0094 312.775 19.8183 312.775 22.1876V36.9793H307.3V10.5175H312.775V13.5431C313.671 12.4545 314.808 11.6061 316.185 10.9977C317.593 10.3894 319.082 10.0853 320.651 10.0853ZM336.413 23.6283C336.413 20.9709 336.957 18.6177 338.046 16.5686C339.166 14.5196 340.671 12.9348 342.56 11.8142C344.481 10.6616 346.61 10.0853 348.948 10.0853C350.676 10.0853 352.373 10.4695 354.038 11.2379C355.735 11.9743 357.08 12.9668 358.072 14.2154V1.44077H363.595V36.9793H358.072V32.9932C357.176 34.2739 355.927 35.3304 354.326 36.1629C352.758 36.9953 350.949 37.4115 348.899 37.4115C346.594 37.4115 344.481 36.8352 342.56 35.6826C340.671 34.498 339.166 32.8651 338.046 30.7841C336.957 28.671 336.413 26.2857 336.413 23.6283ZM358.072 23.7244C358.072 21.8994 357.688 20.3146 356.92 18.9699C356.183 17.6252 355.207 16.6007 353.99 15.8963C352.774 15.1919 351.461 14.8397 350.052 14.8397C348.643 14.8397 347.331 15.1919 346.114 15.8963C344.897 16.5686 343.905 17.5772 343.136 18.9219C342.4 20.2346 342.032 21.8034 342.032 23.6283C342.032 25.4533 342.4 27.0541 343.136 28.4308C343.905 29.8075 344.897 30.8641 346.114 31.6005C347.363 32.3048 348.675 32.657 350.052 32.657C351.461 32.657 352.774 32.3048 353.99 31.6005C355.207 30.8961 356.183 29.8716 356.92 28.5269C357.688 27.1502 358.072 25.5493 358.072 23.7244ZM402.403 3.6019V8.06822H388.236V17.9134H399.282V22.3797H388.236V36.9793H382.761V3.6019H402.403ZM418.705 37.4115C416.208 37.4115 413.95 36.8512 411.933 35.7306C409.916 34.578 408.332 32.9772 407.179 30.9281C406.026 28.847 405.45 26.4458 405.45 23.7244C405.45 21.035 406.042 18.6497 407.227 16.5686C408.412 14.4876 410.028 12.8867 412.078 11.7661C414.127 10.6456 416.416 10.0853 418.945 10.0853C421.474 10.0853 423.764 10.6456 425.813 11.7661C427.862 12.8867 429.479 14.4876 430.663 16.5686C431.848 18.6497 432.44 21.035 432.44 23.7244C432.44 26.4138 431.832 28.799 430.615 30.8801C429.399 32.9612 427.734 34.578 425.621 35.7306C423.539 36.8512 421.234 37.4115 418.705 37.4115ZM418.705 32.657C420.114 32.657 421.426 32.3209 422.643 31.6485C423.892 30.9762 424.9 29.9676 425.669 28.6229C426.437 27.2782 426.821 25.6454 426.821 23.7244C426.821 21.8034 426.453 20.1865 425.717 18.8739C424.98 17.5291 424.004 16.5206 422.787 15.8483C421.57 15.1759 420.258 14.8397 418.849 14.8397C417.44 14.8397 416.128 15.1759 414.911 15.8483C413.726 16.5206 412.782 17.5291 412.078 18.8739C411.373 20.1865 411.021 21.8034 411.021 23.7244C411.021 26.5739 411.741 28.783 413.182 30.3518C414.655 31.8886 416.496 32.657 418.705 32.657ZM443.077 14.3595C443.877 13.0148 444.934 11.9743 446.247 11.2379C447.591 10.4695 449.176 10.0853 451.001 10.0853V15.7522H449.608C447.463 15.7522 445.83 16.2965 444.71 17.3851C443.621 18.4736 443.077 20.3626 443.077 23.052V36.9793H437.602V10.5175H443.077V14.3595ZM491.322 10.5175L483.11 36.9793H477.347L472.016 17.4331L466.685 36.9793H460.922L452.662 10.5175H458.233L463.756 31.7926L469.375 10.5175H475.09L480.468 31.6965L485.943 10.5175H491.322ZM493.338 23.6283C493.338 20.9709 493.883 18.6177 494.971 16.5686C496.092 14.5196 497.597 12.9348 499.486 11.8142C501.407 10.6616 503.52 10.0853 505.825 10.0853C507.906 10.0853 509.715 10.5015 511.252 11.3339C512.821 12.1343 514.069 13.1429 514.998 14.3595V10.5175H520.521V36.9793H514.998V33.0412C514.069 34.2899 512.805 35.3304 511.204 36.1629C509.603 36.9953 507.778 37.4115 505.729 37.4115C503.456 37.4115 501.375 36.8352 499.486 35.6826C497.597 34.498 496.092 32.8651 494.971 30.7841C493.883 28.671 493.338 26.2857 493.338 23.6283ZM514.998 23.7244C514.998 21.8994 514.614 20.3146 513.845 18.9699C513.109 17.6252 512.132 16.6007 510.916 15.8963C509.699 15.1919 508.386 14.8397 506.978 14.8397C505.569 14.8397 504.256 15.1919 503.04 15.8963C501.823 16.5686 500.83 17.5772 500.062 18.9219C499.326 20.2346 498.957 21.8034 498.957 23.6283C498.957 25.4533 499.326 27.0541 500.062 28.4308C500.83 29.8075 501.823 30.8641 503.04 31.6005C504.288 32.3048 505.601 32.657 506.978 32.657C508.386 32.657 509.699 32.3048 510.916 31.6005C512.132 30.8961 513.109 29.8716 513.845 28.5269C514.614 27.1502 514.998 25.5493 514.998 23.7244ZM532.936 14.3595C533.737 13.0148 534.793 11.9743 536.106 11.2379C537.451 10.4695 539.036 10.0853 540.86 10.0853V15.7522H539.468C537.323 15.7522 535.69 16.2965 534.569 17.3851C533.481 18.4736 532.936 20.3626 532.936 23.052V36.9793H527.461V10.5175H532.936V14.3595ZM543.818 23.6283C543.818 20.9709 544.362 18.6177 545.451 16.5686C546.571 14.5196 548.076 12.9348 549.965 11.8142C551.886 10.6616 554.015 10.0853 556.352 10.0853C558.081 10.0853 559.778 10.4695 561.443 11.2379C563.14 11.9743 564.485 12.9668 565.477 14.2154V1.44077H571V36.9793H565.477V32.9932C564.581 34.2739 563.332 35.3304 561.731 36.1629C560.162 36.9953 558.353 37.4115 556.304 37.4115C553.999 37.4115 551.886 36.8352 549.965 35.6826C548.076 34.498 546.571 32.8651 545.451 30.7841C544.362 28.671 543.818 26.2857 543.818 23.6283ZM565.477 23.7244C565.477 21.8994 565.093 20.3146 564.325 18.9699C563.588 17.6252 562.612 16.6007 561.395 15.8963C560.178 15.1919 558.866 14.8397 557.457 14.8397C556.048 14.8397 554.736 15.1919 553.519 15.8963C552.302 16.5686 551.31 17.5772 550.541 18.9219C549.805 20.2346 549.437 21.8034 549.437 23.6283C549.437 25.4533 549.805 27.0541 550.541 28.4308C551.31 29.8075 552.302 30.8641 553.519 31.6005C554.768 32.3048 556.08 32.657 557.457 32.657C558.866 32.657 560.178 32.3048 561.395 31.6005C562.612 30.8961 563.588 29.8716 564.325 28.5269C565.093 27.1502 565.477 25.5493 565.477 23.7244ZM23.5323 67.6352V72.1016H14.6477V101.013H9.17282V72.1016H0.240167V67.6352H23.5323ZM42.5139 74.1186C44.531 74.1186 46.3239 74.5508 47.8927 75.4153C49.4936 76.2797 50.7422 77.5604 51.6387 79.2573C52.5672 80.9542 53.0314 83.0032 53.0314 85.4045V101.013H47.6046V86.2209C47.6046 83.8517 47.0123 82.0427 45.8277 80.7941C44.643 79.5134 43.0262 78.8731 40.9771 78.8731C38.9281 78.8731 37.2952 79.5134 36.0786 80.7941C34.894 82.0427 34.3017 83.8517 34.3017 86.2209V101.013H28.8268V65.4741H34.3017V77.6244C35.2301 76.5039 36.3987 75.6394 37.8075 75.0311C39.2482 74.4228 40.817 74.1186 42.5139 74.1186ZM62.5502 71.045C61.5577 71.045 60.7253 70.7088 60.0529 70.0365C59.3806 69.3641 59.0444 68.5317 59.0444 67.5392C59.0444 66.5467 59.3806 65.7142 60.0529 65.0419C60.7253 64.3695 61.5577 64.0334 62.5502 64.0334C63.5107 64.0334 64.3272 64.3695 64.9995 65.0419C65.6719 65.7142 66.008 66.5467 66.008 67.5392C66.008 68.5317 65.6719 69.3641 64.9995 70.0365C64.3272 70.7088 63.5107 71.045 62.5502 71.045ZM65.2396 74.5508V101.013H59.7648V74.5508H65.2396ZM85.5285 74.1186C87.6095 74.1186 89.4665 74.5508 91.0994 75.4153C92.7642 76.2797 94.0609 77.5604 94.9894 79.2573C95.9179 80.9542 96.3821 83.0032 96.3821 85.4045V101.013H90.9553V86.2209C90.9553 83.8517 90.363 82.0427 89.1784 80.7941C87.9937 79.5134 86.3769 78.8731 84.3278 78.8731C82.2788 78.8731 80.6459 79.5134 79.4293 80.7941C78.2447 82.0427 77.6524 83.8517 77.6524 86.2209V101.013H72.1775V74.5508H77.6524V77.5764C78.5488 76.4879 79.6854 75.6394 81.0621 75.0311C82.4709 74.4228 83.9596 74.1186 85.5285 74.1186ZM113.585 87.8057L125.783 101.013H118.387L108.59 89.6307V101.013H103.115V65.4741H108.59V86.1249L118.195 74.5508H125.783L113.585 87.8057ZM132.243 71.045C131.25 71.045 130.418 70.7088 129.745 70.0365C129.073 69.3641 128.737 68.5317 128.737 67.5392C128.737 66.5467 129.073 65.7142 129.745 65.0419C130.418 64.3695 131.25 64.0334 132.243 64.0334C133.203 64.0334 134.02 64.3695 134.692 65.0419C135.364 65.7142 135.701 66.5467 135.701 67.5392C135.701 68.5317 135.364 69.3641 134.692 70.0365C134.02 70.7088 133.203 71.045 132.243 71.045ZM134.932 74.5508V101.013H129.457V74.5508H134.932ZM155.221 74.1186C157.302 74.1186 159.159 74.5508 160.792 75.4153C162.457 76.2797 163.753 77.5604 164.682 79.2573C165.61 80.9542 166.075 83.0032 166.075 85.4045V101.013H160.648V86.2209C160.648 83.8517 160.056 82.0427 158.871 80.7941C157.686 79.5134 156.069 78.8731 154.02 78.8731C151.971 78.8731 150.338 79.5134 149.122 80.7941C147.937 82.0427 147.345 83.8517 147.345 86.2209V101.013H141.87V74.5508H147.345V77.5764C148.241 76.4879 149.378 75.6394 150.755 75.0311C152.163 74.4228 153.652 74.1186 155.221 74.1186ZM183.47 74.1186C185.519 74.1186 187.328 74.5348 188.896 75.3673C190.497 76.1677 191.746 77.1762 192.642 78.3928V74.5508H198.165V101.445C198.165 103.878 197.653 106.039 196.628 107.928C195.604 109.849 194.115 111.354 192.162 112.443C190.241 113.531 187.936 114.075 185.247 114.075C181.661 114.075 178.683 113.227 176.314 111.53C173.945 109.865 172.6 107.592 172.28 104.711H177.707C178.123 106.087 179.003 107.192 180.348 108.024C181.725 108.889 183.358 109.321 185.247 109.321C187.456 109.321 189.233 108.649 190.577 107.304C191.954 105.959 192.642 104.006 192.642 101.445V97.0266C191.714 98.2752 190.449 99.3318 188.848 100.196C187.28 101.029 185.487 101.445 183.47 101.445C181.164 101.445 179.051 100.869 177.13 99.716C175.241 98.5313 173.737 96.8985 172.616 94.8174C171.527 92.7043 170.983 90.3191 170.983 87.6617C170.983 85.0043 171.527 82.6511 172.616 80.602C173.737 78.5529 175.241 76.9681 177.13 75.8475C179.051 74.6949 181.164 74.1186 183.47 74.1186ZM192.642 87.7577C192.642 85.9328 192.258 84.3479 191.49 83.0032C190.753 81.6585 189.777 80.634 188.56 79.9296C187.344 79.2253 186.031 78.8731 184.622 78.8731C183.213 78.8731 181.901 79.2253 180.684 79.9296C179.468 80.602 178.475 81.6105 177.707 82.9552C176.97 84.2679 176.602 85.8367 176.602 87.6617C176.602 89.4866 176.97 91.0875 177.707 92.4642C178.475 93.8409 179.468 94.8974 180.684 95.6338C181.933 96.3382 183.245 96.6904 184.622 96.6904C186.031 96.6904 187.344 96.3382 188.56 95.6338C189.777 94.9295 190.753 93.9049 191.49 92.5602C192.258 91.1835 192.642 89.5827 192.642 87.7577ZM215.506 84.2519C215.506 80.9862 216.259 78.0567 217.763 75.4633C219.3 72.87 221.365 70.8529 223.959 69.4122C226.584 67.9394 229.45 67.203 232.555 67.203C236.109 67.203 239.263 68.0835 242.016 69.8444C244.802 71.5733 246.819 74.0386 248.067 77.2402H241.488C240.623 75.4793 239.423 74.1666 237.886 73.3022C236.349 72.4377 234.572 72.0055 232.555 72.0055C230.346 72.0055 228.377 72.5018 226.648 73.4943C224.919 74.4868 223.558 75.9116 222.566 77.7685C221.605 79.6255 221.125 81.7866 221.125 84.2519C221.125 86.7172 221.605 88.8783 222.566 90.7353C223.558 92.5922 224.919 94.033 226.648 95.0575C228.377 96.05 230.346 96.5463 232.555 96.5463C234.572 96.5463 236.349 96.1141 237.886 95.2496C239.423 94.3852 240.623 93.0725 241.488 91.3116H248.067C246.819 94.5132 244.802 96.9785 242.016 98.7074C239.263 100.436 236.109 101.301 232.555 101.301C229.418 101.301 226.552 100.58 223.959 99.1397C221.365 97.6669 219.3 95.6338 217.763 93.0405C216.259 90.4471 215.506 87.5176 215.506 84.2519ZM265.703 101.445C263.206 101.445 260.949 100.885 258.932 99.764C256.915 98.6114 255.33 97.0105 254.177 94.9615C253.025 92.8804 252.449 90.4791 252.449 87.7577C252.449 85.0683 253.041 82.6831 254.225 80.602C255.41 78.5209 257.027 76.9201 259.076 75.7995C261.125 74.6789 263.414 74.1186 265.944 74.1186C268.473 74.1186 270.762 74.6789 272.811 75.7995C274.86 76.9201 276.477 78.5209 277.662 80.602C278.846 82.6831 279.439 85.0683 279.439 87.7577C279.439 90.4471 278.83 92.8324 277.614 94.9135C276.397 96.9945 274.732 98.6114 272.619 99.764C270.538 100.885 268.233 101.445 265.703 101.445ZM265.703 96.6904C267.112 96.6904 268.425 96.3542 269.641 95.6819C270.89 95.0095 271.899 94.001 272.667 92.6563C273.435 91.3116 273.82 89.6787 273.82 87.7577C273.82 85.8367 273.451 84.2199 272.715 82.9072C271.979 81.5625 271.002 80.554 269.786 79.8816C268.569 79.2093 267.256 78.8731 265.847 78.8731C264.439 78.8731 263.126 79.2093 261.909 79.8816C260.725 80.554 259.78 81.5625 259.076 82.9072C258.372 84.2199 258.019 85.8367 258.019 87.7577C258.019 90.6072 258.74 92.8164 260.181 94.3852C261.653 95.922 263.494 96.6904 265.703 96.6904ZM316.633 74.1186C318.714 74.1186 320.571 74.5508 322.204 75.4153C323.869 76.2797 325.166 77.5604 326.094 79.2573C327.055 80.9542 327.535 83.0032 327.535 85.4045V101.013H322.108V86.2209C322.108 83.8517 321.516 82.0427 320.331 80.7941C319.147 79.5134 317.53 78.8731 315.481 78.8731C313.432 78.8731 311.799 79.5134 310.582 80.7941C309.398 82.0427 308.805 83.8517 308.805 86.2209V101.013H303.378V86.2209C303.378 83.8517 302.786 82.0427 301.601 80.7941C300.417 79.5134 298.8 78.8731 296.751 78.8731C294.702 78.8731 293.069 79.5134 291.852 80.7941C290.668 82.0427 290.075 83.8517 290.075 86.2209V101.013H284.601V74.5508H290.075V77.5764C290.972 76.4879 292.109 75.6394 293.485 75.0311C294.862 74.4228 296.335 74.1186 297.904 74.1186C300.017 74.1186 301.906 74.5669 303.571 75.4633C305.235 76.3598 306.516 77.6565 307.413 79.3533C308.213 77.7525 309.462 76.4879 311.158 75.5594C312.855 74.5989 314.68 74.1186 316.633 74.1186ZM339.726 78.4409C340.655 77.2242 341.919 76.1997 343.52 75.3673C345.121 74.5348 346.93 74.1186 348.947 74.1186C351.252 74.1186 353.349 74.6949 355.238 75.8475C357.159 76.9681 358.664 78.5529 359.753 80.602C360.841 82.6511 361.386 85.0043 361.386 87.6617C361.386 90.3191 360.841 92.7043 359.753 94.8174C358.664 96.8985 357.159 98.5313 355.238 99.716C353.349 100.869 351.252 101.445 348.947 101.445C346.93 101.445 345.137 101.045 343.568 100.244C342 99.4118 340.719 98.3873 339.726 97.1706V113.595H334.251V74.5508H339.726V78.4409ZM355.815 87.6617C355.815 85.8367 355.431 84.2679 354.662 82.9552C353.926 81.6105 352.933 80.602 351.685 79.9296C350.468 79.2253 349.155 78.8731 347.747 78.8731C346.37 78.8731 345.057 79.2253 343.808 79.9296C342.592 80.634 341.599 81.6585 340.831 83.0032C340.095 84.3479 339.726 85.9328 339.726 87.7577C339.726 89.5827 340.095 91.1835 340.831 92.5602C341.599 93.9049 342.592 94.9295 343.808 95.6338C345.057 96.3382 346.37 96.6904 347.747 96.6904C349.155 96.6904 350.468 96.3382 351.685 95.6338C352.933 94.8974 353.926 93.8409 354.662 92.4642C355.431 91.0875 355.815 89.4866 355.815 87.6617ZM364.725 87.6617C364.725 85.0043 365.269 82.6511 366.357 80.602C367.478 78.5529 368.983 76.9681 370.872 75.8475C372.793 74.6949 374.906 74.1186 377.211 74.1186C379.292 74.1186 381.101 74.5348 382.638 75.3673C384.207 76.1677 385.455 77.1762 386.384 78.3928V74.5508H391.907V101.013H386.384V97.0746C385.455 98.3232 384.191 99.3638 382.59 100.196C380.989 101.029 379.164 101.445 377.115 101.445C374.842 101.445 372.761 100.869 370.872 99.716C368.983 98.5313 367.478 96.8985 366.357 94.8174C365.269 92.7043 364.725 90.3191 364.725 87.6617ZM386.384 87.7577C386.384 85.9328 386 84.3479 385.231 83.0032C384.495 81.6585 383.518 80.634 382.302 79.9296C381.085 79.2253 379.772 78.8731 378.364 78.8731C376.955 78.8731 375.642 79.2253 374.426 79.9296C373.209 80.602 372.217 81.6105 371.448 82.9552C370.712 84.2679 370.344 85.8367 370.344 87.6617C370.344 89.4866 370.712 91.0875 371.448 92.4642C372.217 93.8409 373.209 94.8974 374.426 95.6338C375.674 96.3382 376.987 96.6904 378.364 96.6904C379.772 96.6904 381.085 96.3382 382.302 95.6338C383.518 94.9295 384.495 93.9049 385.231 92.5602C386 91.1835 386.384 89.5827 386.384 87.7577ZM412.199 74.1186C414.28 74.1186 416.137 74.5508 417.769 75.4153C419.434 76.2797 420.731 77.5604 421.66 79.2573C422.588 80.9542 423.052 83.0032 423.052 85.4045V101.013H417.625V86.2209C417.625 83.8517 417.033 82.0427 415.848 80.7941C414.664 79.5134 413.047 78.8731 410.998 78.8731C408.949 78.8731 407.316 79.5134 406.099 80.7941C404.915 82.0427 404.322 83.8517 404.322 86.2209V101.013H398.848V74.5508H404.322V77.5764C405.219 76.4879 406.356 75.6394 407.732 75.0311C409.141 74.4228 410.63 74.1186 412.199 74.1186ZM453.606 74.5508L437.374 113.451H431.707L437.085 100.58L426.664 74.5508H432.763L440.207 94.7214L447.939 74.5508H453.606Z" fill="black"/>
<path d="M58.3319 3.6019C61.8858 3.6019 64.9914 4.29025 67.6488 5.66697C70.3382 7.01167 72.4032 8.96469 73.844 11.526C75.3168 14.0553 76.0531 17.0169 76.0531 20.4106C76.0531 23.8044 75.3168 26.75 73.844 29.2473C72.4032 31.7446 70.3382 33.6656 67.6488 35.0103C64.9914 36.3229 61.8858 36.9793 58.3319 36.9793H47.4302V3.6019H58.3319ZM58.3319 32.513C62.238 32.513 65.2315 31.4564 67.3126 29.3433C69.3937 27.2302 70.4342 24.2527 70.4342 20.4106C70.4342 16.5366 69.3937 13.5111 67.3126 11.3339C65.2315 9.15679 62.238 8.06822 58.3319 8.06822H52.9051V32.513H58.3319ZM105.05 10.5175L88.817 49.4178H83.1501L88.5289 36.5471L78.1075 10.5175H84.2066L91.6505 30.688L99.3825 10.5175H105.05ZM122.282 10.0853C124.363 10.0853 126.22 10.5175 127.853 11.3819C129.518 12.2464 130.814 13.5271 131.743 15.2239C132.671 16.9208 133.136 18.9699 133.136 21.3712V36.9793H127.709V22.1876C127.709 19.8183 127.116 18.0094 125.932 16.7607C124.747 15.4801 123.13 14.8397 121.081 14.8397C119.032 14.8397 117.399 15.4801 116.183 16.7607C114.998 18.0094 114.406 19.8183 114.406 22.1876V36.9793H108.931V10.5175H114.406V13.5431C115.302 12.4545 116.439 11.6061 117.816 10.9977C119.224 10.3894 120.713 10.0853 122.282 10.0853ZM138.044 23.6283C138.044 20.9709 138.588 18.6177 139.677 16.5686C140.797 14.5196 142.302 12.9348 144.191 11.8142C146.112 10.6616 148.225 10.0853 150.531 10.0853C152.612 10.0853 154.421 10.5015 155.957 11.3339C157.526 12.1343 158.775 13.1429 159.703 14.3595V10.5175H165.226V36.9793H159.703V33.0412C158.775 34.2899 157.51 35.3304 155.909 36.1629C154.309 36.9953 152.484 37.4115 150.435 37.4115C148.161 37.4115 146.08 36.8352 144.191 35.6826C142.302 34.498 140.797 32.8651 139.677 30.7841C138.588 28.671 138.044 26.2857 138.044 23.6283ZM159.703 23.7244C159.703 21.8994 159.319 20.3146 158.551 18.9699C157.814 17.6252 156.838 16.6007 155.621 15.8963C154.405 15.1919 153.092 14.8397 151.683 14.8397C150.274 14.8397 148.962 15.1919 147.745 15.8963C146.528 16.5686 145.536 17.5772 144.768 18.9219C144.031 20.2346 143.663 21.8034 143.663 23.6283C143.663 25.4533 144.031 27.0541 144.768 28.4308C145.536 29.8075 146.528 30.8641 147.745 31.6005C148.994 32.3048 150.306 32.657 151.683 32.657C153.092 32.657 154.405 32.3048 155.621 31.6005C156.838 30.8961 157.814 29.8716 158.551 28.5269C159.319 27.1502 159.703 25.5493 159.703 23.7244ZM204.2 10.0853C206.281 10.0853 208.138 10.5175 209.771 11.3819C211.436 12.2464 212.732 13.5271 213.661 15.2239C214.621 16.9208 215.101 18.9699 215.101 21.3712V36.9793H209.675V22.1876C209.675 19.8183 209.082 18.0094 207.898 16.7607C206.713 15.4801 205.096 14.8397 203.047 14.8397C200.998 14.8397 199.365 15.4801 198.149 16.7607C196.964 18.0094 196.372 19.8183 196.372 22.1876V36.9793H190.945V22.1876C190.945 19.8183 190.353 18.0094 189.168 16.7607C187.983 15.4801 186.366 14.8397 184.317 14.8397C182.268 14.8397 180.635 15.4801 179.419 16.7607C178.234 18.0094 177.642 19.8183 177.642 22.1876V36.9793H172.167V10.5175H177.642V13.5431C178.538 12.4545 179.675 11.6061 181.052 10.9977C182.428 10.3894 183.901 10.0853 185.47 10.0853C187.583 10.0853 189.472 10.5335 191.137 11.43C192.802 12.3264 194.082 13.6231 194.979 15.32C195.779 13.7192 197.028 12.4545 198.725 11.526C200.422 10.5655 202.247 10.0853 204.2 10.0853ZM224.603 7.01167C223.611 7.01167 222.778 6.6755 222.106 6.00315C221.434 5.3308 221.098 4.49836 221.098 3.50585C221.098 2.51333 221.434 1.6809 222.106 1.00855C222.778 0.336196 223.611 2.00376e-05 224.603 2.00376e-05C225.564 2.00376e-05 226.38 0.336196 227.053 1.00855C227.725 1.6809 228.061 2.51333 228.061 3.50585C228.061 4.49836 227.725 5.3308 227.053 6.00315C226.38 6.6755 225.564 7.01167 224.603 7.01167ZM227.293 10.5175V36.9793H221.818V10.5175H227.293ZM232.406 23.7244C232.406 21.003 232.95 18.6177 234.039 16.5686C235.159 14.4876 236.696 12.8867 238.649 11.7661C240.602 10.6456 242.843 10.0853 245.372 10.0853C248.574 10.0853 251.215 10.8537 253.297 12.3905C255.41 13.8953 256.834 16.0564 257.571 18.8739H251.664C251.183 17.5612 250.415 16.5366 249.359 15.8002C248.302 15.0639 246.973 14.6957 245.372 14.6957C243.131 14.6957 241.338 15.4961 239.994 17.0969C238.681 18.6657 238.025 20.8749 238.025 23.7244C238.025 26.5739 238.681 28.799 239.994 30.3999C241.338 32.0007 243.131 32.8011 245.372 32.8011C248.542 32.8011 250.639 31.4084 251.664 28.6229H257.571C256.802 31.3123 255.362 33.4574 253.249 35.0583C251.135 36.6271 248.51 37.4115 245.372 37.4115C242.843 37.4115 240.602 36.8512 238.649 35.7306C236.696 34.578 235.159 32.9772 234.039 30.9281C232.95 28.847 232.406 26.4458 232.406 23.7244Z" fill="url(#paint0_linear_213_691)"/>
<defs>
<linearGradient id="paint0_linear_213_691" x1="60.3995" y1="51.9871" x2="330.54" y2="51.9871" gradientUnits="userSpaceOnUse">
<stop stop-color="#AE8631"/>
<stop offset="1" stop-color="#28705A"/>
</linearGradient>
</defs>
</svg>
