<svg width="178" height="133" viewBox="0 0 178 133" fill="none" xmlns="http://www.w3.org/2000/svg">
<path d="M80.8539 132.801H0.211661C0.152704 132.792 0.0989634 132.762 0.0601477 132.717C0.0213319 132.672 0 132.614 0 132.554C0 132.495 0.0213319 132.437 0.0601477 132.392C0.0989634 132.346 0.152704 132.316 0.211661 132.307H80.8539C80.9129 132.316 80.9666 132.346 81.0054 132.392C81.0442 132.437 81.0656 132.495 81.0656 132.554C81.0656 132.614 81.0442 132.672 81.0054 132.717C80.9666 132.762 80.9129 132.792 80.8539 132.801Z" fill="#E6E6E6"/>
<path d="M176.27 7.16583H174.788V7.41292H176.27V7.16583Z" fill="#E6E6E6"/>
<path d="M171.793 7.41292H168.798V7.16583H171.793V7.41292ZM165.803 7.41292H162.808V7.16583H165.803V7.41292ZM159.813 7.41292H156.818V7.16583H159.814L159.813 7.41292ZM153.823 7.41292H150.828V7.16583H153.823L153.823 7.41292ZM147.833 7.41292H144.838V7.16583H147.833L147.833 7.41292ZM141.843 7.41292H138.847V7.16583H141.842L141.843 7.41292ZM135.853 7.41292H132.856V7.16583H135.851L135.853 7.41292ZM129.863 7.41292H126.867V7.16583H129.862L129.863 7.41292ZM123.873 7.41292H120.877V7.16583H123.872L123.873 7.41292ZM117.883 7.41292H114.887V7.16583H117.882L117.883 7.41292ZM111.893 7.41292H108.897V7.16583H111.892L111.893 7.41292ZM105.903 7.41292H102.907V7.16583H105.902L105.903 7.41292ZM99.9131 7.41292H96.9168V7.16583H99.9118L99.9131 7.41292ZM93.9231 7.41292H90.9269V7.16583H93.9219L93.9231 7.41292ZM87.9331 7.41292H84.9367V7.16583H87.9316L87.9331 7.41292ZM81.9431 7.41292H78.9467V7.16583H81.9417L81.9431 7.41292Z" fill="#E6E6E6"/>
<path d="M86.3228 13.3028H84.8403V13.5499H86.3228V13.3028Z" fill="#E6E6E6"/>
<path d="M127.594 30.1451H126.111V30.3922H127.594V30.1451Z" fill="#E6E6E6"/>
<path d="M123.16 30.3922H120.21V30.1451H123.16V30.3922ZM117.259 30.3922H114.309V30.1451H117.259V30.3922ZM111.358 30.3922H108.408V30.1451H111.359L111.358 30.3922ZM105.457 30.3922H102.506V30.1451H105.457L105.457 30.3922ZM99.5562 30.3922H96.6052V30.1451H99.5557L99.5562 30.3922ZM93.655 30.3922H90.7042V30.1451H93.6547L93.655 30.3922ZM87.7539 30.3922H84.8032V30.1451H87.7537L87.7539 30.3922ZM81.8529 30.3922H78.9019V30.1451H81.8524L81.8529 30.3922Z" fill="#E6E6E6"/>
<path d="M86.3228 36.282H84.8403V36.5291H86.3228V36.282Z" fill="#E6E6E6"/>
<path d="M98.6841 41.0167H97.2015V41.2638H98.6841V41.0167Z" fill="#E6E6E6"/>
<path d="M94.1657 41.2638H91.1299V41.0167H94.1657V41.2638ZM88.0942 41.2638H85.0587V41.0167H88.0944L88.0942 41.2638ZM82.0229 41.2638H78.9872V41.0167H82.0229V41.2638Z" fill="#E6E6E6"/>
<path d="M86.3228 47.1542H84.8403V47.4013H86.3228V47.1542Z" fill="#E6E6E6"/>
<path d="M176.312 9.88595V52.2027C176.31 54.3317 175.463 56.3729 173.957 57.8783C172.452 59.3838 170.411 60.2307 168.282 60.2331H82.2942C81.1669 60.2339 80.0523 59.9965 79.0231 59.5366C77.9939 59.0768 77.0735 58.4048 76.322 57.5646V57.1865C77.0454 58.0568 77.9504 58.7583 78.9735 59.2419C79.9966 59.7255 81.1131 59.9795 82.2447 59.9861L97.1171 45.1137C97.511 44.7198 98.0452 44.4986 98.6021 44.4986C99.1591 44.4986 99.6933 44.7198 100.087 45.1137L107.992 53.0156L126.521 34.4888C126.915 34.0949 127.449 33.8737 128.006 33.8737C128.563 33.8737 129.097 34.0949 129.491 34.4888L140.36 45.3558L175.82 9.8983L176.065 9.89089L176.179 9.88842L176.312 9.88595Z" fill="#28705A"/>
<path d="M168.363 60.2901H82.3755C80.2464 60.2877 78.2053 59.4409 76.6998 57.9354C75.1943 56.4299 74.3475 54.3887 74.3451 52.2597V8.03045C74.3475 5.90138 75.1943 3.86021 76.6998 2.35474C78.2053 0.849259 80.2464 0.00241973 82.3755 0H168.363C170.492 0.00241973 172.533 0.849259 174.039 2.35474C175.544 3.86021 176.391 5.90138 176.394 8.03045V52.2597C176.391 54.3887 175.544 56.4299 174.039 57.9354C172.533 59.4409 170.492 60.2877 168.363 60.2901ZM82.3755 0.247091C80.312 0.249445 78.3336 1.07023 76.8744 2.52938C75.4153 3.98854 74.5945 5.9669 74.5922 8.03045V52.2597C74.5945 54.3232 75.4153 56.3016 76.8744 57.7607C78.3336 59.2199 80.312 60.0407 82.3755 60.043H168.363C170.427 60.0407 172.405 59.2199 173.864 57.7607C175.323 56.3016 176.144 54.3232 176.146 52.2597V8.03045C176.144 5.9669 175.323 3.98854 173.864 2.52938C172.405 1.07023 170.427 0.249445 168.363 0.247091H82.3755Z" fill="#3F3D56"/>
<path d="M82.4633 60.254L82.2886 60.0793L97.1988 45.1681C97.5929 44.7747 98.127 44.5538 98.6839 44.5538C99.2408 44.5538 99.7749 44.7747 100.169 45.1681L108.073 53.0725L126.603 34.5432C126.997 34.1499 127.531 33.9291 128.088 33.9291C128.645 33.9291 129.179 34.1499 129.573 34.5432L140.442 45.4127L176.183 9.67203L176.358 9.84673L140.442 45.7628L129.397 34.7179C129.049 34.3704 128.578 34.1752 128.087 34.1752C127.595 34.1752 127.124 34.3704 126.776 34.7179L108.071 53.4227L99.9916 45.3428C99.6438 44.9958 99.1726 44.801 98.6813 44.801C98.19 44.801 97.7188 44.9958 97.371 45.3428L82.4633 60.254Z" fill="#3F3D56"/>
<path d="M98.684 42.8701C99.6392 42.8701 100.414 42.0957 100.414 41.1405C100.414 40.1852 99.6392 39.4108 98.684 39.4108C97.7287 39.4108 96.9544 40.1852 96.9544 41.1405C96.9544 42.0957 97.7287 42.8701 98.684 42.8701Z" fill="#3F3D56"/>
<path d="M127.594 31.9985C128.549 31.9985 129.323 31.2241 129.323 30.2688C129.323 29.3136 128.549 28.5392 127.594 28.5392C126.638 28.5392 125.864 29.3136 125.864 30.2688C125.864 31.2241 126.638 31.9985 127.594 31.9985Z" fill="#3F3D56"/>
<path d="M176.27 9.01874C177.226 9.01874 178 8.24435 178 7.2891C178 6.33385 177.226 5.55947 176.27 5.55947C175.315 5.55947 174.541 6.33385 174.541 7.2891C174.541 8.24435 175.315 9.01874 176.27 9.01874Z" fill="#3F3D56"/>
</svg>
