<svg width="64" height="106" viewBox="0 0 64 106" fill="none" xmlns="http://www.w3.org/2000/svg">
<path d="M64 21.3695H63.463V7.83401C63.463 6.80523 63.2429 5.78651 62.8153 4.83604C62.3877 3.88556 61.761 3.02194 60.9709 2.29449C60.1808 1.56703 59.2428 0.989982 58.2105 0.596293C57.1782 0.202604 56.0718 -1.61033e-05 54.9544 9.599e-10H23.8097C21.5531 9.59903e-10 19.3889 0.825366 17.7933 2.29453C16.1976 3.76369 15.3012 5.7563 15.3012 7.83401V82.0893C15.3012 84.1671 16.1976 86.1597 17.7933 87.6288C19.3889 89.098 21.5531 89.9234 23.8097 89.9234H54.9544C57.211 89.9234 59.3752 89.098 60.9708 87.6288C62.5665 86.1597 63.4629 84.1671 63.4629 82.0893V31.003H64V21.3695Z" fill="#090814" fill-opacity="0.7"/>
<path d="M55.299 2.03857H51.2343C51.4213 2.46066 51.4927 2.91862 51.4422 3.3721C51.3917 3.82558 51.2208 4.26065 50.9445 4.63898C50.6683 5.01731 50.2953 5.32728 49.8583 5.54158C49.4213 5.75588 48.9338 5.86792 48.4387 5.86784H30.595C30.0999 5.86794 29.6123 5.75591 29.1753 5.54162C28.7383 5.32733 28.3653 5.01736 28.0891 4.63903C27.8129 4.2607 27.6419 3.82562 27.5914 3.37213C27.5409 2.91865 27.6122 2.46067 27.7993 2.03857H24.0034C22.3182 2.03857 20.7021 2.65495 19.5105 3.7521C18.3189 4.84925 17.6494 6.33731 17.6494 7.88892V82.0357C17.6494 82.804 17.8138 83.5647 18.1331 84.2745C18.4524 84.9843 18.9204 85.6292 19.5104 86.1724C20.1004 86.7157 20.8009 87.1466 21.5718 87.4406C22.3426 87.7346 23.1689 87.8859 24.0033 87.8859H55.2984C56.9836 87.8859 58.5998 87.2695 59.7914 86.1724C60.983 85.0752 61.6524 83.5872 61.6524 82.0356V7.88892C61.6525 6.33745 60.9832 4.8495 59.7917 3.75237C58.6003 2.65523 56.9844 2.03877 55.2994 2.03857H55.299Z" fill="white"/>
<path d="M52.7721 12.2202H25.2925C24.704 12.2202 24.227 12.6594 24.227 13.2013V23.3708C24.227 23.9126 24.704 24.3518 25.2925 24.3518H52.7721C53.3605 24.3518 53.8376 23.9126 53.8376 23.3708V13.2013C53.8376 12.6594 53.3605 12.2202 52.7721 12.2202Z" fill="#E6E6E6"/>
<path d="M25.7711 54.8361C26.2941 54.8361 26.718 54.4457 26.718 53.9642C26.718 53.4826 26.2941 53.0923 25.7711 53.0923C25.2481 53.0923 24.8241 53.4826 24.8241 53.9642C24.8241 54.4457 25.2481 54.8361 25.7711 54.8361Z" fill="#E6E6E6"/>
<path d="M29.6735 53.5128C29.6084 53.5118 29.5438 53.5227 29.4833 53.545C29.4229 53.5672 29.3679 53.6003 29.3215 53.6423C29.2751 53.6843 29.2382 53.7344 29.2131 53.7897C29.1879 53.845 29.175 53.9043 29.175 53.9642C29.175 54.0241 29.1879 54.0835 29.2131 54.1387C29.2382 54.194 29.2751 54.2441 29.3215 54.2861C29.3679 54.3281 29.4229 54.3612 29.4833 54.3835C29.5438 54.4057 29.6084 54.4167 29.6735 54.4157H52.7891C52.8536 54.4167 52.9176 54.4061 52.9776 54.3843C53.0376 54.3626 53.0923 54.3301 53.1386 54.2889C53.185 54.2477 53.222 54.1984 53.2477 54.144C53.2733 54.0895 53.2871 54.031 53.2882 53.9716C53.2892 53.9123 53.2776 53.8534 53.2539 53.7982C53.2302 53.743 53.1949 53.6927 53.15 53.65C53.1052 53.6074 53.0516 53.5734 52.9925 53.5498C52.9333 53.5262 52.8697 53.5137 52.8053 53.5128H29.6735Z" fill="#E6E6E6"/>
<path d="M25.7711 59.071C26.2941 59.071 26.718 58.6806 26.718 58.1991C26.718 57.7175 26.2941 57.3271 25.7711 57.3271C25.2481 57.3271 24.8241 57.7175 24.8241 58.1991C24.8241 58.6806 25.2481 59.071 25.7711 59.071Z" fill="#E6E6E6"/>
<path d="M29.6735 57.7476C29.6084 57.7466 29.5438 57.7576 29.4833 57.7798C29.4229 57.8021 29.3679 57.8352 29.3215 57.8772C29.2751 57.9192 29.2382 57.9693 29.2131 58.0246C29.1879 58.0798 29.175 58.1392 29.175 58.1991C29.175 58.259 29.1879 58.3183 29.2131 58.3736C29.2382 58.4289 29.2751 58.479 29.3215 58.521C29.3679 58.563 29.4229 58.5961 29.4833 58.6183C29.5438 58.6406 29.6084 58.6515 29.6735 58.6506H52.7891C52.8536 58.6516 52.9176 58.6409 52.9776 58.6192C53.0376 58.5974 53.0923 58.565 53.1386 58.5238C53.185 58.4825 53.222 58.4333 53.2477 58.3788C53.2733 58.3244 53.2871 58.2658 53.2882 58.2065C53.2892 58.1472 53.2776 58.0882 53.2539 58.033C53.2302 57.9779 53.1949 57.9275 53.15 57.8849C53.1052 57.8423 53.0516 57.8082 52.9925 57.7847C52.9333 57.7611 52.8697 57.7485 52.8053 57.7476H29.6735Z" fill="#E6E6E6"/>
<path d="M25.7711 63.3058C26.2941 63.3058 26.718 62.9155 26.718 62.4339C26.718 61.9524 26.2941 61.562 25.7711 61.562C25.2481 61.562 24.8241 61.9524 24.8241 62.4339C24.8241 62.9155 25.2481 63.3058 25.7711 63.3058Z" fill="#E6E6E6"/>
<path d="M29.6735 61.9822C29.6084 61.9813 29.5438 61.9922 29.4833 62.0144C29.4229 62.0367 29.3679 62.0698 29.3215 62.1118C29.2751 62.1538 29.2382 62.2039 29.2131 62.2592C29.1879 62.3145 29.175 62.3738 29.175 62.4337C29.175 62.4936 29.1879 62.5529 29.2131 62.6082C29.2382 62.6635 29.2751 62.7136 29.3215 62.7556C29.3679 62.7976 29.4229 62.8307 29.4833 62.853C29.5438 62.8752 29.6084 62.8862 29.6735 62.8852H52.7891C52.8536 62.8862 52.9176 62.8756 52.9776 62.8538C53.0376 62.8321 53.0923 62.7996 53.1386 62.7584C53.185 62.7171 53.222 62.6679 53.2477 62.6135C53.2733 62.559 53.2871 62.5005 53.2882 62.4411C53.2892 62.3818 53.2776 62.3228 53.2539 62.2677C53.2302 62.2125 53.1949 62.1621 53.15 62.1195C53.1052 62.0769 53.0516 62.0428 52.9925 62.0193C52.9333 61.9957 52.8697 61.9831 52.8053 61.9822H29.6735Z" fill="#E6E6E6"/>
<path d="M25.7711 67.5407C26.2941 67.5407 26.718 67.1503 26.718 66.6688C26.718 66.1872 26.2941 65.7969 25.7711 65.7969C25.2481 65.7969 24.8241 66.1872 24.8241 66.6688C24.8241 67.1503 25.2481 67.5407 25.7711 67.5407Z" fill="#E6E6E6"/>
<path d="M29.6735 66.2171C29.6084 66.2161 29.5438 66.2271 29.4833 66.2493C29.4229 66.2716 29.3679 66.3047 29.3215 66.3467C29.2751 66.3887 29.2382 66.4388 29.2131 66.4941C29.1879 66.5493 29.175 66.6086 29.175 66.6686C29.175 66.7285 29.1879 66.7878 29.2131 66.8431C29.2382 66.8983 29.2751 66.9484 29.3215 66.9905C29.3679 67.0325 29.4229 67.0656 29.4833 67.0878C29.5438 67.1101 29.6084 67.121 29.6735 67.12H52.7891C52.9191 67.1219 53.0445 67.0761 53.1378 66.9928C53.2312 66.9096 53.2848 66.7956 53.2869 66.676C53.2891 66.5563 53.2395 66.4408 53.1492 66.3548C53.0589 66.2687 52.9352 66.2192 52.8053 66.2171H29.6735Z" fill="#E6E6E6"/>
<path d="M25.7711 71.7755C26.2941 71.7755 26.718 71.3852 26.718 70.9036C26.718 70.4221 26.2941 70.0317 25.7711 70.0317C25.2481 70.0317 24.8241 70.4221 24.8241 70.9036C24.8241 71.3852 25.2481 71.7755 25.7711 71.7755Z" fill="#E6E6E6"/>
<path d="M29.6735 70.452C29.6084 70.451 29.5438 70.4619 29.4833 70.4842C29.4229 70.5064 29.3679 70.5395 29.3215 70.5815C29.2751 70.6236 29.2382 70.6737 29.2131 70.7289C29.1879 70.7842 29.175 70.8435 29.175 70.9034C29.175 70.9634 29.1879 71.0227 29.2131 71.0779C29.2382 71.1332 29.2751 71.1833 29.3215 71.2253C29.3679 71.2674 29.4229 71.3004 29.4833 71.3227C29.5438 71.3449 29.6084 71.3559 29.6735 71.3549H52.7891C52.8536 71.3559 52.9176 71.3453 52.9776 71.3235C53.0376 71.3018 53.0923 71.2694 53.1386 71.2281C53.185 71.1869 53.222 71.1376 53.2477 71.0832C53.2733 71.0288 53.2871 70.9702 53.2882 70.9109C53.2892 70.8515 53.2776 70.7926 53.2539 70.7374C53.2302 70.6822 53.1949 70.6319 53.15 70.5893C53.1052 70.5466 53.0516 70.5126 52.9925 70.489C52.9333 70.4655 52.8697 70.4529 52.8053 70.452H29.6735Z" fill="#E6E6E6"/>
<path d="M25.7711 76.0099C26.2941 76.0099 26.718 75.6196 26.718 75.138C26.718 74.6565 26.2941 74.2661 25.7711 74.2661C25.2481 74.2661 24.8241 74.6565 24.8241 75.138C24.8241 75.6196 25.2481 76.0099 25.7711 76.0099Z" fill="#E6E6E6"/>
<path d="M29.6735 74.6866C29.6084 74.6856 29.5438 74.6965 29.4833 74.7188C29.4229 74.741 29.3679 74.7741 29.3215 74.8162C29.2751 74.8582 29.2382 74.9083 29.2131 74.9635C29.1879 75.0188 29.175 75.0781 29.175 75.1381C29.175 75.198 29.1879 75.2573 29.2131 75.3126C29.2382 75.3678 29.2751 75.4179 29.3215 75.4599C29.3679 75.502 29.4229 75.5351 29.4833 75.5573C29.5438 75.5796 29.6084 75.5905 29.6735 75.5895H52.7891C52.8536 75.5906 52.9176 75.5799 52.9776 75.5582C53.0376 75.5364 53.0923 75.504 53.1386 75.4627C53.185 75.4215 53.222 75.3723 53.2477 75.3178C53.2733 75.2634 53.2871 75.2048 53.2882 75.1455C53.2892 75.0861 53.2776 75.0272 53.2539 74.972C53.2302 74.9168 53.1949 74.8665 53.15 74.8239C53.1052 74.7813 53.0516 74.7472 52.9925 74.7236C52.9333 74.7001 52.8697 74.6875 52.8053 74.6866H29.6735Z" fill="#E6E6E6"/>
<path d="M25.7711 80.2448C26.2941 80.2448 26.718 79.8544 26.718 79.3729C26.718 78.8913 26.2941 78.501 25.7711 78.501C25.2481 78.501 24.8241 78.8913 24.8241 79.3729C24.8241 79.8544 25.2481 80.2448 25.7711 80.2448Z" fill="#E6E6E6"/>
<path d="M29.6735 78.9217C29.6084 78.9207 29.5438 78.9317 29.4833 78.9539C29.4229 78.9761 29.3679 79.0092 29.3215 79.0513C29.2751 79.0933 29.2382 79.1434 29.2131 79.1987C29.1879 79.2539 29.175 79.3132 29.175 79.3732C29.175 79.4331 29.1879 79.4924 29.2131 79.5477C29.2382 79.6029 29.2751 79.653 29.3215 79.6951C29.3679 79.7371 29.4229 79.7702 29.4833 79.7924C29.5438 79.8147 29.6084 79.8256 29.6735 79.8246H52.7891C52.8536 79.8257 52.9176 79.815 52.9776 79.7933C53.0376 79.7715 53.0923 79.7391 53.1386 79.6978C53.185 79.6566 53.222 79.6074 53.2477 79.5529C53.2733 79.4985 53.2871 79.4399 53.2882 79.3806C53.2892 79.3213 53.2776 79.2623 53.2539 79.2071C53.2302 79.1519 53.1949 79.1016 53.15 79.059C53.1052 79.0164 53.0516 78.9823 52.9925 78.9587C52.9333 78.9352 52.8697 78.9226 52.8053 78.9217H29.6735Z" fill="#E6E6E6"/>
<path d="M40.429 29.0476H5.77849C5.25884 29.0476 4.83759 29.5006 4.83759 30.0594V45.5259C4.83759 46.0847 5.25884 46.5377 5.77849 46.5377H40.429C40.9486 46.5377 41.3699 46.0847 41.3699 45.5259V30.0594C41.3699 29.5006 40.9486 29.0476 40.429 29.0476Z" fill="#28705A"/>
<path d="M14.8906 41.7281C16.9028 41.7281 18.5339 39.974 18.5339 37.8102C18.5339 35.6464 16.9028 33.8923 14.8906 33.8923C12.8785 33.8923 11.2473 35.6464 11.2473 37.8102C11.2473 39.974 12.8785 41.7281 14.8906 41.7281Z" fill="white"/>
<path d="M23.1141 37.2893C23.0011 37.2893 22.8928 37.3376 22.8129 37.4235C22.733 37.5094 22.6881 37.6259 22.6881 37.7474C22.6881 37.8689 22.733 37.9854 22.8129 38.0713C22.8928 38.1572 23.0011 38.2055 23.1141 38.2055H34.6167C34.7297 38.2075 34.8388 38.1612 34.92 38.0767C35.0012 37.9922 35.0479 37.8764 35.0497 37.7549C35.0516 37.6334 35.0085 37.5161 34.9299 37.4288C34.8513 37.3415 34.7437 37.2913 34.6307 37.2893H23.1141Z" fill="white"/>
<path d="M23.1141 34.6348C23.0011 34.6348 22.8928 34.683 22.8129 34.7689C22.733 34.8549 22.6881 34.9714 22.6881 35.0929C22.6881 35.2144 22.733 35.3309 22.8129 35.4168C22.8928 35.5027 23.0011 35.551 23.1141 35.551H28.8586C28.9716 35.553 29.0807 35.5066 29.1619 35.4221C29.2431 35.3376 29.2897 35.2219 29.2916 35.1004C29.2934 34.9789 29.2503 34.8616 29.1718 34.7743C29.0932 34.6869 28.9856 34.6368 28.8726 34.6348H23.1141Z" fill="white"/>
<path d="M23.1141 40.0693C23.0011 40.0693 22.8928 40.1176 22.8129 40.2035C22.733 40.2894 22.6881 40.4059 22.6881 40.5274C22.6881 40.6489 22.733 40.7655 22.8129 40.8514C22.8928 40.9373 23.0011 40.9855 23.1141 40.9855H34.6167C34.7297 40.9875 34.8388 40.9412 34.92 40.8567C35.0012 40.7722 35.0479 40.6565 35.0497 40.535C35.0516 40.4135 35.0085 40.2962 34.9299 40.2088C34.8513 40.1215 34.7437 40.0713 34.6307 40.0693H23.1141Z" fill="white"/>
</svg>
