<svg width="295" height="38" viewBox="0 0 295 38" fill="none" xmlns="http://www.w3.org/2000/svg">
<path d="M17.084 37.3924C13.972 37.3924 11.1006 36.6705 8.46983 35.2268C5.87113 33.751 3.8018 31.7137 2.26183 29.115C0.753943 26.4842 -9.56139e-07 23.5326 -9.56139e-07 20.2602C-9.56139e-07 16.9878 0.753943 14.0522 2.26183 11.4535C3.8018 8.85479 5.87113 6.83358 8.46983 5.38985C11.1006 3.91405 13.972 3.17615 17.084 3.17615C20.2281 3.17615 23.0995 3.91405 25.6982 5.38985C28.329 6.83358 30.3984 8.85479 31.9063 11.4535C33.4141 14.0522 34.1681 16.9878 34.1681 20.2602C34.1681 23.5326 33.4141 26.4842 31.9063 29.115C30.3984 31.7137 28.329 33.751 25.6982 35.2268C23.0995 36.6705 20.2281 37.3924 17.084 37.3924ZM17.084 32.6281C19.2977 32.6281 21.2708 32.1308 23.0033 31.1362C24.7358 30.1096 26.0832 28.6659 27.0457 26.8051C28.0403 24.9122 28.5376 22.7306 28.5376 20.2602C28.5376 17.7898 28.0403 15.6242 27.0457 13.7634C26.0832 11.9026 24.7358 10.475 23.0033 9.4804C21.2708 8.48584 19.2977 7.98855 17.084 7.98855C14.8703 7.98855 12.8972 8.48584 11.1648 9.4804C9.43232 10.475 8.0688 11.9026 7.07424 13.7634C6.11176 15.6242 5.63051 17.7898 5.63051 20.2602C5.63051 22.7306 6.11176 24.9122 7.07424 26.8051C8.0688 28.6659 9.43232 30.1096 11.1648 31.1362C12.8972 32.1308 14.8703 32.6281 17.084 32.6281ZM63.3299 10.5391V37.0555H57.8437V33.9274C56.9775 35.0182 55.8386 35.8845 54.4269 36.5261C53.0474 37.1357 51.5716 37.4405 49.9995 37.4405C47.9141 37.4405 46.0373 37.0074 44.369 36.1411C42.7328 35.2749 41.4334 33.9916 40.471 32.2912C39.5406 30.5908 39.0754 28.5375 39.0754 26.1313V10.5391H44.5134V25.3132C44.5134 27.6873 45.1069 29.5161 46.294 30.7994C47.481 32.0506 49.1012 32.6762 51.1545 32.6762C53.2078 32.6762 54.828 32.0506 56.015 30.7994C57.2342 29.5161 57.8437 27.6873 57.8437 25.3132V10.5391H63.3299ZM75.8039 14.3891C76.606 13.0416 77.6647 11.9989 78.9801 11.261C80.3276 10.491 81.9157 10.106 83.7444 10.106V15.7847H82.3488C80.1993 15.7847 78.563 16.3301 77.4401 17.4209C76.3493 18.5117 75.8039 20.4046 75.8039 23.0995V37.0555H70.3178V10.5391H75.8039V14.3891Z" fill="black"/>
<path d="M111.807 37.3924C109.562 37.3924 107.54 37.0074 105.744 36.2374C103.947 35.4353 102.535 34.3124 101.509 32.8687C100.482 31.425 99.9688 29.7406 99.9688 27.8157H105.84C105.968 29.2594 106.53 30.4465 107.524 31.3768C108.551 32.3072 109.979 32.7724 111.807 32.7724C113.7 32.7724 115.176 32.3233 116.235 31.425C117.294 30.4946 117.823 29.3075 117.823 27.8638C117.823 26.7409 117.486 25.8265 116.812 25.1207C116.171 24.4149 115.352 23.8695 114.358 23.4845C113.395 23.0995 112.048 22.6824 110.316 22.2333C108.134 21.6558 106.353 21.0783 104.974 20.5008C103.626 19.8912 102.471 18.9608 101.509 17.7096C100.546 16.4584 100.065 14.7901 100.065 12.7047C100.065 10.7797 100.546 9.09541 101.509 7.65169C102.471 6.20796 103.819 5.10111 105.551 4.33113C107.284 3.56114 109.289 3.17615 111.567 3.17615C114.807 3.17615 117.454 3.99426 119.507 5.63047C121.593 7.23461 122.748 9.44832 122.972 12.2716H116.909C116.812 11.0525 116.235 10.0098 115.176 9.14353C114.117 8.2773 112.722 7.84418 110.989 7.84418C109.417 7.84418 108.134 8.24521 107.139 9.04728C106.145 9.84935 105.647 11.0043 105.647 12.5122C105.647 13.5389 105.952 14.3891 106.562 15.0628C107.203 15.7044 108.006 16.2178 108.968 16.6028C109.931 16.9878 111.246 17.4048 112.914 17.854C115.128 18.4636 116.925 19.0731 118.304 19.6827C119.716 20.2923 120.903 21.2387 121.865 22.522C122.86 23.7732 123.357 25.4576 123.357 27.575C123.357 29.2754 122.892 30.8796 121.962 32.3875C121.063 33.8953 119.732 35.1145 117.967 36.0449C116.235 36.9432 114.181 37.3924 111.807 37.3924ZM153.883 23.1476C153.883 24.1422 153.818 25.0405 153.69 25.8426H133.43C133.59 27.96 134.376 29.6604 135.788 30.9437C137.2 32.227 138.932 32.8687 140.985 32.8687C143.937 32.8687 146.022 31.6335 147.241 29.1631H153.161C152.359 31.6014 150.899 33.6066 148.781 35.1787C146.696 36.7186 144.097 37.4886 140.985 37.4886C138.451 37.4886 136.173 36.9272 134.152 35.8043C132.163 34.6493 130.591 33.0451 129.436 30.9919C128.313 28.9065 127.751 26.5003 127.751 23.7732C127.751 21.0462 128.297 18.6561 129.387 16.6028C130.51 14.5174 132.066 12.9132 134.055 11.7904C136.077 10.6675 138.387 10.106 140.985 10.106C143.488 10.106 145.718 10.6514 147.675 11.7422C149.632 12.833 151.156 14.373 152.246 16.3621C153.337 18.3192 153.883 20.581 153.883 23.1476ZM148.156 21.4152C148.124 19.394 147.402 17.7738 145.99 16.5546C144.579 15.3355 142.83 14.7259 140.745 14.7259C138.852 14.7259 137.232 15.3355 135.884 16.5546C134.537 17.7417 133.735 19.3619 133.478 21.4152H148.156ZM164.517 14.3891C165.319 13.0416 166.378 11.9989 167.693 11.261C169.041 10.491 170.629 10.106 172.457 10.106V15.7847H171.062C168.912 15.7847 167.276 16.3301 166.153 17.4209C165.062 18.5117 164.517 20.4046 164.517 23.0995V37.0555H159.031V10.5391H164.517V14.3891ZM187.5 32.1468L195.007 10.5391H200.83L190.724 37.0555H184.18L174.122 10.5391H179.993L187.5 32.1468ZM207.518 7.02607C206.523 7.02607 205.689 6.6892 205.016 6.01547C204.342 5.34173 204.005 4.50758 204.005 3.51302C204.005 2.51845 204.342 1.6843 205.016 1.01057C205.689 0.336828 206.523 -4.1114e-05 207.518 -4.1114e-05C208.48 -4.1114e-05 209.299 0.336828 209.972 1.01057C210.646 1.6843 210.983 2.51845 210.983 3.51302C210.983 4.50758 210.646 5.34173 209.972 6.01547C209.299 6.6892 208.48 7.02607 207.518 7.02607ZM210.213 10.5391V37.0555H204.727V10.5391H210.213ZM215.336 23.7732C215.336 21.0462 215.882 18.6561 216.973 16.6028C218.095 14.5174 219.635 12.9132 221.593 11.7904C223.55 10.6675 225.795 10.106 228.33 10.106C231.538 10.106 234.185 10.876 236.27 12.416C238.388 13.9239 239.815 16.0894 240.553 18.9127H234.634C234.153 17.5973 233.383 16.5707 232.324 15.8328C231.265 15.0949 229.934 14.7259 228.33 14.7259C226.084 14.7259 224.287 15.528 222.94 17.1321C221.625 18.7042 220.967 20.9179 220.967 23.7732C220.967 26.6286 221.625 28.8584 222.94 30.4625C224.287 32.0666 226.084 32.8687 228.33 32.8687C231.506 32.8687 233.607 31.4731 234.634 28.6819H240.553C239.783 31.3768 238.34 33.5264 236.222 35.1305C234.105 36.7026 231.474 37.4886 228.33 37.4886C225.795 37.4886 223.55 36.9272 221.593 35.8043C219.635 34.6493 218.095 33.0451 216.973 30.9919C215.882 28.9065 215.336 26.5003 215.336 23.7732ZM270.073 23.1476C270.073 24.1422 270.009 25.0405 269.88 25.8426H249.62C249.78 27.96 250.566 29.6604 251.978 30.9437C253.39 32.227 255.122 32.8687 257.175 32.8687C260.127 32.8687 262.212 31.6335 263.432 29.1631H269.351C268.549 31.6014 267.089 33.6066 264.972 35.1787C262.886 36.7186 260.288 37.4886 257.175 37.4886C254.641 37.4886 252.363 36.9272 250.342 35.8043C248.353 34.6493 246.781 33.0451 245.626 30.9919C244.503 28.9065 243.941 26.5003 243.941 23.7732C243.941 21.0462 244.487 18.6561 245.578 16.6028C246.7 14.5174 248.256 12.9132 250.246 11.7904C252.267 10.6675 254.577 10.106 257.175 10.106C259.678 10.106 261.908 10.6514 263.865 11.7422C265.822 12.833 267.346 14.373 268.437 16.3621C269.527 18.3192 270.073 20.581 270.073 23.1476ZM264.346 21.4152C264.314 19.394 263.592 17.7738 262.18 16.5546C260.769 15.3355 259.02 14.7259 256.935 14.7259C255.042 14.7259 253.422 15.3355 252.074 16.5546C250.727 17.7417 249.925 19.3619 249.668 21.4152H264.346ZM284.846 37.4886C282.76 37.4886 280.884 37.1197 279.215 36.3818C277.579 35.6118 276.28 34.5851 275.317 33.3018C274.355 31.9864 273.841 30.5267 273.777 28.9225H279.456C279.552 30.0454 280.082 30.9919 281.044 31.7618C282.039 32.4997 283.274 32.8687 284.75 32.8687C286.29 32.8687 287.477 32.58 288.311 32.0025C289.177 31.3929 289.61 30.6229 289.61 29.6925C289.61 28.6979 289.129 27.96 288.166 27.4788C287.236 26.9976 285.744 26.4682 283.691 25.8907C281.702 25.3453 280.082 24.8159 278.83 24.3026C277.579 23.7893 276.488 23.0033 275.558 21.9445C274.66 20.8858 274.21 19.4902 274.21 17.7577C274.21 16.3461 274.627 15.0628 275.462 13.9078C276.296 12.7208 277.483 11.7904 279.023 11.1166C280.595 10.4429 282.391 10.106 284.413 10.106C287.428 10.106 289.851 10.876 291.679 12.416C293.54 13.9239 294.535 15.9932 294.663 18.624H289.177C289.081 17.4369 288.599 16.4905 287.733 15.7847C286.867 15.0788 285.696 14.7259 284.22 14.7259C282.776 14.7259 281.67 14.9986 280.9 15.544C280.13 16.0894 279.745 16.8113 279.745 17.7096C279.745 18.4154 280.001 19.009 280.515 19.4902C281.028 19.9714 281.654 20.3564 282.391 20.6452C283.129 20.9018 284.22 21.2387 285.664 21.6558C287.589 22.1691 289.161 22.6985 290.38 23.2439C291.631 23.7572 292.706 24.5272 293.604 25.5538C294.503 26.5805 294.968 27.944 295 29.6444C295 31.1523 294.583 32.4997 293.749 33.6868C292.915 34.8739 291.728 35.8043 290.188 36.478C288.68 37.1517 286.899 37.4886 284.846 37.4886Z" fill="url(#paint0_linear_216_1309)"/>
<defs>
<linearGradient id="paint0_linear_216_1309" x1="148.106" y1="20.0115" x2="297.992" y2="20.0115" gradientUnits="userSpaceOnUse">
<stop stop-color="#AE8631"/>
<stop offset="1" stop-color="#28705A"/>
</linearGradient>
</defs>
</svg>
