<svg width="231" height="141" viewBox="0 0 231 141" fill="none" xmlns="http://www.w3.org/2000/svg">
<path d="M74.1065 45.623C69.9569 45.623 66.1283 44.6605 62.6205 42.7355C59.1554 40.7677 56.3962 38.0513 54.3428 34.5862C52.3323 31.0784 51.327 27.1428 51.327 22.7794C51.327 18.416 52.3323 14.5018 54.3428 11.0367C56.3962 7.57168 59.1554 4.87664 62.6205 2.95161C66.1283 0.983807 69.9569 -9.56171e-05 74.1065 -9.56171e-05C78.2987 -9.56171e-05 82.1274 0.983807 85.5924 2.95161C89.1003 4.87664 91.8595 7.57168 93.8701 11.0367C95.8806 14.5018 96.8859 18.416 96.8859 22.7794C96.8859 27.1428 95.8806 31.0784 93.8701 34.5862C91.8595 38.0513 89.1003 40.7677 85.5924 42.7355C82.1274 44.6605 78.2987 45.623 74.1065 45.623ZM74.1065 39.2704C77.0582 39.2704 79.689 38.6074 81.9991 37.2813C84.3091 35.9123 86.1058 33.9873 87.3891 31.5062C88.7153 28.9822 89.3783 26.0733 89.3783 22.7794C89.3783 19.4855 88.7153 16.5979 87.3891 14.1168C86.1058 11.6356 84.3091 9.73198 81.9991 8.40586C79.689 7.07973 77.0582 6.41666 74.1065 6.41666C71.1547 6.41666 68.5239 7.07973 66.2138 8.40586C63.9038 9.73198 62.0857 11.6356 60.7596 14.1168C59.4763 16.5979 58.8346 19.4855 58.8346 22.7794C58.8346 26.0733 59.4763 28.9822 60.7596 31.5062C62.0857 33.9873 63.9038 35.9123 66.2138 37.2813C68.5239 38.6074 71.1547 39.2704 74.1065 39.2704ZM135.853 9.81754V45.1739H128.538V41.003C127.383 42.4574 125.864 43.6125 123.982 44.468C122.143 45.2808 120.175 45.6872 118.079 45.6872C115.298 45.6872 112.796 45.1097 110.571 43.9547C108.389 42.7997 106.657 41.0885 105.374 38.8213C104.133 36.554 103.513 33.8162 103.513 30.6078V9.81754H110.764V29.517C110.764 32.6826 111.555 35.1209 113.138 36.8321C114.721 38.5004 116.881 39.3346 119.619 39.3346C122.357 39.3346 124.517 38.5004 126.1 36.8321C127.725 35.1209 128.538 32.6826 128.538 29.517V9.81754H135.853ZM152.569 14.9509C153.639 13.1543 155.05 11.764 156.804 10.7801C158.601 9.75337 160.719 9.24003 163.157 9.24003V16.8118H161.296C158.43 16.8118 156.248 17.539 154.751 18.9935C153.297 20.448 152.569 22.9719 152.569 26.5653V45.1739H145.254V9.81754H152.569V14.9509Z" fill="black"/>
<path d="M46.9706 95.8261V140.423H39.6555V109.879L26.052 140.423H20.9827L7.31505 109.879V140.423H-4.87647e-05V95.8261H7.89256L23.5494 130.797L39.1422 95.8261H46.9706ZM60.0563 100.382C58.7301 100.382 57.6179 99.9328 56.7196 99.0345C55.8212 98.1361 55.372 97.0239 55.372 95.6978C55.372 94.3717 55.8212 93.2594 56.7196 92.3611C57.6179 91.4627 58.7301 91.0136 60.0563 91.0136C61.3396 91.0136 62.4305 91.4627 63.3288 92.3611C64.2272 93.2594 64.6763 94.3717 64.6763 95.6978C64.6763 97.0239 64.2272 98.1361 63.3288 99.0345C62.4305 99.9328 61.3396 100.382 60.0563 100.382ZM63.6496 105.066V140.423H56.3345V105.066H63.6496ZM85.8366 141C83.056 141 80.5535 140.508 78.329 139.524C76.1473 138.498 74.4148 137.129 73.1314 135.417C71.8481 133.664 71.1636 131.717 71.078 129.578H78.6498C78.7781 131.075 79.484 132.337 80.7673 133.364C82.0935 134.348 83.7404 134.84 85.7082 134.84C87.7616 134.84 89.3444 134.455 90.4566 133.685C91.6117 132.872 92.1892 131.846 92.1892 130.605C92.1892 129.279 91.5475 128.295 90.2641 127.653C89.0236 127.012 87.0344 126.306 84.2966 125.536C81.6443 124.808 79.484 124.103 77.8156 123.418C76.1473 122.734 74.6928 121.686 73.4522 120.274C72.2544 118.862 71.6556 117.001 71.6556 114.691C71.6556 112.809 72.2117 111.098 73.3239 109.558C74.4361 107.975 76.0189 106.735 78.0723 105.836C80.1684 104.938 82.564 104.489 85.2591 104.489C89.2802 104.489 92.51 105.515 94.9484 107.569C97.4295 109.579 98.7556 112.339 98.9268 115.846H91.6117C91.4833 114.264 90.8416 113.002 89.6866 112.061C88.5316 111.119 86.9702 110.649 85.0024 110.649C83.0774 110.649 81.6015 111.012 80.5748 111.74C79.5482 112.467 79.0348 113.429 79.0348 114.627C79.0348 115.568 79.377 116.36 80.0615 117.001C80.746 117.643 81.5801 118.156 82.564 118.541C83.5479 118.884 85.0024 119.333 86.9274 119.889C89.4941 120.573 91.5903 121.279 93.2158 122.006C94.8842 122.691 96.3173 123.718 97.5151 125.087C98.7129 126.455 99.3332 128.274 99.3759 130.541C99.3759 132.551 98.8198 134.348 97.7076 135.931C96.5953 137.514 95.0125 138.754 92.9592 139.653C90.9486 140.551 88.5744 141 85.8366 141ZM119.863 141C117.082 141 114.58 140.508 112.355 139.524C110.174 138.498 108.441 137.129 107.158 135.417C105.874 133.664 105.19 131.717 105.104 129.578H112.676C112.804 131.075 113.51 132.337 114.794 133.364C116.12 134.348 117.767 134.84 119.735 134.84C121.788 134.84 123.371 134.455 124.483 133.685C125.638 132.872 126.216 131.846 126.216 130.605C126.216 129.279 125.574 128.295 124.29 127.653C123.05 127.012 121.061 126.306 118.323 125.536C115.671 124.808 113.51 124.103 111.842 123.418C110.174 122.734 108.719 121.686 107.479 120.274C106.281 118.862 105.682 117.001 105.682 114.691C105.682 112.809 106.238 111.098 107.35 109.558C108.462 107.975 110.045 106.735 112.099 105.836C114.195 104.938 116.59 104.489 119.285 104.489C123.307 104.489 126.536 105.515 128.975 107.569C131.456 109.579 132.782 112.339 132.953 115.846H125.638C125.51 114.264 124.868 113.002 123.713 112.061C122.558 111.119 120.997 110.649 119.029 110.649C117.104 110.649 115.628 111.012 114.601 111.74C113.575 112.467 113.061 113.429 113.061 114.627C113.061 115.568 113.403 116.36 114.088 117.001C114.772 117.643 115.606 118.156 116.59 118.541C117.574 118.884 119.029 119.333 120.954 119.889C123.52 120.573 125.617 121.279 127.242 122.006C128.911 122.691 130.344 123.718 131.541 125.087C132.739 126.455 133.359 128.274 133.402 130.541C133.402 132.551 132.846 134.348 131.734 135.931C130.622 137.514 129.039 138.754 126.986 139.653C124.975 140.551 122.601 141 119.863 141ZM144.777 100.382C143.451 100.382 142.339 99.9328 141.441 99.0345C140.542 98.1361 140.093 97.0239 140.093 95.6978C140.093 94.3717 140.542 93.2594 141.441 92.3611C142.339 91.4627 143.451 91.0136 144.777 91.0136C146.061 91.0136 147.152 91.4627 148.05 92.3611C148.948 93.2594 149.398 94.3717 149.398 95.6978C149.398 97.0239 148.948 98.1361 148.05 99.0345C147.152 99.9328 146.061 100.382 144.777 100.382ZM148.371 105.066V140.423H141.056V105.066H148.371ZM173.06 141C169.724 141 166.708 140.251 164.013 138.754C161.318 137.214 159.2 135.075 157.66 132.337C156.12 129.557 155.35 126.348 155.35 122.712C155.35 119.119 156.141 115.932 157.724 113.151C159.307 110.371 161.467 108.232 164.205 106.735C166.943 105.237 170.002 104.489 173.381 104.489C176.761 104.489 179.819 105.237 182.557 106.735C185.295 108.232 187.455 110.371 189.038 113.151C190.621 115.932 191.412 119.119 191.412 122.712C191.412 126.306 190.599 129.493 188.974 132.273C187.348 135.054 185.124 137.214 182.3 138.754C179.52 140.251 176.44 141 173.06 141ZM173.06 134.647C174.943 134.647 176.696 134.198 178.322 133.3C179.99 132.402 181.338 131.054 182.365 129.257C183.391 127.461 183.905 125.279 183.905 122.712C183.905 120.146 183.413 117.985 182.429 116.231C181.445 114.435 180.14 113.087 178.515 112.189C176.889 111.29 175.135 110.841 173.253 110.841C171.371 110.841 169.617 111.29 167.991 112.189C166.408 113.087 165.146 114.435 164.205 116.231C163.264 117.985 162.794 120.146 162.794 122.712C162.794 126.52 163.756 129.471 165.681 131.567C167.649 133.621 170.109 134.647 173.06 134.647ZM216.232 104.489C219.012 104.489 221.493 105.066 223.675 106.221C225.899 107.376 227.632 109.087 228.873 111.355C230.113 113.622 230.733 116.36 230.733 119.568V140.423H223.482V120.659C223.482 117.493 222.691 115.076 221.108 113.408C219.525 111.697 217.365 110.841 214.627 110.841C211.89 110.841 209.708 111.697 208.082 113.408C206.499 115.076 205.708 117.493 205.708 120.659V140.423H198.393V105.066H205.708V109.109C206.906 107.654 208.425 106.521 210.264 105.708C212.146 104.895 214.135 104.489 216.232 104.489Z" fill="url(#paint0_linear_1476_398)"/>
<defs>
<linearGradient id="paint0_linear_1476_398" x1="52.0315" y1="78.7616" x2="311.231" y2="78.7616" gradientUnits="userSpaceOnUse">
<stop stop-color="#AE8631"/>
<stop offset="1" stop-color="#28705A"/>
</linearGradient>
</defs>
</svg>
