<svg width="188" height="141" viewBox="0 0 188 141" fill="none" xmlns="http://www.w3.org/2000/svg">
<path d="M54.5929 45.5579C50.4493 45.5579 46.6261 44.5968 43.1233 42.6745C39.6632 40.7095 36.9079 37.997 34.8575 34.5369C32.8498 31.0341 31.8459 27.1041 31.8459 22.747C31.8459 18.3898 32.8498 14.4812 34.8575 11.0211C36.9079 7.56098 39.6632 4.86979 43.1233 2.94752C46.6261 0.982523 50.4493 2.67345e-05 54.5929 2.67345e-05C58.7791 2.67345e-05 62.6023 0.982523 66.0624 2.94752C69.5652 4.86979 72.3205 7.56098 74.3282 11.0211C76.3359 14.4812 77.3398 18.3898 77.3398 22.747C77.3398 27.1041 76.3359 31.0341 74.3282 34.5369C72.3205 37.997 69.5652 40.7095 66.0624 42.6745C62.6023 44.5968 58.7791 45.5579 54.5929 45.5579ZM54.5929 39.2144C57.5403 39.2144 60.1675 38.5523 62.4742 37.2281C64.7809 35.8611 66.575 33.9389 67.8566 31.4613C69.1808 28.9409 69.8429 26.0362 69.8429 22.747C69.8429 19.4577 69.1808 16.5743 67.8566 14.0967C66.575 11.6191 64.7809 9.7182 62.4742 8.39396C60.1675 7.06973 57.5403 6.40761 54.5929 6.40761C51.6454 6.40761 49.0183 7.06973 46.7115 8.39396C44.4048 9.7182 42.5893 11.6191 41.2651 14.0967C39.9836 16.5743 39.3428 19.4577 39.3428 22.747C39.3428 26.0362 39.9836 28.9409 41.2651 31.4613C42.5893 33.9389 44.4048 35.8611 46.7115 37.2281C49.0183 38.5523 51.6454 39.2144 54.5929 39.2144ZM116.251 9.80363V45.1094H108.947V40.9445C107.793 42.3969 106.277 43.5502 104.397 44.4046C102.56 45.2162 100.595 45.622 98.5023 45.622C95.7257 45.622 93.2268 45.0453 91.0055 43.892C88.8269 42.7386 87.0968 41.0299 85.8153 38.7659C84.5765 36.5019 83.9571 33.768 83.9571 30.5642V9.80363H91.1977V29.4749C91.1977 32.636 91.988 35.0709 93.5685 36.7796C95.149 38.4455 97.3062 39.2785 100.04 39.2785C102.774 39.2785 104.931 38.4455 106.512 36.7796C108.135 35.0709 108.947 32.636 108.947 29.4749V9.80363H116.251ZM132.944 14.9297C134.012 13.1356 135.421 11.7473 137.173 10.7648C138.967 9.73956 141.081 9.22695 143.516 9.22695V16.7879H141.658C138.796 16.7879 136.617 17.5141 135.122 18.9665C133.67 20.4189 132.944 22.9392 132.944 26.5274V45.1094H125.639V9.80363H132.944V14.9297Z" fill="black"/>
<path d="M41.9697 95.6893L25.2459 140.222H16.7879L-3.34182e-06 95.6893H7.81725L21.0169 132.725L34.2806 95.6893H41.9697ZM51.5445 100.239C50.2203 100.239 49.1096 99.7901 48.2126 98.8931C47.3155 97.996 46.867 96.8854 46.867 95.5611C46.867 94.2369 47.3155 93.1262 48.2126 92.2292C49.1096 91.3321 50.2203 90.8836 51.5445 90.8836C52.826 90.8836 53.9153 91.3321 54.8124 92.2292C55.7094 93.1262 56.158 94.2369 56.158 95.5611C56.158 96.8854 55.7094 97.996 54.8124 98.8931C53.9153 99.7901 52.826 100.239 51.5445 100.239ZM55.1327 104.916V140.222H47.8281V104.916H55.1327ZM77.288 140.799C74.5114 140.799 72.0124 140.307 69.7911 139.325C67.6125 138.3 65.8825 136.933 64.601 135.224C63.3194 133.473 62.636 131.529 62.5505 129.393H70.1115C70.2396 130.888 70.9445 132.148 72.226 133.174C73.5502 134.156 75.1948 134.647 77.1598 134.647C79.2102 134.647 80.7908 134.263 81.9014 133.494C83.0548 132.682 83.6315 131.657 83.6315 130.418C83.6315 129.094 82.9907 128.112 81.7092 127.471C80.4704 126.83 78.4841 126.125 75.7502 125.356C73.1017 124.63 70.9445 123.925 69.2785 123.242C67.6125 122.558 66.1601 121.512 64.9213 120.102C63.7253 118.693 63.1272 116.834 63.1272 114.528C63.1272 112.648 63.6825 110.939 64.7932 109.402C65.9038 107.821 67.4844 106.582 69.5348 105.685C71.6279 104.788 74.0201 104.34 76.7113 104.34C80.7267 104.34 83.9519 105.365 86.3867 107.415C88.8643 109.423 90.1886 112.178 90.3594 115.681H83.0548C82.9266 114.1 82.2859 112.84 81.1325 111.9C79.9792 110.961 78.42 110.491 76.455 110.491C74.5327 110.491 73.059 110.854 72.0338 111.58C71.0085 112.306 70.4959 113.267 70.4959 114.464C70.4959 115.403 70.8377 116.194 71.5211 116.834C72.2046 117.475 73.0376 117.988 74.0201 118.372C75.0026 118.714 76.455 119.162 78.3773 119.718C80.9403 120.401 83.0334 121.106 84.6567 121.832C86.3227 122.516 87.7537 123.541 88.9498 124.908C90.1459 126.275 90.7653 128.09 90.808 130.354C90.808 132.362 90.2526 134.156 89.142 135.737C88.0314 137.317 86.4508 138.556 84.4004 139.453C82.3927 140.35 80.0219 140.799 77.288 140.799ZM102.167 100.239C100.843 100.239 99.732 99.7901 98.835 98.8931C97.9379 97.996 97.4894 96.8854 97.4894 95.5611C97.4894 94.2369 97.9379 93.1262 98.835 92.2292C99.732 91.3321 100.843 90.8836 102.167 90.8836C103.448 90.8836 104.538 91.3321 105.435 92.2292C106.332 93.1262 106.78 94.2369 106.78 95.5611C106.78 96.8854 106.332 97.996 105.435 98.8931C104.538 99.7901 103.448 100.239 102.167 100.239ZM105.755 104.916V140.222H98.4505V104.916H105.755ZM130.409 140.799C127.077 140.799 124.066 140.051 121.375 138.556C118.683 137.018 116.569 134.882 115.031 132.148C113.493 129.372 112.724 126.168 112.724 122.537C112.724 118.949 113.515 115.766 115.095 112.99C116.676 110.213 118.833 108.077 121.567 106.582C124.301 105.087 127.355 104.34 130.73 104.34C134.104 104.34 137.159 105.087 139.893 106.582C142.626 108.077 144.784 110.213 146.364 112.99C147.945 115.766 148.735 118.949 148.735 122.537C148.735 126.125 147.923 129.308 146.3 132.084C144.677 134.861 142.456 137.018 139.636 138.556C136.86 140.051 133.784 140.799 130.409 140.799ZM130.409 134.455C132.289 134.455 134.04 134.007 135.664 133.11C137.33 132.213 138.675 130.867 139.7 129.073C140.726 127.279 141.238 125.1 141.238 122.537C141.238 119.974 140.747 117.817 139.764 116.065C138.782 114.271 137.479 112.926 135.856 112.029C134.233 111.132 132.481 110.683 130.602 110.683C128.722 110.683 126.971 111.132 125.347 112.029C123.767 112.926 122.507 114.271 121.567 116.065C120.627 117.817 120.157 119.974 120.157 122.537C120.157 126.339 121.118 129.286 123.041 131.38C125.006 133.43 127.462 134.455 130.409 134.455ZM173.519 104.34C176.295 104.34 178.773 104.916 180.952 106.07C183.173 107.223 184.903 108.932 186.142 111.196C187.381 113.46 188 116.194 188 119.397V140.222H180.759V120.487C180.759 117.326 179.969 114.912 178.389 113.246C176.808 111.537 174.651 110.683 171.917 110.683C169.183 110.683 167.004 111.537 165.381 113.246C163.801 114.912 163.01 117.326 163.01 120.487V140.222H155.706V104.916H163.01V108.953C164.207 107.501 165.723 106.369 167.56 105.557C169.439 104.745 171.426 104.34 173.519 104.34Z" fill="url(#paint0_linear_1476_396)"/>
<defs>
<linearGradient id="paint0_linear_1476_396" x1="34.1632" y1="70.139" x2="286.373" y2="70.139" gradientUnits="userSpaceOnUse">
<stop stop-color="#AE8631"/>
<stop offset="1" stop-color="#28705A"/>
</linearGradient>
</defs>
</svg>
