<svg width="630" height="49" viewBox="0 0 630 49" fill="none" xmlns="http://www.w3.org/2000/svg">
<path d="M17.0606 35.8989C13.9528 35.8989 11.0854 35.178 8.45821 33.7363C5.86308 32.2625 3.79658 30.228 2.25873 27.6329C0.752908 25.0057 -9.54827e-07 22.0582 -9.54827e-07 18.7902C-9.54827e-07 15.5223 0.752908 12.5907 2.25873 9.9956C3.79658 7.40046 5.86308 5.38203 8.45821 3.94029C11.0854 2.46651 13.9528 1.72962 17.0606 1.72962C20.2004 1.72962 23.0678 2.46651 25.663 3.94029C28.2902 5.38203 30.3566 7.40046 31.8625 9.9956C33.3683 12.5907 34.1212 15.5223 34.1212 18.7902C34.1212 22.0582 33.3683 25.0057 31.8625 27.6329C30.3566 30.228 28.2902 32.2625 25.663 33.7363C23.0678 35.178 20.2004 35.8989 17.0606 35.8989ZM17.0606 31.1411C19.2713 31.1411 21.2416 30.6445 22.9717 29.6513C24.7018 28.6261 26.0474 27.1843 27.0086 25.3261C28.0018 23.4358 28.4984 21.2572 28.4984 18.7902C28.4984 16.3232 28.0018 14.1606 27.0086 12.3024C26.0474 10.4441 24.7018 9.01842 22.9717 8.02522C21.2416 7.03202 19.2713 6.53542 17.0606 6.53542C14.8499 6.53542 12.8795 7.03202 11.1495 8.02522C9.41937 9.01842 8.05773 10.4441 7.06453 12.3024C6.10337 14.1606 5.62279 16.3232 5.62279 18.7902C5.62279 21.2572 6.10337 23.4358 7.06453 25.3261C8.05773 27.1843 9.41937 28.6261 11.1495 29.6513C12.8795 30.6445 14.8499 31.1411 17.0606 31.1411ZM63.243 9.0825V35.5625H57.7644V32.4387C56.8993 33.528 55.7619 34.393 54.3522 35.0338C52.9746 35.6426 51.5008 35.9469 49.9309 35.9469C47.8484 35.9469 45.9741 35.5144 44.3081 34.6494C42.6741 33.7843 41.3766 32.5028 40.4154 30.8047C39.4863 29.1067 39.0217 27.0562 39.0217 24.6533V9.0825H44.4523V23.8363C44.4523 26.2072 45.045 28.0334 46.2304 29.3149C47.4159 30.5644 49.0338 31.1892 51.0843 31.1892C53.1348 31.1892 54.7527 30.5644 55.9382 29.3149C57.1556 28.0334 57.7644 26.2072 57.7644 23.8363V9.0825H63.243ZM75.6999 12.9271C76.5008 11.5815 77.5581 10.5403 78.8717 9.80336C80.2173 9.03444 81.8032 8.64997 83.6295 8.64997V14.3208H82.2358C80.0892 14.3208 78.4552 14.8655 77.3339 15.9548C76.2445 17.0441 75.6999 18.9344 75.6999 21.6256V35.5625H70.2213V9.0825H75.6999V12.9271ZM106.127 31.1411H117.421V35.5625H100.649V2.16214H106.127V31.1411ZM119.926 22.2023C119.926 19.5431 120.471 17.1883 121.56 15.1378C122.681 13.0873 124.187 11.5014 126.077 10.3801C128 9.22667 130.114 8.64997 132.421 8.64997C134.504 8.64997 136.314 9.06648 137.852 9.89948C139.422 10.7004 140.671 11.7097 141.6 12.9271V9.0825H147.127V35.5625H141.6V31.6217C140.671 32.8712 139.406 33.9125 137.804 34.7455C136.202 35.5785 134.375 35.995 132.325 35.995C130.05 35.995 127.968 35.4183 126.077 34.2649C124.187 33.0795 122.681 31.4455 121.56 29.363C120.471 27.2484 119.926 24.8615 119.926 22.2023ZM141.6 22.2984C141.6 20.4722 141.216 18.8863 140.447 17.5407C139.71 16.1951 138.733 15.1698 137.515 14.465C136.298 13.7601 134.984 13.4077 133.574 13.4077C132.165 13.4077 130.851 13.7601 129.634 14.465C128.416 15.1378 127.423 16.147 126.654 17.4926C125.917 18.8062 125.549 20.3761 125.549 22.2023C125.549 24.0285 125.917 25.6305 126.654 27.0081C127.423 28.3858 128.416 29.4431 129.634 30.18C130.883 30.8848 132.197 31.2372 133.574 31.2372C134.984 31.2372 136.298 30.8848 137.515 30.18C138.733 29.4751 139.71 28.4499 140.447 27.1042C141.216 25.7266 141.6 24.1247 141.6 22.2984ZM160.464 13.5519V28.2096C160.464 29.2028 160.688 29.9237 161.137 30.3722C161.618 30.7887 162.419 30.9969 163.54 30.9969H166.904V35.5625H162.579C160.112 35.5625 158.221 34.9858 156.908 33.8324C155.594 32.679 154.938 30.8047 154.938 28.2096V13.5519H151.814V9.0825H154.938V2.49855H160.464V9.0825H166.904V13.5519H160.464ZM195.972 21.6737C195.972 22.6669 195.908 23.564 195.78 24.3649H175.548C175.708 26.4795 176.493 28.1775 177.903 29.4591C179.312 30.7406 181.042 31.3814 183.093 31.3814C186.04 31.3814 188.123 30.1479 189.34 27.6809H195.252C194.451 30.1159 192.993 32.1183 190.878 33.6882C188.796 35.2261 186.201 35.995 183.093 35.995C180.562 35.995 178.287 35.4343 176.269 34.313C174.282 33.1596 172.712 31.5576 171.559 29.5072C170.438 27.4246 169.877 25.0217 169.877 22.2984C169.877 19.5752 170.422 17.1883 171.511 15.1378C172.632 13.0553 174.186 11.4534 176.173 10.332C178.191 9.21065 180.498 8.64997 183.093 8.64997C185.592 8.64997 187.819 9.19463 189.773 10.2839C191.727 11.3733 193.249 12.9111 194.338 14.8975C195.428 16.8519 195.972 19.1106 195.972 21.6737ZM190.254 19.9436C190.221 17.9252 189.501 16.3072 188.091 15.0897C186.681 13.8723 184.935 13.2635 182.853 13.2635C180.962 13.2635 179.344 13.8723 177.999 15.0897C176.653 16.2752 175.852 17.8931 175.596 19.9436H190.254ZM210.725 35.995C208.643 35.995 206.768 35.6265 205.102 34.8896C203.468 34.1207 202.171 33.0955 201.21 31.8139C200.249 30.5003 199.736 29.0426 199.672 27.4407H205.343C205.439 28.562 205.968 29.5072 206.929 30.2761C207.922 31.013 209.155 31.3814 210.629 31.3814C212.167 31.3814 213.352 31.0931 214.185 30.5164C215.05 29.9076 215.483 29.1387 215.483 28.2096C215.483 27.2164 215.002 26.4795 214.041 25.9989C213.112 25.5183 211.622 24.9897 209.572 24.413C207.585 23.8683 205.968 23.3397 204.718 22.8271C203.468 22.3145 202.379 21.5295 201.45 20.4722C200.553 19.415 200.104 18.0213 200.104 16.2912C200.104 14.8815 200.521 13.5999 201.354 12.4466C202.187 11.2611 203.372 10.332 204.91 9.65919C206.48 8.98638 208.274 8.64997 210.293 8.64997C213.304 8.64997 215.723 9.4189 217.549 10.9568C219.408 12.4626 220.401 14.5291 220.529 17.1562H215.05C214.954 15.9708 214.474 15.0257 213.609 14.3208C212.744 13.616 211.574 13.2635 210.1 13.2635C208.659 13.2635 207.553 13.5359 206.784 14.0805C206.016 14.6252 205.631 15.3461 205.631 16.2431C205.631 16.948 205.887 17.5407 206.4 18.0213C206.913 18.5019 207.537 18.8863 208.274 19.1747C209.011 19.431 210.1 19.7674 211.542 20.1839C213.465 20.6965 215.034 21.2252 216.252 21.7698C217.501 22.2824 218.575 23.0514 219.472 24.0766C220.369 25.1018 220.833 26.4635 220.865 28.1615C220.865 29.6673 220.449 31.013 219.616 32.1984C218.783 33.3838 217.598 34.313 216.06 34.9858C214.554 35.6586 212.776 35.995 210.725 35.995ZM232.927 13.5519V28.2096C232.927 29.2028 233.151 29.9237 233.599 30.3722C234.08 30.7887 234.881 30.9969 236.002 30.9969H239.366V35.5625H235.041C232.574 35.5625 230.684 34.9858 229.37 33.8324C228.057 32.679 227.4 30.8047 227.4 28.2096V13.5519H224.276V9.0825H227.4V2.49855H232.927V9.0825H239.366V13.5519H232.927Z" fill="black"/>
<path d="M274.277 18.4057C276.071 18.7261 277.593 19.6713 278.842 21.2412C280.092 22.8111 280.716 24.5892 280.716 26.5756C280.716 28.2737 280.268 29.8115 279.371 31.1892C278.506 32.5348 277.24 33.6081 275.574 34.4091C273.908 35.178 271.97 35.5625 269.759 35.5625H256.399V2.16214H269.135C271.409 2.16214 273.364 2.5466 274.998 3.31553C276.632 4.08446 277.865 5.12572 278.698 6.4393C279.531 7.72085 279.948 9.16259 279.948 10.7645C279.948 12.6868 279.435 14.2888 278.41 15.5703C277.384 16.8519 276.007 17.797 274.277 18.4057ZM261.878 16.1951H268.654C270.448 16.1951 271.842 15.7946 272.835 14.9936C273.86 14.1606 274.373 12.9752 274.373 11.4373C274.373 9.93152 273.86 8.76211 272.835 7.9291C271.842 7.06406 270.448 6.63153 268.654 6.63153H261.878V16.1951ZM269.279 31.0931C271.137 31.0931 272.595 30.6445 273.652 29.7474C274.709 28.8504 275.238 27.6008 275.238 25.9989C275.238 24.3649 274.677 23.0674 273.556 22.1062C272.434 21.1451 270.945 20.6645 269.086 20.6645H261.878V31.0931H269.279ZM291.898 -0.000469775V35.5625H286.42V-0.000469775H291.898ZM310.327 35.995C307.828 35.995 305.569 35.4343 303.551 34.313C301.532 33.1596 299.946 31.5576 298.793 29.5072C297.64 27.4246 297.063 25.0217 297.063 22.2984C297.063 19.6072 297.656 17.2203 298.841 15.1378C300.026 13.0553 301.644 11.4534 303.695 10.332C305.745 9.21065 308.036 8.64997 310.567 8.64997C313.098 8.64997 315.389 9.21065 317.439 10.332C319.49 11.4534 321.108 13.0553 322.293 15.1378C323.479 17.2203 324.071 19.6072 324.071 22.2984C324.071 24.9897 323.463 27.3766 322.245 29.4591C321.028 31.5416 319.362 33.1596 317.247 34.313C315.165 35.4343 312.858 35.995 310.327 35.995ZM310.327 31.2372C311.737 31.2372 313.05 30.9008 314.268 30.228C315.517 29.5552 316.526 28.546 317.295 27.2004C318.064 25.8547 318.449 24.2208 318.449 22.2984C318.449 20.3761 318.08 18.7582 317.343 17.4446C316.606 16.099 315.629 15.0897 314.412 14.4169C313.194 13.7441 311.881 13.4077 310.471 13.4077C309.061 13.4077 307.748 13.7441 306.53 14.4169C305.345 15.0897 304.4 16.099 303.695 17.4446C302.99 18.7582 302.638 20.3761 302.638 22.2984C302.638 25.1499 303.358 27.3606 304.8 28.9305C306.274 30.4683 308.116 31.2372 310.327 31.2372ZM339.906 8.64997C341.956 8.64997 343.767 9.06648 345.336 9.89948C346.938 10.7004 348.188 11.7097 349.085 12.9271V9.0825H354.612V35.995C354.612 38.4299 354.099 40.5925 353.074 42.4828C352.049 44.4051 350.559 45.911 348.604 47.0003C346.682 48.0896 344.375 48.6342 341.684 48.6342C338.096 48.6342 335.116 47.7852 332.745 46.0872C330.374 44.4212 329.029 42.1464 328.708 39.2629H334.139C334.555 40.6406 335.437 41.7459 336.782 42.5789C338.16 43.444 339.794 43.8765 341.684 43.8765C343.895 43.8765 345.673 43.2037 347.019 41.8581C348.396 40.5124 349.085 38.5581 349.085 35.995V31.5736C348.156 32.8232 346.89 33.8804 345.288 34.7455C343.719 35.5785 341.924 35.995 339.906 35.995C337.599 35.995 335.485 35.4183 333.562 34.2649C331.672 33.0795 330.166 31.4455 329.045 29.363C327.956 27.2484 327.411 24.8615 327.411 22.2023C327.411 19.5431 327.956 17.1883 329.045 15.1378C330.166 13.0873 331.672 11.5014 333.562 10.3801C335.485 9.22667 337.599 8.64997 339.906 8.64997ZM349.085 22.2984C349.085 20.4722 348.701 18.8863 347.932 17.5407C347.195 16.1951 346.218 15.1698 345 14.465C343.783 13.7601 342.469 13.4077 341.059 13.4077C339.65 13.4077 338.336 13.7601 337.119 14.465C335.901 15.1378 334.908 16.147 334.139 17.4926C333.402 18.8062 333.034 20.3761 333.034 22.2023C333.034 24.0285 333.402 25.6305 334.139 27.0081C334.908 28.3858 335.901 29.4431 337.119 30.18C338.368 30.8848 339.682 31.2372 341.059 31.2372C342.469 31.2372 343.783 30.8848 345 30.18C346.218 29.4751 347.195 28.4499 347.932 27.1042C348.701 25.7266 349.085 24.1247 349.085 22.2984ZM371.169 35.995C369.086 35.995 367.212 35.6265 365.546 34.8896C363.912 34.1207 362.615 33.0955 361.653 31.8139C360.692 30.5003 360.18 29.0426 360.116 27.4407H365.786C365.883 28.562 366.411 29.5072 367.372 30.2761C368.366 31.013 369.599 31.3814 371.073 31.3814C372.611 31.3814 373.796 31.0931 374.629 30.5164C375.494 29.9076 375.927 29.1387 375.927 28.2096C375.927 27.2164 375.446 26.4795 374.485 25.9989C373.556 25.5183 372.066 24.9897 370.016 24.413C368.029 23.8683 366.411 23.3397 365.162 22.8271C363.912 22.3145 362.823 21.5295 361.894 20.4722C360.997 19.415 360.548 18.0213 360.548 16.2912C360.548 14.8815 360.965 13.5999 361.798 12.4466C362.631 11.2611 363.816 10.332 365.354 9.65919C366.924 8.98638 368.718 8.64997 370.736 8.64997C373.748 8.64997 376.167 9.4189 377.993 10.9568C379.851 12.4626 380.845 14.5291 380.973 17.1562H375.494C375.398 15.9708 374.917 15.0257 374.052 14.3208C373.187 13.616 372.018 13.2635 370.544 13.2635C369.102 13.2635 367.997 13.5359 367.228 14.0805C366.459 14.6252 366.075 15.3461 366.075 16.2431C366.075 16.948 366.331 17.5407 366.844 18.0213C367.356 18.5019 367.981 18.8863 368.718 19.1747C369.455 19.431 370.544 19.7674 371.986 20.1839C373.908 20.6965 375.478 21.2252 376.696 21.7698C377.945 22.2824 379.018 23.0514 379.915 24.0766C380.813 25.1018 381.277 26.4635 381.309 28.1615C381.309 29.6673 380.893 31.013 380.06 32.1984C379.227 33.3838 378.041 34.313 376.503 34.9858C374.998 35.6586 373.219 35.995 371.169 35.995ZM397.386 22.2023C397.386 19.5431 397.931 17.1883 399.02 15.1378C400.141 13.0873 401.647 11.5014 403.537 10.3801C405.46 9.22667 407.574 8.64997 409.881 8.64997C411.964 8.64997 413.774 9.06648 415.312 9.89948C416.881 10.7004 418.131 11.7097 419.06 12.9271V9.0825H424.587V35.5625H419.06V31.6217C418.131 32.8712 416.865 33.9125 415.264 34.7455C413.662 35.5785 411.835 35.995 409.785 35.995C407.51 35.995 405.428 35.4183 403.537 34.2649C401.647 33.0795 400.141 31.4455 399.02 29.363C397.931 27.2484 397.386 24.8615 397.386 22.2023ZM419.06 22.2984C419.06 20.4722 418.676 18.8863 417.907 17.5407C417.17 16.1951 416.193 15.1698 414.975 14.465C413.758 13.7601 412.444 13.4077 411.034 13.4077C409.625 13.4077 408.311 13.7601 407.094 14.465C405.876 15.1378 404.883 16.147 404.114 17.4926C403.377 18.8062 403.009 20.3761 403.009 22.2023C403.009 24.0285 403.377 25.6305 404.114 27.0081C404.883 28.3858 405.876 29.4431 407.094 30.18C408.343 30.8848 409.657 31.2372 411.034 31.2372C412.444 31.2372 413.758 30.8848 414.975 30.18C416.193 29.4751 417.17 28.4499 417.907 27.1042C418.676 25.7266 419.06 24.1247 419.06 22.2984ZM444.893 8.64997C446.975 8.64997 448.833 9.08249 450.467 9.94754C452.133 10.8126 453.431 12.0941 454.36 13.7922C455.289 15.4902 455.754 17.5407 455.754 19.9436V35.5625H450.323V20.7606C450.323 18.3897 449.73 16.5795 448.545 15.33C447.36 14.0485 445.742 13.4077 443.691 13.4077C441.641 13.4077 440.007 14.0485 438.789 15.33C437.604 16.5795 437.011 18.3897 437.011 20.7606V35.5625H431.532V9.0825H437.011V12.1101C437.908 11.0208 439.045 10.1718 440.423 9.56307C441.833 8.95434 443.323 8.64997 444.893 8.64997ZM460.665 22.2023C460.665 19.5431 461.21 17.1883 462.299 15.1378C463.421 13.0873 464.927 11.5014 466.817 10.3801C468.739 9.22667 470.87 8.64997 473.209 8.64997C474.939 8.64997 476.637 9.03444 478.303 9.80336C480.001 10.5403 481.346 11.5335 482.34 12.783V-0.000469775H487.866V35.5625H482.34V31.5736C481.443 32.8552 480.193 33.9125 478.591 34.7455C477.021 35.5785 475.211 35.995 473.161 35.995C470.854 35.995 468.739 35.4183 466.817 34.2649C464.927 33.0795 463.421 31.4455 462.299 29.363C461.21 27.2484 460.665 24.8615 460.665 22.2023ZM482.34 22.2984C482.34 20.4722 481.955 18.8863 481.186 17.5407C480.449 16.1951 479.472 15.1698 478.255 14.465C477.037 13.7601 475.724 13.4077 474.314 13.4077C472.904 13.4077 471.591 13.7601 470.373 14.465C469.156 15.1378 468.163 16.147 467.394 17.4926C466.657 18.8062 466.288 20.3761 466.288 22.2023C466.288 24.0285 466.657 25.6305 467.394 27.0081C468.163 28.3858 469.156 29.4431 470.373 30.18C471.623 30.8848 472.936 31.2372 474.314 31.2372C475.724 31.2372 477.037 30.8848 478.255 30.18C479.472 29.4751 480.449 28.4499 481.186 27.1042C481.955 25.7266 482.34 24.1247 482.34 22.2984ZM534.487 35.5625H529.008L512.524 10.6203V35.5625H507.045V2.11408H512.524L529.008 27.0081V2.11408H534.487V35.5625ZM565.7 21.6737C565.7 22.6669 565.636 23.564 565.508 24.3649H545.275C545.436 26.4795 546.22 28.1775 547.63 29.4591C549.04 30.7406 550.77 31.3814 552.82 31.3814C555.768 31.3814 557.851 30.1479 559.068 27.6809H564.979C564.178 30.1159 562.72 32.1183 560.606 33.6882C558.523 35.2261 555.928 35.995 552.82 35.995C550.289 35.995 548.015 35.4343 545.996 34.313C544.01 33.1596 542.44 31.5576 541.287 29.5072C540.165 27.4246 539.605 25.0217 539.605 22.2984C539.605 19.5752 540.149 17.1883 541.238 15.1378C542.36 13.0553 543.914 11.4534 545.9 10.332C547.919 9.21065 550.225 8.64997 552.82 8.64997C555.319 8.64997 557.546 9.19463 559.501 10.2839C561.455 11.3733 562.977 12.9111 564.066 14.8975C565.155 16.8519 565.7 19.1106 565.7 21.6737ZM559.981 19.9436C559.949 17.9252 559.228 16.3072 557.818 15.0897C556.409 13.8723 554.663 13.2635 552.58 13.2635C550.69 13.2635 549.072 13.8723 547.726 15.0897C546.381 16.2752 545.58 17.8931 545.323 19.9436H559.981ZM606.404 9.0825L598.186 35.5625H592.419L587.085 16.0028L581.75 35.5625H575.983L567.717 9.0825H573.292L578.819 30.3722L584.442 9.0825H590.161L595.543 30.2761L601.022 9.0825H606.404ZM619.86 35.995C617.777 35.995 615.903 35.6265 614.237 34.8896C612.603 34.1207 611.305 33.0955 610.344 31.8139C609.383 30.5003 608.87 29.0426 608.806 27.4407H614.477C614.573 28.562 615.102 29.5072 616.063 30.2761C617.056 31.013 618.29 31.3814 619.764 31.3814C621.301 31.3814 622.487 31.0931 623.32 30.5164C624.185 29.9076 624.618 29.1387 624.618 28.2096C624.618 27.2164 624.137 26.4795 623.176 25.9989C622.247 25.5183 620.757 24.9897 618.706 24.413C616.72 23.8683 615.102 23.3397 613.853 22.8271C612.603 22.3145 611.514 21.5295 610.585 20.4722C609.687 19.415 609.239 18.0213 609.239 16.2912C609.239 14.8815 609.655 13.5999 610.488 12.4466C611.321 11.2611 612.507 10.332 614.045 9.65919C615.615 8.98638 617.409 8.64997 619.427 8.64997C622.439 8.64997 624.858 9.4189 626.684 10.9568C628.542 12.4626 629.535 14.5291 629.664 17.1562H624.185C624.089 15.9708 623.608 15.0257 622.743 14.3208C621.878 13.616 620.709 13.2635 619.235 13.2635C617.793 13.2635 616.688 13.5359 615.919 14.0805C615.15 14.6252 614.766 15.3461 614.766 16.2431C614.766 16.948 615.022 17.5407 615.535 18.0213C616.047 18.5019 616.672 18.8863 617.409 19.1747C618.146 19.431 619.235 19.7674 620.677 20.1839C622.599 20.6965 624.169 21.2252 625.386 21.7698C626.636 22.2824 627.709 23.0514 628.606 24.0766C629.503 25.1018 629.968 26.4635 630 28.1615C630 29.6673 629.583 31.013 628.75 32.1984C627.917 33.3838 626.732 34.313 625.194 34.9858C623.688 35.6586 621.91 35.995 619.86 35.995Z" fill="url(#paint0_linear_1573_11288)"/>
<defs>
<linearGradient id="paint0_linear_1573_11288" x1="422.307" y1="18.5419" x2="632.988" y2="18.5419" gradientUnits="userSpaceOnUse">
<stop stop-color="#AE8631"/>
<stop offset="1" stop-color="#28705A"/>
</linearGradient>
</defs>
</svg>
