<svg width="236" height="50" viewBox="0 0 236 50" fill="none" xmlns="http://www.w3.org/2000/svg">
<rect x="0.5" y="0.5" width="49" height="49" rx="24.5" stroke="#222020" stroke-opacity="0.33"/>
<path fill-rule="evenodd" clip-rule="evenodd" d="M31 17H19C17.897 17 17 17.897 17 19V31C17 32.103 17.897 33 19 33H25V27.5H23V25H25V23C25 22.2044 25.3161 21.4413 25.8787 20.8787C26.4413 20.3161 27.2044 20 28 20H30V22.5H29C28.448 22.5 28 22.448 28 23V25H30.5L29.5 27.5H28V33H31C32.103 33 33 32.103 33 31V19C33 17.897 32.103 17 31 17Z" fill="black"/>
<rect x="62.5" y="0.5" width="49" height="49" rx="24.5" stroke="#222020" stroke-opacity="0.33"/>
<path d="M87 18.4458C89.1205 18.4458 89.4096 18.4458 90.2771 18.4458C91.0482 18.4458 91.4337 18.6386 91.7229 18.7349C92.1084 18.9277 92.3976 19.0241 92.6867 19.3133C92.9759 19.6024 93.1687 19.8916 93.2651 20.2771C93.3614 20.5663 93.4578 20.9518 93.5542 21.7229C93.5542 22.5904 93.5542 22.7831 93.5542 25C93.5542 27.2169 93.5542 27.4096 93.5542 28.2771C93.5542 29.0482 93.3614 29.4337 93.2651 29.7229C93.0723 30.1084 92.9759 30.3976 92.6867 30.6867C92.3976 30.9759 92.1084 31.1687 91.7229 31.2651C91.4337 31.3614 91.0482 31.4578 90.2771 31.5542C89.4096 31.5542 89.2169 31.5542 87 31.5542C84.7831 31.5542 84.5904 31.5542 83.7229 31.5542C82.9518 31.5542 82.5663 31.3614 82.2771 31.2651C81.8916 31.0723 81.6024 30.9759 81.3133 30.6867C81.0241 30.3976 80.8313 30.1084 80.7349 29.7229C80.6386 29.4337 80.5422 29.0482 80.4458 28.2771C80.4458 27.4096 80.4458 27.2169 80.4458 25C80.4458 22.7831 80.4458 22.5904 80.4458 21.7229C80.4458 20.9518 80.6386 20.5663 80.7349 20.2771C80.9277 19.8916 81.0241 19.6024 81.3133 19.3133C81.6024 19.0241 81.8916 18.8313 82.2771 18.7349C82.5663 18.6386 82.9518 18.5422 83.7229 18.4458C84.5904 18.4458 84.8795 18.4458 87 18.4458ZM87 17C84.7831 17 84.5904 17 83.7229 17C82.8554 17 82.2771 17.1928 81.7952 17.3855C81.3133 17.5783 80.8313 17.8675 80.3494 18.3494C79.8675 18.8313 79.6747 19.2169 79.3855 19.7952C79.1928 20.2771 79.0964 20.8554 79 21.7229C79 22.5904 79 22.8795 79 25C79 27.2169 79 27.4096 79 28.2771C79 29.1446 79.1928 29.7229 79.3855 30.2048C79.5783 30.6867 79.8675 31.1687 80.3494 31.6506C80.8313 32.1325 81.2169 32.3253 81.7952 32.6145C82.2771 32.8072 82.8554 32.9036 83.7229 33C84.5904 33 84.8795 33 87 33C89.1205 33 89.4096 33 90.2771 33C91.1446 33 91.7229 32.8072 92.2048 32.6145C92.6867 32.4217 93.1687 32.1325 93.6506 31.6506C94.1325 31.1687 94.3253 30.7831 94.6145 30.2048C94.8072 29.7229 94.9036 29.1446 95 28.2771C95 27.4096 95 27.1205 95 25C95 22.8795 95 22.5904 95 21.7229C95 20.8554 94.8072 20.2771 94.6145 19.7952C94.4217 19.3133 94.1325 18.8313 93.6506 18.3494C93.1687 17.8675 92.7831 17.6747 92.2048 17.3855C91.7229 17.1928 91.1446 17.0964 90.2771 17C89.4096 17 89.2169 17 87 17Z" fill="black"/>
<path d="M87 20.8554C84.6867 20.8554 82.8554 22.6867 82.8554 25C82.8554 27.3133 84.6867 29.1446 87 29.1446C89.3133 29.1446 91.1446 27.3133 91.1446 25C91.1446 22.6867 89.3133 20.8554 87 20.8554ZM87 27.6988C85.5542 27.6988 84.3012 26.5422 84.3012 25C84.3012 23.5542 85.4578 22.3012 87 22.3012C88.4458 22.3012 89.6988 23.4578 89.6988 25C89.6988 26.4458 88.4458 27.6988 87 27.6988Z" fill="black"/>
<path d="M91.241 21.7229C91.7733 21.7229 92.2048 21.2914 92.2048 20.759C92.2048 20.2267 91.7733 19.7952 91.241 19.7952C90.7086 19.7952 90.2771 20.2267 90.2771 20.759C90.2771 21.2914 90.7086 21.7229 91.241 21.7229Z" fill="black"/>
<rect x="124.5" y="0.5" width="49" height="49" rx="24.5" stroke="#222020" stroke-opacity="0.33"/>
<path d="M159.45 19.4286C159.175 18.4286 158.488 17.7143 157.525 17.4286C155.875 17 148.862 17 148.862 17C148.862 17 141.988 17 140.2 17.4286C139.238 17.7143 138.55 18.4286 138.275 19.4286C138 21.2857 138 25 138 25C138 25 138 28.7143 138.413 30.5714C138.688 31.5714 139.375 32.2857 140.337 32.5714C141.987 33 149 33 149 33C149 33 155.875 33 157.662 32.5714C158.625 32.2857 159.313 31.5714 159.588 30.5714C160 28.7143 160 25 160 25C160 25 160 21.2857 159.45 19.4286ZM146.8 28.4286V21.5714L152.575 25L146.8 28.4286Z" fill="black"/>
<rect x="186.5" y="0.5" width="49" height="49" rx="24.5" stroke="#222020" stroke-opacity="0.33"/>
<path d="M220.5 18.8604C219.845 19.3078 219.076 19.5454 218.291 19.5432C219.131 19.0334 219.76 18.2235 220.058 17.2674C219.362 17.8738 218.484 18.2153 217.573 18.2346C216.972 17.6005 216.187 17.1843 215.337 17.0484C214.487 16.9126 213.617 17.0644 212.857 17.4811C212.098 17.8978 211.49 18.557 211.126 19.3596C210.761 20.1622 210.659 21.0651 210.834 21.9327C209.287 21.8485 207.775 21.4302 206.395 20.7049C205.016 19.9796 203.799 18.9635 202.826 17.7226C202.349 18.6107 202.21 19.6494 202.434 20.6374C202.659 21.6254 203.231 22.4924 204.041 23.0705C203.43 23.0794 202.825 22.9431 202.273 22.6723C202.288 23.5887 202.601 24.4735 203.162 25.1852C203.722 25.8969 204.499 26.3943 205.366 26.5979C204.789 26.7532 204.185 26.7727 203.599 26.6548C203.852 27.4666 204.344 28.1771 205.007 28.687C205.671 29.1969 206.472 29.4809 207.299 29.4994C205.552 30.5915 203.544 31.1627 201.5 31.1493C203.212 32.3005 205.2 32.9398 207.244 32.996C209.288 33.0521 211.307 32.5229 213.076 31.4673C214.845 30.4117 216.295 28.871 217.264 27.0169C218.234 25.1628 218.685 23.0679 218.567 20.9655C219.296 20.3515 219.945 19.6441 220.5 18.8604Z" fill="black"/>
</svg>
