<svg width="249" height="48" viewBox="0 0 249 48" fill="none" xmlns="http://www.w3.org/2000/svg">
<path d="M23.3033 2.16217V6.63063H14.4144V35.5555H8.93696V6.63063H5.18481e-05V2.16217H23.3033ZM34.0778 12.9249C34.8786 11.5796 35.9356 10.5385 37.2489 9.80179C38.5943 9.03302 40.1799 8.64864 42.0057 8.64864V14.3183H40.6123C38.4661 14.3183 36.8325 14.8628 35.7114 15.9519C34.6223 17.041 34.0778 18.9309 34.0778 21.6216V35.5555H28.6003V9.08107H34.0778V12.9249ZM70.7662 9.08107V35.5555H65.2888V32.4324C64.4239 33.5214 63.2868 34.3863 61.8774 35.0269C60.5 35.6355 59.0265 35.9398 57.457 35.9398C55.3749 35.9398 53.501 35.5074 51.8354 34.6426C50.2017 33.7777 48.9044 32.4964 47.9435 30.7987C47.0145 29.101 46.5501 27.051 46.5501 24.6486V9.08107H51.9795V23.8318C51.9795 26.2021 52.5721 28.028 53.7573 29.3092C54.9424 30.5585 56.5601 31.1831 58.6101 31.1831C60.6602 31.1831 62.2778 30.5585 63.4629 29.3092C64.6802 28.028 65.2888 26.2021 65.2888 23.8318V9.08107H70.7662ZM87.3526 35.9879C85.2706 35.9879 83.3967 35.6195 81.731 34.8828C80.0974 34.114 78.8001 33.089 77.8392 31.8077C76.8782 30.4944 76.3657 29.037 76.3016 27.4354H81.9713C82.0674 28.5565 82.5959 29.5014 83.5569 30.2702C84.5498 31.0069 85.7831 31.3753 87.2565 31.3753C88.7941 31.3753 89.9793 31.087 90.8121 30.5104C91.6769 29.9018 92.1094 29.1331 92.1094 28.2041C92.1094 27.2111 91.6289 26.4744 90.6679 25.9939C89.739 25.5135 88.2495 24.9849 86.1995 24.4084C84.2135 23.8638 82.5959 23.3353 81.3466 22.8228C80.0974 22.3103 79.0083 21.5255 78.0794 20.4684C77.1825 19.4114 76.734 18.018 76.734 16.2883C76.734 14.8789 77.1505 13.5976 77.9833 12.4444C78.8161 11.2592 80.0013 10.3303 81.5388 9.65765C83.1084 8.98498 84.9022 8.64864 86.9202 8.64864C89.9312 8.64864 92.3496 9.41741 94.1754 10.9549C96.0333 12.4604 97.0263 14.5265 97.1544 17.1531H91.6769C91.5809 15.9679 91.1004 15.023 90.2355 14.3183C89.3706 13.6136 88.2015 13.2612 86.728 13.2612C85.2866 13.2612 84.1815 13.5335 83.4127 14.0781C82.6439 14.6226 82.2596 15.3433 82.2596 16.2402C82.2596 16.9449 82.5158 17.5375 83.0283 18.018C83.5408 18.4985 84.1655 18.8828 84.9022 19.1711C85.6389 19.4274 86.728 19.7637 88.1694 20.1801C90.0914 20.6926 91.6609 21.2212 92.8781 21.7657C94.1274 22.2782 95.2005 23.047 96.0974 24.072C96.9942 25.097 97.4587 26.4584 97.4907 28.1561C97.4907 29.6616 97.0743 31.0069 96.2415 32.1921C95.4087 33.3773 94.2235 34.3062 92.686 34.9789C91.1805 35.6516 89.4027 35.9879 87.3526 35.9879ZM109.549 13.5495V28.2041C109.549 29.1971 109.774 29.9178 110.222 30.3663C110.703 30.7827 111.503 30.9909 112.624 30.9909H115.988V35.5555H111.663C109.197 35.5555 107.307 34.9789 105.994 33.8257C104.681 32.6726 104.024 30.7987 104.024 28.2041V13.5495H100.901V9.08107H104.024V2.49851H109.549V9.08107H115.988V13.5495H109.549ZM145.05 21.6696C145.05 22.6626 144.986 23.5595 144.858 24.3603H124.63C124.79 26.4744 125.575 28.1721 126.984 29.4534C128.394 30.7347 130.123 31.3753 132.173 31.3753C135.12 31.3753 137.202 30.1421 138.42 27.6756H144.329C143.529 30.11 142.071 32.112 139.957 33.6816C137.875 35.2191 135.28 35.9879 132.173 35.9879C129.643 35.9879 127.369 35.4273 125.351 34.3062C123.365 33.1531 121.795 31.5515 120.642 29.5014C119.521 27.4194 118.96 25.017 118.96 22.2942C118.96 19.5715 119.505 17.1852 120.594 15.1351C121.715 13.053 123.268 11.4514 125.254 10.3303C127.272 9.2092 129.579 8.64864 132.173 8.64864C134.672 8.64864 136.898 9.19318 138.852 10.2823C140.806 11.3714 142.327 12.9089 143.417 14.8949C144.506 16.8488 145.05 19.1071 145.05 21.6696ZM139.332 19.9399C139.3 17.9219 138.58 16.3043 137.17 15.0871C135.761 13.8698 134.015 13.2612 131.933 13.2612C130.043 13.2612 128.426 13.8698 127.08 15.0871C125.735 16.2722 124.934 17.8899 124.678 19.9399H139.332ZM148.364 22.1981C148.364 19.5395 148.909 17.1852 149.998 15.1351C151.119 13.0851 152.625 11.4995 154.515 10.3784C156.437 9.22522 158.567 8.64864 160.905 8.64864C162.635 8.64864 164.332 9.03302 165.998 9.80179C167.696 10.5385 169.041 11.5315 170.034 12.7808V1.90925e-05H175.56V35.5555H170.034V31.5675C169.137 32.8488 167.888 33.9058 166.286 34.7387C164.717 35.5715 162.907 35.9879 160.857 35.9879C158.551 35.9879 156.437 35.4113 154.515 34.2582C152.625 33.073 151.119 31.4394 149.998 29.3573C148.909 27.2432 148.364 24.8568 148.364 22.1981ZM170.034 22.2942C170.034 20.4684 169.65 18.8828 168.881 17.5375C168.144 16.1922 167.167 15.1671 165.95 14.4624C164.733 13.7577 163.419 13.4054 162.01 13.4054C160.601 13.4054 159.287 13.7577 158.07 14.4624C156.853 15.1351 155.86 16.1441 155.091 17.4895C154.354 18.8028 153.986 20.3723 153.986 22.1981C153.986 24.024 154.354 25.6256 155.091 27.0029C155.86 28.3803 156.853 29.4374 158.07 30.1741C159.319 30.8788 160.633 31.2312 162.01 31.2312C163.419 31.2312 164.733 30.8788 165.95 30.1741C167.167 29.4694 168.144 28.4444 168.881 27.099C169.65 25.7217 170.034 24.1201 170.034 22.2942Z" fill="url(#paint0_linear_255_1007)"/>
<path d="M212.609 18.4024C214.402 18.7227 215.924 19.6676 217.173 21.2372C218.422 22.8068 219.047 24.5845 219.047 26.5705C219.047 28.2682 218.598 29.8057 217.702 31.1831C216.837 32.5284 215.571 33.6015 213.906 34.4023C212.24 35.1711 210.302 35.5555 208.092 35.5555H194.735V2.16217H207.467C209.742 2.16217 211.696 2.54656 213.329 3.31532C214.963 4.08409 216.196 5.12513 217.029 6.43844C217.862 7.71971 218.278 9.16115 218.278 10.7627C218.278 12.6847 217.766 14.2863 216.741 15.5675C215.716 16.8488 214.338 17.7938 212.609 18.4024ZM200.212 16.1922H206.987C208.781 16.1922 210.174 15.7918 211.167 14.991C212.192 14.1581 212.705 12.973 212.705 11.4354C212.705 9.92992 212.192 8.76075 211.167 7.92792C210.174 7.06306 208.781 6.63063 206.987 6.63063H200.212V16.1922ZM207.612 31.087C209.469 31.087 210.927 30.6386 211.984 29.7417C213.041 28.8448 213.569 27.5955 213.569 25.9939C213.569 24.3603 213.009 23.063 211.888 22.1021C210.767 21.1411 209.277 20.6606 207.419 20.6606H200.212V31.087H207.612ZM248.581 9.08107L232.341 47.9999H226.671L232.052 35.123L221.626 9.08107H227.728L235.175 29.2612L242.911 9.08107H248.581Z" fill="black"/>
<defs>
<linearGradient id="paint0_linear_255_1007" x1="-1.87382" y1="18.5385" x2="173.301" y2="18.5385" gradientUnits="userSpaceOnUse">
<stop stop-color="#AE8631"/>
<stop offset="1" stop-color="#28705A"/>
</linearGradient>
</defs>
</svg>
