<svg width="93" height="91" viewBox="0 0 93 91" fill="none" xmlns="http://www.w3.org/2000/svg">
<g clip-path="url(#clip0_238_537)">
<path d="M47 0.065918C72.2463 0.065918 92.7129 20.5325 92.7129 45.7788C92.7129 71.0251 72.2463 91.4917 47 91.4917C21.7537 91.4917 1.28711 71.0251 1.28711 45.7788C1.28711 20.5325 21.7537 0.065918 47 0.065918Z" stroke="#28705A" stroke-opacity="0.5" stroke-width="0.575"/>
<mask id="mask0_238_537" style="mask-type:luminance" maskUnits="userSpaceOnUse" x="1" y="-1" width="92" height="93">
<path d="M47 91.7788C72.4051 91.7788 93 71.1839 93 45.7788C93 20.3737 72.4051 -0.221191 47 -0.221191C21.5949 -0.221191 1 20.3737 1 45.7788C1 71.1839 21.5949 91.7788 47 91.7788Z" fill="white"/>
</mask>
<g mask="url(#mask0_238_537)">
<path d="M51.4652 43.9065L51.8359 49.9239L40.5999 50.494L44.0795 42.5659L51.4652 43.9065Z" fill="#D9AB52" fill-opacity="0.25"/>
<path d="M52.1225 49.0237C49.1108 50.6064 44.2937 50.1737 38.8347 49.0237L37.9811 93.5824C37.9811 93.5824 55.7711 99.3452 61.6423 91.8819L57.8376 53.7571L52.1208 49.0241L52.1225 49.0237Z" fill="#28705A"/>
<path d="M42.2622 46.7065L34.1622 51.5007C32.6705 52.3835 31.5154 53.7379 30.8792 55.3503C30.2431 56.9626 30.1621 58.7409 30.6492 60.4043L36.9099 81.7861C36.9099 81.7861 26.7153 99.2998 30.0278 100.845C37.4716 104.317 48.579 103.471 48.579 103.471L46.0964 61.5395L42.2619 46.7058L42.2622 46.7065Z" fill="#3F3D58"/>
<path d="M51.7706 48.8652L60.9295 52.4233L63.0928 78.8446L69.1509 100.13C58.8903 103.875 59.8485 102.13 59.8485 102.13L58.149 65.4022L51.7709 48.866L51.7706 48.8652Z" fill="#3F3D58"/>
<path d="M65.1503 99.6792L65.1189 99.5347L55.7568 56.2326C55.642 55.7542 55.6232 55.2579 55.7014 54.7722C55.7796 54.2865 55.9533 53.8211 56.2124 53.403C56.4715 52.9848 56.8109 52.6221 57.211 52.3359C57.6111 52.0497 58.0639 51.8456 58.5434 51.7354C59.0228 51.6253 59.5194 51.6112 60.0043 51.6941C60.4892 51.7769 60.9529 51.955 61.3685 52.2182C61.7842 52.4813 62.1436 52.8242 62.4259 53.227C62.7083 53.6298 62.908 54.0846 63.0136 54.5651L73.2964 96.8354L65.1498 99.6787L65.1503 99.6792Z" fill="#3F3D58"/>
<path d="M46.5901 45.505C51.6246 45.505 55.7059 41.4237 55.7059 36.3892C55.7059 31.3547 51.6246 27.2734 46.5901 27.2734C41.5556 27.2734 37.4744 31.3547 37.4744 36.3892C37.4744 41.4237 41.5556 45.505 46.5901 45.505Z" fill="#D9AB52" fill-opacity="0.25"/>
<path d="M50.927 24.5787C52.9351 25.2842 54.0839 25.6883 55.1365 26.702C56.9141 28.4147 57.2076 30.7035 57.4796 32.8303C57.6929 34.494 57.9683 36.6451 56.9933 39.1026C56.6608 39.9413 55.0478 43.6779 51.9612 44.15C51.355 44.2427 49.9317 44.267 50.342 43.9641C54.1387 41.161 55.759 39.4691 55.6264 35.1491C55.5437 32.4647 51.4422 29.5667 49.007 29.0459C48.4219 28.9265 47.8179 28.9348 47.2363 29.0703C46.6547 29.2058 46.1092 29.4653 45.6372 29.8311C43.5903 31.5115 43.6774 38.4602 41.519 39.9127C40.6314 40.5102 41.2228 36.3045 40.5973 36.9868C39.3633 38.3323 40.1547 40.3914 40.3766 41.1775C41.4286 44.9007 42.5306 42.1471 43.5568 45.3259C44.6661 48.7575 34.9374 51.0681 34.6064 51.8344C34.0304 53.1674 42.2572 59.4919 39.9992 60.5888C37.1331 61.9816 34.8736 60.1678 33.5413 61.7227C32.7966 62.5912 33.1995 63.5125 31.854 66.2163C31.4148 67.0991 31.1939 67.5403 31.0008 67.5245C30.0808 67.4504 28.5913 60.0863 31.0008 53.2282C32.0118 50.3501 33.0023 47.5308 35.656 45.3251C37.0599 44.1593 38.2369 43.74 38.5722 42.3783C39.0508 40.4328 37.0628 39.6039 36.6646 36.5347C36.3922 34.4359 36.2009 31.4344 36.9425 29.5106C37.6421 27.6938 38.2497 26.1168 39.8394 24.687C40.2218 24.3438 43.304 22.0093 46.5723 21.9432C48.0769 21.913 49.1826 23.9643 50.9269 24.5776L50.927 24.5787Z" fill="#090814"/>
<path d="M51.3698 77.3679C54.1837 77.0717 56.6093 78.3385 56.7847 80.1975C56.9601 82.0565 54.8201 83.8025 52.0037 84.0985C50.88 84.233 49.7404 84.0863 48.6874 83.6715L36.7444 84.7703L36.386 78.9449L48.1976 78.48C49.1477 77.8547 50.2372 77.4729 51.3698 77.3684V77.3679Z" fill="#D9AB52" fill-opacity="0.25"/>
<path d="M36.8187 51.7755C35.4257 51.5788 34.01 51.9187 32.8581 52.7264C31.7062 53.5341 30.9042 54.7492 30.6145 56.1259C28.5183 66.0932 24.7562 87.3254 30.6648 87.6797C38.3903 88.1432 45.8067 86.2901 45.8067 86.2901L43.9523 75.629L37.9263 75.0109L41.4706 58.4318C41.63 57.6869 41.6344 56.9172 41.4833 56.1706C41.3323 55.424 41.0292 54.7165 40.5929 54.0921C40.1565 53.4677 39.5963 52.9399 38.9471 52.5414C38.2979 52.143 37.5736 51.8825 36.8193 51.7762L36.8187 51.7755Z" fill="#3F3D58"/>
</g>
</g>
<defs>
<clipPath id="clip0_238_537">
<rect width="93" height="90.4435" fill="white"/>
</clipPath>
</defs>
</svg>
