<svg width="99" height="99" viewBox="0 0 99 99" fill="none" xmlns="http://www.w3.org/2000/svg">
<path d="M59.5657 56.9922H41.9068C41.657 56.9926 41.4176 57.0996 41.2412 57.2898C41.0648 57.4799 40.9658 57.7376 40.9661 58.0061V87.9941H60.5089V58.0061C60.509 57.873 60.4846 57.7411 60.4372 57.618C60.3899 57.495 60.3204 57.3832 60.2328 57.289C60.1452 57.1948 60.0412 57.1202 59.9267 57.0692C59.8123 57.0183 59.6896 56.9921 59.5657 56.9922ZM50.7957 74.031C50.2434 74.0282 49.7145 73.7912 49.324 73.3714C48.9335 72.9516 48.713 72.3831 48.7105 71.7894V68.3306C48.7112 67.7365 48.9312 67.1671 49.3221 66.7474C49.7131 66.3276 50.2431 66.0918 50.7957 66.0918C51.3482 66.0918 51.8782 66.3276 52.2692 66.7474C52.6602 67.1671 52.8802 67.7365 52.8809 68.3306V71.7894C52.8783 72.3831 52.6578 72.9516 52.2673 73.3714C51.8768 73.7912 51.3479 74.0282 50.7957 74.031Z" fill="#3F3D56"/>
<path d="M88.8072 10.1924H13.3224C12.6739 10.1935 12.0522 10.4709 11.5936 10.9639C11.1351 11.4569 10.877 12.1252 10.8759 12.8223V67.5801C10.8765 68.2774 11.1345 68.946 11.5932 69.439C12.0518 69.9321 12.6738 70.2094 13.3224 70.2101H88.8072C89.4559 70.2094 90.0778 69.9321 90.5364 69.439C90.9951 68.946 91.2531 68.2774 91.2537 67.5801V12.8223C91.2527 12.1252 90.9946 11.4569 90.536 10.9639C90.0774 10.4709 89.4557 10.1935 88.8072 10.1924Z" fill="#3F3D56"/>
<path d="M88.1771 12.0918H13.9531C13.6059 12.0926 13.2731 12.2415 13.0278 12.5057C12.7825 12.7699 12.6447 13.1279 12.6447 13.5012V66.9018C12.6453 67.2746 12.7834 67.632 13.0286 67.8956C13.2738 68.1592 13.6063 68.3076 13.9531 68.3083H88.1771C88.524 68.3076 88.8564 68.1592 89.1017 67.8956C89.3469 67.632 89.4849 67.2746 89.4855 66.9018V13.5012C89.4855 13.1279 89.3477 12.7699 89.1024 12.5057C88.8571 12.2415 88.5244 12.0926 88.1771 12.0918Z" fill="white"/>
<path d="M40.9054 87.0347V89.9279C40.9057 90.0778 40.9612 90.2215 41.0598 90.3275C41.1584 90.4335 41.2921 90.4932 41.4316 90.4935H60.0433C60.1827 90.4928 60.3161 90.4329 60.4146 90.327C60.5131 90.2211 60.5688 90.0777 60.5695 89.9279V87.0347H40.9054Z" fill="#3F3D56"/>
<path d="M73.7195 91.5002H29.5603C29.4394 91.5002 29.32 91.4712 29.2109 91.4154C29.1018 91.3595 29.0056 91.2781 28.9295 91.1772C28.8533 91.0763 28.799 90.9584 28.7706 90.8321C28.7423 90.7058 28.7404 90.5743 28.7653 90.4471L29.4506 86.9487C29.4896 86.753 29.5897 86.5775 29.7342 86.4514C29.8788 86.3253 30.0592 86.2561 30.2454 86.2554H73.0344C73.2206 86.2561 73.401 86.3253 73.5455 86.4514C73.6901 86.5775 73.7902 86.753 73.8292 86.9487L74.5144 90.4471C74.5393 90.5743 74.5375 90.7058 74.5091 90.8321C74.4807 90.9584 74.4265 91.0763 74.3503 91.1772C74.2742 91.2781 74.178 91.3595 74.0689 91.4154C73.9598 91.4712 73.8404 91.5002 73.7195 91.5002Z" fill="#3F3D56"/>
<path d="M31.75 86.8853H30.728C30.6346 86.8853 30.559 86.9666 30.559 87.0669V87.5808C30.559 87.6811 30.6346 87.7625 30.728 87.7625H31.75C31.8433 87.7625 31.919 87.6811 31.919 87.5808V87.0669C31.919 86.9666 31.8433 86.8853 31.75 86.8853Z" fill="#E6E6E6"/>
<path d="M34.4701 86.8853H33.4481C33.3547 86.8853 33.2791 86.9666 33.2791 87.0669V87.5808C33.2791 87.6811 33.3547 87.7625 33.4481 87.7625H34.4701C34.5635 87.7625 34.6391 87.6811 34.6391 87.5808V87.0669C34.6391 86.9666 34.5635 86.8853 34.4701 86.8853Z" fill="#E6E6E6"/>
<path d="M37.1902 86.8853H36.1682C36.0749 86.8853 35.9992 86.9666 35.9992 87.0669V87.5808C35.9992 87.6811 36.0749 87.7625 36.1682 87.7625H37.1902C37.2836 87.7625 37.3593 87.6811 37.3593 87.5808V87.0669C37.3593 86.9666 37.2836 86.8853 37.1902 86.8853Z" fill="#E6E6E6"/>
<path d="M39.9103 86.8853H38.8883C38.795 86.8853 38.7193 86.9666 38.7193 87.0669V87.5808C38.7193 87.6811 38.795 87.7625 38.8883 87.7625H39.9103C40.0037 87.7625 40.0794 87.6811 40.0794 87.5808V87.0669C40.0794 86.9666 40.0037 86.8853 39.9103 86.8853Z" fill="#E6E6E6"/>
<path d="M42.6305 86.8853H41.6085C41.5151 86.8853 41.4395 86.9666 41.4395 87.0669V87.5808C41.4395 87.6811 41.5151 87.7625 41.6085 87.7625H42.6305C42.7238 87.7625 42.7995 87.6811 42.7995 87.5808V87.0669C42.7995 86.9666 42.7238 86.8853 42.6305 86.8853Z" fill="#E6E6E6"/>
<path d="M45.3506 86.8853H44.3286C44.2352 86.8853 44.1595 86.9666 44.1595 87.0669V87.5808C44.1595 87.6811 44.2352 87.7625 44.3286 87.7625H45.3506C45.4439 87.7625 45.5196 87.6811 45.5196 87.5808V87.0669C45.5196 86.9666 45.4439 86.8853 45.3506 86.8853Z" fill="#E6E6E6"/>
<path d="M48.0707 86.8853H47.0487C46.9554 86.8853 46.8797 86.9666 46.8797 87.0669V87.5808C46.8797 87.6811 46.9554 87.7625 47.0487 87.7625H48.0707C48.1641 87.7625 48.2398 87.6811 48.2398 87.5808V87.0669C48.2398 86.9666 48.1641 86.8853 48.0707 86.8853Z" fill="#E6E6E6"/>
<path d="M50.7908 86.8853H49.7688C49.6755 86.8853 49.5998 86.9666 49.5998 87.0669V87.5808C49.5998 87.6811 49.6755 87.7625 49.7688 87.7625H50.7908C50.8842 87.7625 50.9599 87.6811 50.9599 87.5808V87.0669C50.9599 86.9666 50.8842 86.8853 50.7908 86.8853Z" fill="#E6E6E6"/>
<path d="M53.511 86.8853H52.489C52.3956 86.8853 52.3199 86.9666 52.3199 87.0669V87.5808C52.3199 87.6811 52.3956 87.7625 52.489 87.7625H53.511C53.6043 87.7625 53.68 87.6811 53.68 87.5808V87.0669C53.68 86.9666 53.6043 86.8853 53.511 86.8853Z" fill="#E6E6E6"/>
<path d="M56.2311 86.8853H55.2091C55.1158 86.8853 55.0401 86.9666 55.0401 87.0669V87.5808C55.0401 87.6811 55.1158 87.7625 55.2091 87.7625H56.2311C56.3245 87.7625 56.4002 87.6811 56.4002 87.5808V87.0669C56.4002 86.9666 56.3245 86.8853 56.2311 86.8853Z" fill="#E6E6E6"/>
<path d="M58.9512 86.8853H57.9292C57.8358 86.8853 57.7601 86.9666 57.7601 87.0669V87.5808C57.7601 87.6811 57.8358 87.7625 57.9292 87.7625H58.9512C59.0445 87.7625 59.1202 87.6811 59.1202 87.5808V87.0669C59.1202 86.9666 59.0445 86.8853 58.9512 86.8853Z" fill="#E6E6E6"/>
<path d="M61.6714 86.8853H60.6494C60.556 86.8853 60.4803 86.9666 60.4803 87.0669V87.5808C60.4803 87.6811 60.556 87.7625 60.6494 87.7625H61.6714C61.7647 87.7625 61.8404 87.6811 61.8404 87.5808V87.0669C61.8404 86.9666 61.7647 86.8853 61.6714 86.8853Z" fill="#E6E6E6"/>
<path d="M64.3915 86.8853H63.3695C63.2761 86.8853 63.2004 86.9666 63.2004 87.0669V87.5808C63.2004 87.6811 63.2761 87.7625 63.3695 87.7625H64.3915C64.4848 87.7625 64.5605 87.6811 64.5605 87.5808V87.0669C64.5605 86.9666 64.4848 86.8853 64.3915 86.8853Z" fill="#E6E6E6"/>
<path d="M67.1116 86.8853H66.0896C65.9962 86.8853 65.9205 86.9666 65.9205 87.0669V87.5808C65.9205 87.6811 65.9962 87.7625 66.0896 87.7625H67.1116C67.2049 87.7625 67.2806 87.6811 67.2806 87.5808V87.0669C67.2806 86.9666 67.2049 86.8853 67.1116 86.8853Z" fill="#E6E6E6"/>
<path d="M69.8317 86.8853H68.8097C68.7163 86.8853 68.6407 86.9666 68.6407 87.0669V87.5808C68.6407 87.6811 68.7163 87.7625 68.8097 87.7625H69.8317C69.9251 87.7625 70.0007 87.6811 70.0007 87.5808V87.0669C70.0007 86.9666 69.9251 86.8853 69.8317 86.8853Z" fill="#E6E6E6"/>
<path d="M72.5518 86.8853H71.5298C71.4364 86.8853 71.3608 86.9666 71.3608 87.0669V87.5808C71.3608 87.6811 71.4364 87.7625 71.5298 87.7625H72.5518C72.6452 87.7625 72.7208 87.6811 72.7208 87.5808V87.0669C72.7208 86.9666 72.6452 86.8853 72.5518 86.8853Z" fill="#E6E6E6"/>
<path d="M31.7178 88.3477H30.6958C30.6025 88.3477 30.5268 88.429 30.5268 88.5294V89.0432C30.5268 89.1435 30.6025 89.2249 30.6958 89.2249H31.7178C31.8112 89.2249 31.8869 89.1435 31.8869 89.0432V88.5294C31.8869 88.429 31.8112 88.3477 31.7178 88.3477Z" fill="#E6E6E6"/>
<path d="M34.4379 88.3477H33.4159C33.3226 88.3477 33.2469 88.429 33.2469 88.5294V89.0432C33.2469 89.1435 33.3226 89.2249 33.4159 89.2249H34.4379C34.5313 89.2249 34.6069 89.1435 34.6069 89.0432V88.5294C34.6069 88.429 34.5313 88.3477 34.4379 88.3477Z" fill="#E6E6E6"/>
<path d="M37.1581 88.3477H36.1361C36.0427 88.3477 35.967 88.429 35.967 88.5294V89.0432C35.967 89.1435 36.0427 89.2249 36.1361 89.2249H37.1581C37.2514 89.2249 37.3271 89.1435 37.3271 89.0432V88.5294C37.3271 88.429 37.2514 88.3477 37.1581 88.3477Z" fill="#E6E6E6"/>
<path d="M39.8782 88.3477H38.8562C38.7628 88.3477 38.6871 88.429 38.6871 88.5294V89.0432C38.6871 89.1435 38.7628 89.2249 38.8562 89.2249H39.8782C39.9715 89.2249 40.0472 89.1435 40.0472 89.0432V88.5294C40.0472 88.429 39.9715 88.3477 39.8782 88.3477Z" fill="#E6E6E6"/>
<path d="M42.5983 88.3477H41.5763C41.483 88.3477 41.4073 88.429 41.4073 88.5294V89.0432C41.4073 89.1435 41.483 89.2249 41.5763 89.2249H42.5983C42.6917 89.2249 42.7674 89.1435 42.7674 89.0432V88.5294C42.7674 88.429 42.6917 88.3477 42.5983 88.3477Z" fill="#E6E6E6"/>
<path d="M45.3185 88.3477H44.2965C44.2031 88.3477 44.1274 88.429 44.1274 88.5294V89.0432C44.1274 89.1435 44.2031 89.2249 44.2965 89.2249H45.3185C45.4118 89.2249 45.4875 89.1435 45.4875 89.0432V88.5294C45.4875 88.429 45.4118 88.3477 45.3185 88.3477Z" fill="#E6E6E6"/>
<path d="M48.0386 88.3477H47.0166C46.9232 88.3477 46.8475 88.429 46.8475 88.5294V89.0432C46.8475 89.1435 46.9232 89.2249 47.0166 89.2249H48.0386C48.1319 89.2249 48.2076 89.1435 48.2076 89.0432V88.5294C48.2076 88.429 48.1319 88.3477 48.0386 88.3477Z" fill="#E6E6E6"/>
<path d="M50.7587 88.3477H49.7367C49.6434 88.3477 49.5677 88.429 49.5677 88.5294V89.0432C49.5677 89.1435 49.6434 89.2249 49.7367 89.2249H50.7587C50.8521 89.2249 50.9277 89.1435 50.9277 89.0432V88.5294C50.9277 88.429 50.8521 88.3477 50.7587 88.3477Z" fill="#E6E6E6"/>
<path d="M53.4789 88.3477H52.4569C52.3635 88.3477 52.2878 88.429 52.2878 88.5294V89.0432C52.2878 89.1435 52.3635 89.2249 52.4569 89.2249H53.4789C53.5722 89.2249 53.6479 89.1435 53.6479 89.0432V88.5294C53.6479 88.429 53.5722 88.3477 53.4789 88.3477Z" fill="#E6E6E6"/>
<path d="M56.199 88.3477H55.177C55.0836 88.3477 55.0079 88.429 55.0079 88.5294V89.0432C55.0079 89.1435 55.0836 89.2249 55.177 89.2249H56.199C56.2923 89.2249 56.368 89.1435 56.368 89.0432V88.5294C56.368 88.429 56.2923 88.3477 56.199 88.3477Z" fill="#E6E6E6"/>
<path d="M58.9191 88.3477H57.897C57.8037 88.3477 57.728 88.429 57.728 88.5294V89.0432C57.728 89.1435 57.8037 89.2249 57.897 89.2249H58.9191C59.0124 89.2249 59.0881 89.1435 59.0881 89.0432V88.5294C59.0881 88.429 59.0124 88.3477 58.9191 88.3477Z" fill="#E6E6E6"/>
<path d="M61.6392 88.3477H60.6172C60.5239 88.3477 60.4482 88.429 60.4482 88.5294V89.0432C60.4482 89.1435 60.5239 89.2249 60.6172 89.2249H61.6392C61.7326 89.2249 61.8082 89.1435 61.8082 89.0432V88.5294C61.8082 88.429 61.7326 88.3477 61.6392 88.3477Z" fill="#E6E6E6"/>
<path d="M64.3593 88.3477H63.3373C63.2439 88.3477 63.1683 88.429 63.1683 88.5294V89.0432C63.1683 89.1435 63.2439 89.2249 63.3373 89.2249H64.3593C64.4527 89.2249 64.5283 89.1435 64.5283 89.0432V88.5294C64.5283 88.429 64.4527 88.3477 64.3593 88.3477Z" fill="#E6E6E6"/>
<path d="M67.0794 88.3477H66.0574C65.964 88.3477 65.8884 88.429 65.8884 88.5294V89.0432C65.8884 89.1435 65.964 89.2249 66.0574 89.2249H67.0794C67.1728 89.2249 67.2484 89.1435 67.2484 89.0432V88.5294C67.2484 88.429 67.1728 88.3477 67.0794 88.3477Z" fill="#E6E6E6"/>
<path d="M69.7996 88.3477H68.7775C68.6842 88.3477 68.6085 88.429 68.6085 88.5294V89.0432C68.6085 89.1435 68.6842 89.2249 68.7775 89.2249H69.7996C69.8929 89.2249 69.9686 89.1435 69.9686 89.0432V88.5294C69.9686 88.429 69.8929 88.3477 69.7996 88.3477Z" fill="#E6E6E6"/>
<path d="M72.5197 88.3477H71.4977C71.4043 88.3477 71.3287 88.429 71.3287 88.5294V89.0432C71.3287 89.1435 71.4043 89.2249 71.4977 89.2249H72.5197C72.6131 89.2249 72.6887 89.1435 72.6887 89.0432V88.5294C72.6887 88.429 72.6131 88.3477 72.5197 88.3477Z" fill="#E6E6E6"/>
<path d="M54.2949 90.1021H43.7524C43.659 90.1021 43.5834 90.1834 43.5834 90.2837V90.7976C43.5834 90.8979 43.659 90.9793 43.7524 90.9793H54.2949C54.3882 90.9793 54.4639 90.8979 54.4639 90.7976V90.2837C54.4639 90.1834 54.3882 90.1021 54.2949 90.1021Z" fill="#E6E6E6"/>
<path d="M77.1099 25.497V53.6041C77.1097 55.4864 76.414 57.2915 75.1759 58.6225C73.9378 59.9534 72.2586 60.7013 70.5076 60.7016H37.7835C36.4952 60.7018 35.2349 60.2972 34.1578 59.5374C33.0807 58.7776 32.2338 57.6958 31.7212 56.4252C31.5495 56.0053 31.4184 55.5676 31.33 55.1189C32.0256 55.4082 32.7653 55.5558 33.5112 55.5543H66.2354C67.8489 55.5519 69.3957 54.8618 70.5366 53.6353C71.6776 52.4087 72.3195 50.7459 72.3218 49.0114V20.9043C72.3232 20.1025 72.1859 19.3074 71.9167 18.5596C72.3341 18.6546 72.7413 18.7956 73.1319 18.9801C74.3139 19.5311 75.3202 20.4415 76.027 21.5994C76.7338 22.7573 77.1102 24.1121 77.1099 25.497Z" fill="#F2F2F2"/>
<path d="M44.5698 35.3012H39.3309C39.1919 35.3012 39.0587 35.2418 38.9604 35.1362C38.8622 35.0306 38.807 34.8874 38.807 34.738C38.807 34.5886 38.8622 34.4454 38.9604 34.3398C39.0587 34.2341 39.1919 34.1748 39.3309 34.1748H44.5698C44.7088 34.1748 44.842 34.2341 44.9403 34.3398C45.0385 34.4454 45.0937 34.5886 45.0937 34.738C45.0937 34.8874 45.0385 35.0306 44.9403 35.1362C44.842 35.2418 44.7088 35.3012 44.5698 35.3012Z" fill="#28705A"/>
<path d="M53.9999 35.3012H48.7609C48.6921 35.3012 48.624 35.2866 48.5605 35.2583C48.4969 35.23 48.4391 35.1885 48.3905 35.1362C48.3418 35.0839 48.3033 35.0218 48.2769 34.9535C48.2506 34.8852 48.2371 34.812 48.2371 34.738C48.2371 34.664 48.2506 34.5908 48.2769 34.5225C48.3033 34.4541 48.3418 34.3921 48.3905 34.3398C48.4391 34.2875 48.4969 34.246 48.5605 34.2177C48.624 34.1894 48.6921 34.1748 48.7609 34.1748H53.9999C54.0687 34.1748 54.1368 34.1894 54.2004 34.2177C54.2639 34.246 54.3217 34.2875 54.3703 34.3398C54.419 34.3921 54.4576 34.4541 54.4839 34.5225C54.5102 34.5908 54.5238 34.664 54.5238 34.738C54.5238 34.812 54.5102 34.8852 54.4839 34.9535C54.4576 35.0218 54.419 35.0839 54.3703 35.1362C54.3217 35.1885 54.2639 35.23 54.2004 35.2583C54.1368 35.2866 54.0687 35.3012 53.9999 35.3012Z" fill="#28705A"/>
<path d="M58.715 39.8066H53.4761C53.4073 39.8066 53.3391 39.792 53.2756 39.7637C53.212 39.7354 53.1543 39.6939 53.1056 39.6416C53.057 39.5893 53.0184 39.5272 52.992 39.4589C52.9657 39.3906 52.9521 39.3173 52.9521 39.2434C52.9521 39.1694 52.9657 39.0962 52.992 39.0278C53.0184 38.9595 53.057 38.8974 53.1056 38.8451C53.1543 38.7928 53.212 38.7513 53.2756 38.723C53.3391 38.6947 53.4073 38.6802 53.4761 38.6802H58.715C58.7838 38.6802 58.8519 38.6947 58.9155 38.723C58.979 38.7513 59.0368 38.7928 59.0854 38.8451C59.1341 38.8974 59.1727 38.9595 59.199 39.0278C59.2253 39.0962 59.2389 39.1694 59.2389 39.2434C59.2389 39.3173 59.2253 39.3906 59.199 39.4589C59.1727 39.5272 59.1341 39.5893 59.0854 39.6416C59.0368 39.6939 58.979 39.7354 58.9155 39.7637C58.8519 39.792 58.7838 39.8066 58.715 39.8066Z" fill="#28705A"/>
<path d="M49.3138 39.8066H39.3309C39.1919 39.8066 39.0587 39.7472 38.9604 39.6416C38.8622 39.536 38.807 39.3927 38.807 39.2434C38.807 39.094 38.8622 38.9507 38.9604 38.8451C39.0587 38.7395 39.1919 38.6802 39.3309 38.6802H49.3138C49.4527 38.6802 49.586 38.7395 49.6842 38.8451C49.7825 38.9507 49.8377 39.094 49.8377 39.2434C49.8377 39.3927 49.7825 39.536 49.6842 39.6416C49.586 39.7472 49.4527 39.8066 49.3138 39.8066Z" fill="#28705A"/>
<path d="M68.174 35.3012H58.1911C58.0522 35.3012 57.9189 35.2418 57.8207 35.1362C57.7224 35.0306 57.6672 34.8874 57.6672 34.738C57.6672 34.5886 57.7224 34.4454 57.8207 34.3398C57.9189 34.2341 58.0522 34.1748 58.1911 34.1748H68.174C68.2428 34.1748 68.3109 34.1894 68.3745 34.2177C68.4381 34.246 68.4958 34.2875 68.5445 34.3398C68.5931 34.3921 68.6317 34.4541 68.658 34.5225C68.6844 34.5908 68.6979 34.664 68.6979 34.738C68.6979 34.812 68.6844 34.8852 68.658 34.9535C68.6317 35.0218 68.5931 35.0839 68.5445 35.1362C68.4958 35.1885 68.4381 35.23 68.3745 35.2583C68.3109 35.2866 68.2428 35.3012 68.174 35.3012Z" fill="#28705A"/>
<path d="M48.1565 26.7694H38.1736C38.1047 26.7696 38.0364 26.7552 37.9727 26.727C37.909 26.6988 37.8511 26.6573 37.8023 26.605C37.7535 26.5527 37.7148 26.4905 37.6884 26.4221C37.662 26.3537 37.6484 26.2803 37.6484 26.2063C37.6484 26.1322 37.662 26.0588 37.6884 25.9904C37.7148 25.922 37.7535 25.8598 37.8023 25.8075C37.8511 25.7552 37.909 25.7137 37.9727 25.6855C38.0364 25.6573 38.1047 25.6429 38.1736 25.6431H48.1565C48.2954 25.6431 48.4287 25.7024 48.527 25.808C48.6252 25.9136 48.6804 26.0569 48.6804 26.2063C48.6804 26.3556 48.6252 26.4989 48.527 26.6045C48.4287 26.7101 48.2954 26.7694 48.1565 26.7694Z" fill="#28705A"/>
<path d="M48.9773 30.0597C48.8795 30.0598 48.7842 30.0269 48.7046 29.9659C48.625 29.9048 48.5651 29.8185 48.5333 29.7191C48.5016 29.6197 48.4996 29.512 48.5275 29.4113C48.5554 29.3105 48.6119 29.2217 48.6891 29.1572L51.2453 27.0212C51.3481 26.9354 51.4331 26.8275 51.495 26.7045C51.5569 26.5815 51.5944 26.4461 51.6051 26.3067C51.6158 26.1673 51.5994 26.0271 51.557 25.8948C51.5146 25.7626 51.4472 25.6413 51.3589 25.5385L49.2128 23.041C49.171 22.9923 49.1385 22.9353 49.1172 22.8732C49.0959 22.811 49.0862 22.745 49.0886 22.6788C49.091 22.6127 49.1055 22.5476 49.1313 22.4875C49.1571 22.4273 49.1937 22.3732 49.239 22.3283C49.2842 22.2833 49.3372 22.2484 49.3951 22.2255C49.4529 22.2026 49.5143 22.1921 49.5759 22.1947C49.6374 22.1973 49.6979 22.213 49.7538 22.2407C49.8098 22.2684 49.8601 22.3077 49.9019 22.3564L53.0889 26.0651C53.133 26.1164 53.1667 26.177 53.1879 26.243C53.2091 26.309 53.2172 26.3791 53.2119 26.4487C53.2066 26.5183 53.1879 26.586 53.157 26.6474C53.1261 26.7089 53.0836 26.7627 53.0323 26.8056L49.2651 29.9536C49.1828 30.0224 49.0816 30.0598 48.9773 30.0597Z" fill="#28705A"/>
<path d="M37.6685 30.0597C37.7663 30.0598 37.8616 30.0269 37.9412 29.9659C38.0209 29.9048 38.0807 29.8185 38.1125 29.7191C38.1442 29.6197 38.1463 29.512 38.1183 29.4113C38.0904 29.3105 38.0339 29.2217 37.9567 29.1572L35.4005 27.0212C35.2977 26.9354 35.2127 26.8275 35.1508 26.7045C35.0889 26.5815 35.0514 26.4461 35.0407 26.3067C35.0301 26.1673 35.0464 26.0271 35.0888 25.8948C35.1312 25.7626 35.1986 25.6413 35.2869 25.5385L37.433 23.041C37.4748 22.9923 37.5073 22.9353 37.5286 22.8732C37.5499 22.811 37.5597 22.745 37.5572 22.6788C37.5548 22.6127 37.5403 22.5476 37.5145 22.4875C37.4887 22.4273 37.4521 22.3732 37.4069 22.3283C37.3616 22.2833 37.3086 22.2484 37.2508 22.2255C37.193 22.2026 37.1315 22.1921 37.07 22.1947C37.0084 22.1973 36.9479 22.213 36.892 22.2407C36.836 22.2684 36.7857 22.3077 36.7439 22.3564L33.5569 26.0651C33.5128 26.1164 33.4791 26.177 33.4579 26.243C33.4368 26.309 33.4286 26.3791 33.4339 26.4487C33.4392 26.5183 33.4579 26.586 33.4888 26.6474C33.5197 26.7089 33.5622 26.7627 33.6135 26.8056L37.3807 29.9536C37.463 30.0224 37.5643 30.0598 37.6685 30.0597Z" fill="#28705A"/>
<path d="M53.3173 49.4648H43.3344C43.1954 49.4648 43.0622 49.4054 42.9639 49.2998C42.8657 49.1942 42.8105 49.0509 42.8105 48.9016C42.8105 48.7522 42.8657 48.6089 42.9639 48.5033C43.0622 48.3977 43.1954 48.3384 43.3344 48.3384H53.3173C53.4562 48.3384 53.5895 48.3977 53.6877 48.5033C53.786 48.6089 53.8412 48.7522 53.8412 48.9016C53.8412 49.0509 53.786 49.1942 53.6877 49.2998C53.5895 49.4054 53.4562 49.4648 53.3173 49.4648Z" fill="#28705A"/>
<path d="M55.0763 52.2506C54.9785 52.2507 54.8832 52.2179 54.8036 52.1568C54.724 52.0957 54.6641 52.0094 54.6324 51.91C54.6006 51.8106 54.5985 51.7029 54.6265 51.6022C54.6544 51.5014 54.7109 51.4126 54.7882 51.3481L57.3443 49.2121C57.4471 49.1263 57.5321 49.0184 57.594 48.8954C57.6559 48.7725 57.6934 48.637 57.7041 48.4976C57.7148 48.3582 57.6984 48.218 57.656 48.0857C57.6136 47.9535 57.5462 47.8322 57.4579 47.7295L55.3118 45.2319C55.27 45.1832 55.2375 45.1262 55.2162 45.0641C55.1949 45.002 55.1852 44.9359 55.1876 44.8697C55.19 44.8036 55.2045 44.7385 55.2303 44.6784C55.2561 44.6183 55.2927 44.5642 55.338 44.5192C55.3832 44.4743 55.4362 44.4393 55.494 44.4164C55.5518 44.3935 55.6133 44.383 55.6748 44.3856C55.7364 44.3883 55.7969 44.4039 55.8529 44.4316C55.9088 44.4593 55.9591 44.4986 56.0009 44.5473L59.1879 48.256C59.232 48.3073 59.2657 48.3679 59.2869 48.4339C59.3081 48.5 59.3163 48.57 59.3109 48.6396C59.3056 48.7092 59.2869 48.7769 59.256 48.8383C59.2251 48.8998 59.1826 48.9536 59.1313 48.9965L55.3641 52.1445C55.2818 52.2133 55.1806 52.2507 55.0763 52.2506Z" fill="#28705A"/>
<path d="M37.6685 52.2506C37.7663 52.2507 37.8616 52.2179 37.9412 52.1568C38.0209 52.0957 38.0807 52.0094 38.1125 51.91C38.1442 51.8106 38.1463 51.7029 38.1183 51.6022C38.0904 51.5014 38.0339 51.4126 37.9567 51.3481L35.4005 49.2121C35.2977 49.1263 35.2127 49.0184 35.1508 48.8954C35.0889 48.7725 35.0514 48.637 35.0407 48.4976C35.0301 48.3582 35.0464 48.218 35.0888 48.0857C35.1312 47.9535 35.1986 47.8322 35.2869 47.7295L37.433 45.2319C37.5174 45.1337 37.5621 45.0034 37.5572 44.8697C37.5523 44.7361 37.4982 44.61 37.4069 44.5192C37.3155 44.4284 37.1943 44.3804 37.07 44.3856C36.9456 44.3909 36.8284 44.4491 36.7439 44.5473L33.5569 48.256C33.5128 48.3073 33.4791 48.3679 33.4579 48.4339C33.4368 48.5 33.4286 48.57 33.4339 48.6396C33.4392 48.7092 33.4579 48.7769 33.4888 48.8383C33.5197 48.8998 33.5622 48.9536 33.6135 48.9965L37.3807 52.1445C37.463 52.2133 37.5643 52.2507 37.6685 52.2506Z" fill="#28705A"/>
<path d="M38.5594 50.6729L40.6578 45.5125C40.7139 45.3763 40.8179 45.2696 40.947 45.2156C41.0761 45.1616 41.2198 45.1647 41.3468 45.2244C41.4737 45.2841 41.5735 45.3953 41.6243 45.5339C41.6751 45.6724 41.6728 45.827 41.6179 45.9637L39.5195 51.124C39.4921 51.1921 39.4525 51.2538 39.403 51.3054C39.3534 51.357 39.2948 51.3976 39.2306 51.4248C39.1664 51.452 39.0979 51.4654 39.0289 51.464C38.9599 51.4627 38.8918 51.4467 38.8286 51.417C38.7653 51.3872 38.7082 51.3444 38.6604 51.2909C38.6126 51.2373 38.5752 51.1742 38.5501 51.105C38.5251 51.0359 38.5131 50.9621 38.5147 50.888C38.5163 50.8138 38.5315 50.7407 38.5594 50.6729Z" fill="#28705A"/>
</svg>
