<svg width="101" height="98" viewBox="0 0 101 98" fill="none" xmlns="http://www.w3.org/2000/svg">
<g clip-path="url(#clip0_224_743)">
<path d="M82.3097 12.4904C75.1572 4.89644 65.3108 0.411656 54.8868 0V39.9135L82.3097 12.4904Z" fill="#090814" fill-opacity="0.8"/>
<path d="M82.3097 17.4604L54.8868 44.8835H93.2111C93.2247 34.6834 89.3225 24.8673 82.3097 17.4604Z" fill="#E4E4E4"/>
<path d="M93.2521 47.7515C93.2537 50.2392 93.0235 52.7216 92.5645 55.1666C92.5288 55.3602 92.4913 55.5519 92.4518 55.7435C91.5865 60.0085 90.0244 64.1019 87.8284 67.8591C87.7118 68.0607 87.5913 68.2622 87.4708 68.4599V68.4618C85.3066 72.0227 82.6001 75.2243 79.4491 77.951C79.2931 78.0873 79.1369 78.2217 78.9789 78.3541C72.2072 84.0513 63.7289 87.3274 54.8859 87.6641V47.7515H93.2521Z" fill="#F0F0F0"/>
<path d="M51.0098 87.6995C51.5403 87.6995 52.0676 87.6855 52.5932 87.6655V47.7505L23.5658 76.7779C30.975 83.803 40.8001 87.7128 51.0102 87.6991L51.0098 87.6995Z" fill="#D9AB52" fill-opacity="0.2"/>
<path d="M51.0639 4.93408C29.0006 4.93408 11.1149 22.8199 11.1149 44.8831H52.6887V4.96963C52.1496 4.94808 51.6083 4.93408 51.0639 4.93408Z" fill="#28705A" fill-opacity="0.8"/>
<path d="M41.5333 47.7515L33.1342 56.1506L32.8596 56.4252L32.8536 56.4311L25.5293 63.7535L25.2508 64.0321L17.3379 71.9452L17.0593 72.2239V72.2259L12.505 76.7781C8.55052 73.049 5.40103 68.5501 3.25043 63.5581C1.09983 58.5662 -0.00637421 53.1869 -9.54915e-05 47.7515H41.5333Z" fill="#28705A" fill-opacity="0.8"/>
<path d="M100.276 87.9235H24.9979C24.9715 87.9242 24.9453 87.9196 24.9207 87.91C24.8961 87.9004 24.8737 87.8859 24.8548 87.8675C24.8359 87.8491 24.8209 87.8271 24.8106 87.8028C24.8003 87.7785 24.795 87.7523 24.795 87.7259C24.795 87.6995 24.8003 87.6734 24.8106 87.6491C24.8209 87.6248 24.8359 87.6028 24.8548 87.5844C24.8737 87.5659 24.8961 87.5515 24.9207 87.5419C24.9453 87.5323 24.9715 87.5277 24.9979 87.5284H100.276C100.328 87.5298 100.376 87.5512 100.412 87.5881C100.448 87.625 100.468 87.6744 100.468 87.7259C100.468 87.7774 100.448 87.8269 100.412 87.8638C100.376 87.9007 100.328 87.9221 100.276 87.9235Z" fill="#F0F0F0"/>
<path d="M100.375 97.8023V22.5242C100.374 22.4978 100.379 22.4715 100.388 22.4469C100.398 22.4224 100.413 22.4 100.431 22.381C100.449 22.3621 100.471 22.3471 100.496 22.3368C100.52 22.3266 100.546 22.3213 100.572 22.3213C100.599 22.3213 100.625 22.3266 100.649 22.3368C100.674 22.3471 100.696 22.3621 100.714 22.381C100.733 22.4 100.747 22.4224 100.757 22.4469C100.766 22.4715 100.771 22.4978 100.77 22.5242V97.8023C100.771 97.8287 100.766 97.855 100.757 97.8796C100.747 97.9041 100.733 97.9266 100.714 97.9455C100.696 97.9644 100.674 97.9794 100.649 97.9897C100.625 97.9999 100.599 98.0052 100.572 98.0052C100.546 98.0052 100.52 97.9999 100.496 97.9897C100.471 97.9794 100.449 97.9644 100.431 97.9455C100.413 97.9266 100.398 97.9041 100.388 97.8796C100.379 97.855 100.374 97.8287 100.375 97.8023Z" fill="#F0F0F0"/>
<path d="M89.1128 97.9997C90.8587 97.9997 92.274 96.5844 92.274 94.8385C92.274 93.0926 90.8587 91.6772 89.1128 91.6772C87.3669 91.6772 85.9515 93.0926 85.9515 94.8385C85.9515 96.5844 87.3669 97.9997 89.1128 97.9997Z" fill="#F0F0F0"/>
<path d="M12.2539 8.89084C13.9998 8.89084 15.4151 7.47551 15.4151 5.7296C15.4151 3.9837 13.9998 2.56836 12.2539 2.56836C10.508 2.56836 9.09265 3.9837 9.09265 5.7296C9.09265 7.47551 10.508 8.89084 12.2539 8.89084Z" fill="#F0F0F0"/>
<path d="M17.0591 72.2255C10.5043 65.7339 6.67418 56.9854 6.35046 47.7658L7.14025 47.7378C7.45698 56.7569 11.2039 65.315 17.6161 71.6654L17.0591 72.2255Z" fill="#3F3D56"/>
<path d="M25.5373 63.7612L24.9643 64.3025C20.5977 59.6915 17.5158 54.0166 16.0258 47.8434L16.4091 47.7505H16.816C18.2816 53.7506 21.2846 59.2657 25.5293 63.7525L25.5373 63.7612Z" fill="#3F3D56"/>
<path d="M33.1561 56.1782L32.8597 56.4252L32.8537 56.4311L32.5495 56.6836C30.3326 54.032 28.5056 51.0775 27.1239 47.9095L27.4854 47.7515H27.9182C29.2564 50.7809 31.0121 53.6081 33.1343 56.1506C33.1409 56.1603 33.1482 56.1695 33.1561 56.1782Z" fill="#3F3D56"/>
</g>
<defs>
<clipPath id="clip0_224_743">
<rect width="100.77" height="98" fill="white"/>
</clipPath>
</defs>
</svg>
