<svg width="99" height="72" viewBox="0 0 99 72" fill="none" xmlns="http://www.w3.org/2000/svg">
<g clip-path="url(#clip0_239_924)">
<path d="M5.3389 1.4082C4.94473 1.40865 4.56683 1.56542 4.28811 1.84414C4.00939 2.12286 3.85262 2.50076 3.85217 2.89493V65.7622C3.85264 66.1563 4.00943 66.5342 4.28815 66.8129C4.56687 67.0916 4.94475 67.2484 5.3389 67.2488H97.5159C97.91 67.2484 98.2879 67.0916 98.5666 66.8129C98.8454 66.5342 99.0021 66.1563 99.0026 65.7622V2.89493C99.0022 2.50077 98.8454 2.12288 98.5667 1.84416C98.2879 1.56545 97.91 1.40866 97.5159 1.4082H5.3389Z" fill="#E6E6E6"/>
<path d="M7.4628 3.53174C7.06863 3.53218 6.69073 3.68896 6.41201 3.96768C6.13329 4.2464 5.97652 4.6243 5.97607 5.01846V63.6378C5.97652 64.032 6.13329 64.4099 6.41201 64.6886C6.69073 64.9673 7.06863 65.1241 7.4628 65.1245H95.392C95.7862 65.1241 96.1641 64.9673 96.4428 64.6886C96.7215 64.4099 96.8783 64.032 96.8787 63.6378V5.01846C96.8783 4.6243 96.7215 4.24641 96.4428 3.9677C96.1641 3.68898 95.7862 3.5322 95.392 3.53174H7.4628Z" fill="white"/>
<path opacity="0.1" d="M88.5927 16.3506C86.5707 15.5612 84.3904 17.5411 83.9167 19.6594C83.443 21.7778 84.0492 23.9686 84.1827 26.1351C84.3162 28.3017 83.7483 30.8175 81.8153 31.8052C79.5926 32.941 76.9853 31.4644 74.4994 31.2395C73.2584 31.141 72.0128 31.3587 70.8788 31.8724C69.7449 32.3861 68.7598 33.1789 68.0155 34.1768C65.9653 36.9895 66.0696 41.0736 63.6435 43.5693C61.5355 45.7377 58.1005 46.02 55.1516 45.3495C52.2028 44.6789 49.4922 43.2222 46.5926 42.3634C43.693 41.5046 40.3367 41.3253 37.8518 43.0489C35.2579 44.8484 34.1035 48.3755 31.2557 49.7384C29.2422 50.702 26.8587 50.3344 24.704 49.7509C22.5492 49.1674 20.3765 48.3801 18.152 48.5674C15.9276 48.7547 13.6086 50.2895 13.4323 52.5149L89.778 52.3017C90.1248 42.2247 90.4717 32.1477 90.8185 22.0707C90.8938 19.8816 90.6331 17.1473 88.5927 16.3506Z" fill="#28705A"/>
<path d="M13.0671 52.2666C12.9545 52.2666 12.8464 52.2218 12.7668 52.1421C12.6871 52.0625 12.6423 51.9544 12.6423 51.8418C12.6423 51.7291 12.6871 51.6211 12.7668 51.5414C12.8464 51.4618 12.9545 51.417 13.0671 51.417C32.6951 51.417 51.414 47.487 65.7758 40.3508C79.2428 33.659 87.8246 24.5848 89.3205 15.4545C89.3294 15.3994 89.349 15.3466 89.3783 15.299C89.4076 15.2515 89.446 15.2102 89.4913 15.1775C89.5365 15.1448 89.5878 15.1214 89.6422 15.1086C89.6965 15.0957 89.7528 15.0937 89.8079 15.1027C89.8631 15.1116 89.9159 15.1313 89.9634 15.1607C90.0108 15.1901 90.0521 15.2285 90.0847 15.2739C90.1173 15.3192 90.1406 15.3705 90.1534 15.4248C90.1662 15.4792 90.1681 15.5356 90.159 15.5907L90.1589 15.5918C89.3819 20.3346 86.8596 24.987 82.6624 29.4198C78.5229 33.7917 72.9686 37.7255 66.1539 41.1115C51.677 48.305 32.8237 52.2666 13.0671 52.2666Z" fill="#28705A"/>
<path d="M93.6929 52.3524H12.5602V12.2686H12.985V51.9276H93.6929V52.3524Z" fill="#E6E6E6"/>
</g>
<defs>
<clipPath id="clip0_239_924">
<rect width="98.9734" height="72" fill="white"/>
</clipPath>
</defs>
</svg>
