<svg width="358" height="36" viewBox="0 0 358 36" fill="none" xmlns="http://www.w3.org/2000/svg">
<path d="M46.1897 2.16291L36.2885 35.5675H30.0882L23.0708 10.2858L15.6209 35.5675L9.46866 35.6156L1.27725e-05 2.16291H5.81578L12.737 29.3673L20.235 2.16291H26.3873L33.3566 29.2231L40.3259 2.16291H46.1897ZM64.1569 8.65158C66.1755 8.65158 67.9699 9.08415 69.54 9.94931C71.1422 10.8145 72.3919 12.0962 73.2891 13.7944C74.2183 15.4927 74.6829 17.5435 74.6829 19.9467V35.5675H69.2517V20.7638C69.2517 18.3926 68.6589 16.5822 67.4733 15.3325C66.2877 14.0508 64.6695 13.4099 62.6188 13.4099C60.5681 13.4099 58.9339 14.0508 57.7162 15.3325C56.5307 16.5822 55.9379 18.3926 55.9379 20.7638V35.5675H50.4586V1.9099e-05H55.9379V12.1603C56.8671 11.0388 58.0367 10.1736 59.4466 9.5648C60.8885 8.95598 62.4586 8.65158 64.1569 8.65158ZM79.5954 22.2057C79.5954 19.5461 80.1401 17.191 81.2295 15.1402C82.351 13.0895 83.857 11.5034 85.7476 10.3819C87.6701 9.22835 89.785 8.65158 92.092 8.65158C94.1748 8.65158 95.9852 9.06813 97.5233 9.90125C99.0934 10.7023 100.343 11.7117 101.272 12.9293V9.08416H106.8V35.5675H101.272V31.6263C100.343 32.8759 99.0774 33.9173 97.4752 34.7504C95.8731 35.5836 94.0467 36.0001 91.9959 36.0001C89.7209 36.0001 87.6381 35.4233 85.7476 34.2698C83.857 33.0842 82.351 31.45 81.2295 29.3673C80.1401 27.2524 79.5954 24.8652 79.5954 22.2057ZM101.272 22.3018C101.272 20.4754 100.888 18.8893 100.119 17.5435C99.3818 16.1977 98.4045 15.1723 97.1869 14.4673C95.9692 13.7624 94.6555 13.4099 93.2456 13.4099C91.8357 13.4099 90.5219 13.7624 89.3043 14.4673C88.0867 15.1402 87.0934 16.1496 86.3243 17.4954C85.5874 18.8091 85.2189 20.3792 85.2189 22.2057C85.2189 24.0321 85.5874 25.6343 86.3243 27.0121C87.0934 28.3899 88.0867 29.4474 89.3043 30.1843C90.554 30.8893 91.8677 31.2418 93.2456 31.2418C94.6555 31.2418 95.9692 30.8893 97.1869 30.1843C98.4045 29.4794 99.3818 28.454 100.119 27.1082C100.888 25.7304 101.272 24.1283 101.272 22.3018ZM120.139 13.5541V28.2137C120.139 29.207 120.363 29.928 120.812 30.3766C121.292 30.7932 122.093 31.0014 123.215 31.0014H126.579V35.5675H122.254C119.786 35.5675 117.896 34.9908 116.582 33.8372C115.268 32.6837 114.611 30.8092 114.611 28.2137V13.5541H111.487V9.08416H114.611V2.49936H120.139V9.08416H126.579V13.5541H120.139ZM179.182 9.08416L170.963 35.5675H165.195L159.86 16.0054L154.525 35.5675H148.757L140.49 9.08416H146.066L151.593 30.3766L157.216 9.08416H162.936L168.319 30.2805L173.799 9.08416H179.182ZM207.299 21.677C207.299 22.6703 207.235 23.5675 207.106 24.3686H186.871C187.032 26.4834 187.817 28.1817 189.227 29.4634C190.636 30.7451 192.367 31.386 194.418 31.386C197.365 31.386 199.448 30.1523 200.666 27.685H206.578C205.777 30.1203 204.319 32.1229 202.204 33.693C200.121 35.2311 197.526 36.0001 194.418 36.0001C191.886 36.0001 189.611 35.4394 187.592 34.3179C185.606 33.1643 184.036 31.5622 182.882 29.5114C181.761 27.4287 181.2 25.0255 181.2 22.3018C181.2 19.5782 181.745 17.191 182.834 15.1402C183.956 13.0575 185.51 11.4553 187.496 10.3338C189.515 9.21233 191.822 8.65158 194.418 8.65158C196.917 8.65158 199.144 9.19631 201.098 10.2858C203.053 11.3752 204.575 12.9133 205.665 14.8999C206.754 16.8545 207.299 19.1136 207.299 21.677ZM201.579 19.9467C201.547 17.928 200.826 16.3098 199.416 15.0922C198.006 13.8746 196.26 13.2657 194.177 13.2657C192.287 13.2657 190.668 13.8746 189.323 15.0922C187.977 16.2778 187.176 17.8959 186.919 19.9467H201.579Z" fill="black"/>
<path d="M253.466 2.16291L240.921 35.5675H234.577L221.984 2.16291H227.848L237.749 29.944L247.698 2.16291H253.466ZM255.972 22.2057C255.972 19.5461 256.516 17.191 257.606 15.1402C258.727 13.0895 260.233 11.5034 262.124 10.3819C264.046 9.22835 266.161 8.65158 268.468 8.65158C270.551 8.65158 272.362 9.06813 273.9 9.90125C275.47 10.7023 276.719 11.7117 277.649 12.9293V9.08416H283.176V35.5675H277.649V31.6263C276.719 32.8759 275.454 33.9173 273.852 34.7504C272.249 35.5836 270.423 36.0001 268.372 36.0001C266.097 36.0001 264.014 35.4233 262.124 34.2698C260.233 33.0842 258.727 31.45 257.606 29.3673C256.516 27.2524 255.972 24.8652 255.972 22.2057ZM277.649 22.3018C277.649 20.4754 277.264 18.8893 276.495 17.5435C275.758 16.1977 274.781 15.1723 273.563 14.4673C272.345 13.7624 271.032 13.4099 269.622 13.4099C268.212 13.4099 266.898 13.7624 265.681 14.4673C264.463 15.1402 263.47 16.1496 262.701 17.4954C261.964 18.8091 261.595 20.3792 261.595 22.2057C261.595 24.0321 261.964 25.6343 262.701 27.0121C263.47 28.3899 264.463 29.4474 265.681 30.1843C266.93 30.8893 268.244 31.2418 269.622 31.2418C271.032 31.2418 272.345 30.8893 273.563 30.1843C274.781 29.4794 275.758 28.454 276.495 27.1082C277.264 25.7304 277.649 24.1283 277.649 22.3018ZM295.602 1.9099e-05V35.5675H290.122V1.9099e-05H295.602ZM326.529 9.08416V35.5675H321.05V32.4434C320.185 33.5328 319.047 34.398 317.638 35.0388C316.26 35.6476 314.786 35.9521 313.216 35.9521C311.133 35.9521 309.258 35.5195 307.592 34.6543C305.958 33.7892 304.66 32.5074 303.699 30.8092C302.77 29.1109 302.305 27.0602 302.305 24.657V9.08416H307.736V23.8399C307.736 26.211 308.329 28.0375 309.515 29.3192C310.7 30.5689 312.318 31.1937 314.369 31.1937C316.42 31.1937 318.038 30.5689 319.224 29.3192C320.441 28.0375 321.05 26.211 321.05 23.8399V9.08416H326.529ZM357.781 21.677C357.781 22.6703 357.717 23.5675 357.589 24.3686H337.354C337.514 26.4834 338.299 28.1817 339.709 29.4634C341.119 30.7451 342.849 31.386 344.9 31.386C347.848 31.386 349.931 30.1523 351.148 27.685H357.06C356.259 30.1203 354.801 32.1229 352.686 33.693C350.603 35.2311 348.008 36.0001 344.9 36.0001C342.368 36.0001 340.093 35.4394 338.075 34.3179C336.088 33.1643 334.518 31.5622 333.364 29.5114C332.243 27.4287 331.682 25.0255 331.682 22.3018C331.682 19.5782 332.227 17.191 333.316 15.1402C334.438 13.0575 335.992 11.4553 337.979 10.3338C339.997 9.21233 342.304 8.65158 344.9 8.65158C347.399 8.65158 349.626 9.19631 351.581 10.2858C353.535 11.3752 355.057 12.9133 356.147 14.8999C357.236 16.8545 357.781 19.1136 357.781 21.677ZM352.061 19.9467C352.029 17.928 351.308 16.3098 349.898 15.0922C348.489 13.8746 346.742 13.2657 344.659 13.2657C342.769 13.2657 341.151 13.8746 339.805 15.0922C338.459 16.2778 337.658 17.8959 337.402 19.9467H352.061Z" fill="url(#paint0_linear_231_892)"/>
<defs>
<linearGradient id="paint0_linear_231_892" x1="231.397" y1="18.5448" x2="359.568" y2="18.5448" gradientUnits="userSpaceOnUse">
<stop stop-color="#28705A"/>
<stop offset="1" stop-color="#AE8631"/>
</linearGradient>
</defs>
</svg>
