<svg width="580" height="38" viewBox="0 0 580 38" fill="none" xmlns="http://www.w3.org/2000/svg">
<path d="M46.1426 3.69732L36.2515 37.0679H30.0575L23.0473 11.8119L15.6049 37.0679L9.45901 37.1159L1.27594e-05 3.69732H5.80985L12.724 30.8739L20.2144 3.69732H26.3604L33.3226 30.7299L40.2848 3.69732H46.1426ZM64.0914 10.1794C66.1081 10.1794 67.9006 10.6115 69.4691 11.4758C71.0696 12.3401 72.318 13.6205 73.2143 15.317C74.1426 17.0135 74.6067 19.0622 74.6067 21.4629V37.0679H69.181V22.2792C69.181 19.9104 68.5888 18.1019 67.4045 16.8535C66.2201 15.5731 64.6036 14.9329 62.5549 14.9329C60.5063 14.9329 58.8738 15.5731 57.6574 16.8535C56.473 18.1019 55.8808 19.9104 55.8808 22.2792V37.0679H50.4071V1.53664H55.8808V13.6845C56.8091 12.5641 57.9775 11.6999 59.3859 11.0917C60.8264 10.4835 62.3949 10.1794 64.0914 10.1794ZM79.5142 23.7197C79.5142 21.0628 80.0583 18.7101 81.1467 16.6614C82.267 14.6128 83.7715 13.0283 85.6601 11.9079C87.5807 10.7556 89.6934 10.1794 91.9981 10.1794C94.0788 10.1794 95.8873 10.5955 97.4238 11.4278C98.9923 12.228 100.241 13.2363 101.169 14.4527V10.6115H106.691V37.0679H101.169V33.1306C100.241 34.379 98.9763 35.4194 97.3758 36.2516C95.7753 37.0839 93.9507 37.5 91.9021 37.5C89.6294 37.5 87.5487 36.9238 85.6601 35.7715C83.7715 34.5871 82.267 32.9546 81.1467 30.8739C80.0583 28.7613 79.5142 26.3765 79.5142 23.7197ZM101.169 23.8157C101.169 21.9911 100.785 20.4066 100.017 19.0622C99.2804 17.7178 98.3041 16.6934 97.0877 15.9892C95.8713 15.285 94.5589 14.9329 93.1505 14.9329C91.742 14.9329 90.4296 15.285 89.2132 15.9892C87.9968 16.6614 87.0045 17.6697 86.2363 19.0142C85.5001 20.3266 85.1319 21.8951 85.1319 23.7197C85.1319 25.5442 85.5001 27.1447 86.2363 28.5212C87.0045 29.8976 87.9968 30.9539 89.2132 31.6902C90.4616 32.3944 91.774 32.7465 93.1505 32.7465C94.5589 32.7465 95.8713 32.3944 97.0877 31.6902C98.3041 30.986 99.2804 29.9616 100.017 28.6172C100.785 27.2408 101.169 25.6403 101.169 23.8157ZM120.016 15.0769V29.7216C120.016 30.7139 120.24 31.4341 120.688 31.8822C121.169 32.2984 121.969 32.5064 123.089 32.5064H126.45V37.0679H122.129C119.664 37.0679 117.776 36.4917 116.463 35.3393C115.151 34.187 114.494 32.3144 114.494 29.7216V15.0769H111.373V10.6115H114.494V4.03343H120.016V10.6115H126.45V15.0769H120.016ZM178.615 3.69732V37.0679H173.141V14.2126L162.962 37.0679H159.169L148.942 14.2126V37.0679H143.468V3.69732H149.374L161.089 29.8656L172.757 3.69732H178.615ZM183.735 23.7197C183.735 21.0628 184.279 18.7101 185.367 16.6614C186.488 14.6128 187.992 13.0283 189.881 11.9079C191.801 10.7556 193.914 10.1794 196.219 10.1794C198.299 10.1794 200.108 10.5955 201.644 11.4278C203.213 12.228 204.461 13.2363 205.389 14.4527V10.6115H210.911V37.0679H205.389V33.1306C204.461 34.379 203.197 35.4194 201.596 36.2516C199.996 37.0839 198.171 37.5 196.123 37.5C193.85 37.5 191.769 36.9238 189.881 35.7715C187.992 34.5871 186.488 32.9546 185.367 30.8739C184.279 28.7613 183.735 26.3765 183.735 23.7197ZM205.389 23.8157C205.389 21.9911 205.005 20.4066 204.237 19.0622C203.501 17.7178 202.525 16.6934 201.308 15.9892C200.092 15.285 198.779 14.9329 197.371 14.9329C195.963 14.9329 194.65 15.285 193.434 15.9892C192.217 16.6614 191.225 17.6697 190.457 19.0142C189.721 20.3266 189.352 21.8951 189.352 23.7197C189.352 25.5442 189.721 27.1447 190.457 28.5212C191.225 29.8976 192.217 30.9539 193.434 31.6902C194.682 32.3944 195.995 32.7465 197.371 32.7465C198.779 32.7465 200.092 32.3944 201.308 31.6902C202.525 30.986 203.501 29.9616 204.237 28.6172C205.005 27.2408 205.389 25.6403 205.389 23.8157ZM228.318 23.8637L240.514 37.0679H233.12L223.324 25.6883V37.0679H217.851V1.53664H223.324V22.1832L232.927 10.6115H240.514L228.318 23.8637ZM268.435 23.1915C268.435 24.1838 268.371 25.0801 268.243 25.8803H248.028C248.188 27.993 248.973 29.6895 250.381 30.9699C251.79 32.2504 253.518 32.8906 255.567 32.8906C258.512 32.8906 260.592 31.6582 261.809 29.1934H267.715C266.914 31.6262 265.458 33.6268 263.345 35.1953C261.265 36.7318 258.672 37.5 255.567 37.5C253.038 37.5 250.765 36.9398 248.749 35.8195C246.764 34.6671 245.195 33.0666 244.043 31.018C242.923 28.9373 242.363 26.5365 242.363 23.8157C242.363 21.0948 242.907 18.7101 243.995 16.6614C245.115 14.5808 246.668 12.9803 248.653 11.8599C250.669 10.7395 252.974 10.1794 255.567 10.1794C258.064 10.1794 260.288 10.7235 262.241 11.8119C264.193 12.9002 265.714 14.4367 266.802 16.4213C267.891 18.374 268.435 20.6307 268.435 23.1915ZM262.721 21.4629C262.689 19.4463 261.969 17.8298 260.56 16.6134C259.152 15.397 257.407 14.7888 255.327 14.7888C253.438 14.7888 251.822 15.397 250.477 16.6134C249.133 17.7978 248.332 19.4143 248.076 21.4629H262.721ZM283.174 37.5C281.094 37.5 279.221 37.1319 277.557 36.3957C275.924 35.6274 274.628 34.6031 273.667 33.3227C272.707 32.0103 272.195 30.5538 272.131 28.9533H277.797C277.893 30.0737 278.421 31.018 279.381 31.7862C280.374 32.5224 281.606 32.8906 283.078 32.8906C284.615 32.8906 285.799 32.6025 286.632 32.0263C287.496 31.4181 287.928 30.6498 287.928 29.7216C287.928 28.7292 287.448 27.993 286.488 27.5129C285.559 27.0327 284.071 26.5045 282.022 25.9284C280.037 25.3842 278.421 24.856 277.173 24.3439C275.924 23.8317 274.836 23.0474 273.908 21.9911C273.011 20.9348 272.563 19.5423 272.563 17.8138C272.563 16.4053 272.979 15.1249 273.812 13.9726C274.644 12.7882 275.828 11.8599 277.365 11.1877C278.933 10.5155 280.726 10.1794 282.742 10.1794C285.751 10.1794 288.168 10.9476 289.993 12.4841C291.849 13.9886 292.842 16.0532 292.97 18.6781H287.496C287.4 17.4937 286.92 16.5494 286.055 15.8452C285.191 15.1409 284.023 14.7888 282.55 14.7888C281.11 14.7888 280.005 15.0609 279.237 15.6051C278.469 16.1493 278.085 16.8695 278.085 17.7658C278.085 18.47 278.341 19.0622 278.853 19.5423C279.365 20.0225 279.989 20.4066 280.726 20.6947C281.462 20.9508 282.55 21.2869 283.991 21.703C285.911 22.2152 287.48 22.7433 288.696 23.2875C289.945 23.7997 291.017 24.5679 291.913 25.5922C292.81 26.6166 293.274 27.977 293.306 29.6735C293.306 31.178 292.89 32.5224 292.057 33.7068C291.225 34.8912 290.041 35.8195 288.504 36.4917C287 37.1639 285.223 37.5 283.174 37.5ZM316.618 3.69732V24.9681C316.618 27.4969 317.275 29.4015 318.587 30.6819C319.931 31.9623 321.788 32.6025 324.157 32.6025C326.558 32.6025 328.414 31.9623 329.727 30.6819C331.071 29.4015 331.743 27.4969 331.743 24.9681V3.69732H337.217V24.872C337.217 27.5929 336.625 29.8976 335.44 31.7862C334.256 33.6748 332.671 35.0833 330.687 36.0115C328.702 36.9398 326.51 37.404 324.109 37.404C321.708 37.404 319.515 36.9398 317.531 36.0115C315.578 35.0833 314.026 33.6748 312.873 31.7862C311.721 29.8976 311.145 27.5929 311.145 24.872V3.69732H316.618ZM353.697 37.5C351.616 37.5 349.744 37.1319 348.079 36.3957C346.446 35.6274 345.15 34.6031 344.19 33.3227C343.229 32.0103 342.717 30.5538 342.653 28.9533H348.319C348.415 30.0737 348.943 31.018 349.904 31.7862C350.896 32.5224 352.128 32.8906 353.601 32.8906C355.137 32.8906 356.322 32.6025 357.154 32.0263C358.018 31.4181 358.45 30.6498 358.45 29.7216C358.45 28.7292 357.97 27.993 357.01 27.5129C356.082 27.0327 354.593 26.5045 352.544 25.9284C350.56 25.3842 348.943 24.856 347.695 24.3439C346.446 23.8317 345.358 23.0474 344.43 21.9911C343.534 20.9348 343.085 19.5423 343.085 17.8138C343.085 16.4053 343.502 15.1249 344.334 13.9726C345.166 12.7882 346.35 11.8599 347.887 11.1877C349.455 10.5155 351.248 10.1794 353.265 10.1794C356.274 10.1794 358.69 10.9476 360.515 12.4841C362.372 13.9886 363.364 16.0532 363.492 18.6781H358.018C357.922 17.4937 357.442 16.5494 356.578 15.8452C355.713 15.1409 354.545 14.7888 353.073 14.7888C351.632 14.7888 350.528 15.0609 349.76 15.6051C348.991 16.1493 348.607 16.8695 348.607 17.7658C348.607 18.47 348.863 19.0622 349.375 19.5423C349.888 20.0225 350.512 20.4066 351.248 20.6947C351.984 20.9508 353.073 21.2869 354.513 21.703C356.434 22.2152 358.002 22.7433 359.219 23.2875C360.467 23.7997 361.539 24.5679 362.436 25.5922C363.332 26.6166 363.796 27.977 363.828 29.6735C363.828 31.178 363.412 32.5224 362.58 33.7068C361.747 34.8912 360.563 35.8195 359.026 36.4917C357.522 37.1639 355.745 37.5 353.697 37.5Z" fill="black"/>
<path d="M392.614 3.69732C396.168 3.69732 399.273 4.38554 401.929 5.76197C404.618 7.1064 406.683 9.05902 408.123 11.6198C409.596 14.1486 410.332 17.1096 410.332 20.5026C410.332 23.8957 409.596 26.8406 408.123 29.3374C406.683 31.8342 404.618 33.7548 401.929 35.0993C399.273 36.4117 396.168 37.0679 392.614 37.0679H381.715V3.69732H392.614ZM392.614 32.6025C396.52 32.6025 399.513 31.5461 401.593 29.4335C403.674 27.3208 404.714 24.3439 404.714 20.5026C404.714 16.6294 403.674 13.6045 401.593 11.4278C399.513 9.25108 396.52 8.16273 392.614 8.16273H387.189V32.6025H392.614ZM418.292 7.1064C417.3 7.1064 416.467 6.77029 415.795 6.09808C415.123 5.42587 414.787 4.5936 414.787 3.60129C414.787 2.60898 415.123 1.77671 415.795 1.1045C416.467 0.432288 417.3 0.0961808 418.292 0.0961808C419.252 0.0961808 420.068 0.432288 420.741 1.1045C421.413 1.77671 421.749 2.60898 421.749 3.60129C421.749 4.5936 421.413 5.42587 420.741 6.09808C420.068 6.77029 419.252 7.1064 418.292 7.1064ZM420.981 10.6115V37.0679H415.507V10.6115H420.981ZM439.009 15.0769H434.111V37.0679H428.589V15.0769H425.468V10.6115H428.589V8.73892C428.589 5.69795 429.39 3.48925 430.99 2.11282C432.623 0.704374 435.167 0.000151682 438.625 0.000151682V4.56159C436.96 4.56159 435.792 4.8817 435.119 5.5219C434.447 6.13009 434.111 7.20243 434.111 8.73892V10.6115H439.009V15.0769ZM454.701 15.0769H449.804V37.0679H444.282V15.0769H441.161V10.6115H444.282V8.73892C444.282 5.69795 445.082 3.48925 446.683 2.11282C448.315 0.704374 450.86 0.000151682 454.317 0.000151682V4.56159C452.652 4.56159 451.484 4.8817 450.812 5.5219C450.14 6.13009 449.804 7.20243 449.804 8.73892V10.6115H454.701V15.0769ZM483.55 23.1915C483.55 24.1838 483.486 25.0801 483.358 25.8803H463.143C463.303 27.993 464.088 29.6895 465.496 30.9699C466.904 32.2504 468.633 32.8906 470.682 32.8906C473.627 32.8906 475.707 31.6582 476.924 29.1934H482.829C482.029 31.6262 480.573 33.6268 478.46 35.1953C476.379 36.7318 473.787 37.5 470.682 37.5C468.153 37.5 465.88 36.9398 463.863 35.8195C461.879 34.6671 460.31 33.0666 459.158 31.018C458.038 28.9373 457.477 26.5365 457.477 23.8157C457.477 21.0948 458.022 18.7101 459.11 16.6614C460.23 14.5808 461.783 12.9803 463.767 11.8599C465.784 10.7395 468.089 10.1794 470.682 10.1794C473.178 10.1794 475.403 10.7235 477.356 11.8119C479.308 12.9002 480.829 14.4367 481.917 16.4213C483.006 18.374 483.55 20.6307 483.55 23.1915ZM477.836 21.4629C477.804 19.4463 477.084 17.8298 475.675 16.6134C474.267 15.397 472.522 14.7888 470.442 14.7888C468.553 14.7888 466.936 15.397 465.592 16.6134C464.248 17.7978 463.447 19.4143 463.191 21.4629H477.836ZM494.16 14.4527C494.96 13.1083 496.017 12.068 497.329 11.3317C498.674 10.5635 500.258 10.1794 502.083 10.1794V15.8452H500.69C498.545 15.8452 496.913 16.3893 495.793 17.4777C494.704 18.566 494.16 20.4546 494.16 23.1435V37.0679H488.686V10.6115H494.16V14.4527ZM531.112 23.1915C531.112 24.1838 531.048 25.0801 530.92 25.8803H510.705C510.865 27.993 511.649 29.6895 513.058 30.9699C514.466 32.2504 516.195 32.8906 518.244 32.8906C521.189 32.8906 523.269 31.6582 524.486 29.1934H530.391C529.591 31.6262 528.135 33.6268 526.022 35.1953C523.941 36.7318 521.349 37.5 518.244 37.5C515.715 37.5 513.442 36.9398 511.425 35.8195C509.441 34.6671 507.872 33.0666 506.72 31.018C505.6 28.9373 505.039 26.5365 505.039 23.8157C505.039 21.0948 505.584 18.7101 506.672 16.6614C507.792 14.5808 509.345 12.9803 511.329 11.8599C513.346 10.7395 515.651 10.1794 518.244 10.1794C520.74 10.1794 522.965 10.7235 524.918 11.8119C526.87 12.9002 528.391 14.4367 529.479 16.4213C530.567 18.374 531.112 20.6307 531.112 23.1915ZM525.398 21.4629C525.366 19.4463 524.646 17.8298 523.237 16.6134C521.829 15.397 520.084 14.7888 518.003 14.7888C516.115 14.7888 514.498 15.397 513.154 16.6134C511.81 17.7978 511.009 19.4143 510.753 21.4629H525.398ZM549.596 10.1794C551.677 10.1794 553.534 10.6115 555.166 11.4758C556.831 12.3401 558.127 13.6205 559.055 15.317C559.984 17.0135 560.448 19.0622 560.448 21.4629V37.0679H555.022V22.2792C555.022 19.9104 554.43 18.1019 553.246 16.8535C552.061 15.5731 550.445 14.9329 548.396 14.9329C546.347 14.9329 544.715 15.5731 543.499 16.8535C542.314 18.1019 541.722 19.9104 541.722 22.2792V37.0679H536.248V10.6115H541.722V13.6365C542.618 12.5481 543.755 11.6999 545.131 11.0917C546.54 10.4835 548.028 10.1794 549.596 10.1794ZM573.566 15.0769V29.7216C573.566 30.7139 573.79 31.4341 574.238 31.8822C574.718 32.2984 575.519 32.5064 576.639 32.5064H580V37.0679H575.679C573.214 37.0679 571.325 36.4917 570.013 35.3393C568.7 34.187 568.044 32.3144 568.044 29.7216V15.0769H564.923V10.6115H568.044V4.03343H573.566V10.6115H580V15.0769H573.566Z" fill="url(#paint0_linear_243_942)"/>
<defs>
<linearGradient id="paint0_linear_243_942" x1="388.711" y1="20.0625" x2="582.272" y2="20.0625" gradientUnits="userSpaceOnUse">
<stop stop-color="#AE8631"/>
<stop offset="1" stop-color="#28705A"/>
</linearGradient>
</defs>
</svg>
