<svg width="505" height="50" viewBox="0 0 505 50" fill="none" xmlns="http://www.w3.org/2000/svg">
<path d="M46.207 3.60612L36.3021 37.0233H30.0995L23.0795 11.732L15.6267 37.0233L9.47221 37.0713L1.27772e-05 3.60612H5.81796L12.7418 30.8207L20.2426 3.60612H26.3971L33.3691 30.6764L40.341 3.60612H46.207ZM64.1809 10.0972C66.2003 10.0972 67.9954 10.53 69.5661 11.3954C71.1688 12.2609 72.419 13.5431 73.3165 15.242C74.2461 16.9409 74.7109 18.9924 74.7109 21.3965V37.0233H69.2776V22.2139C69.2776 19.8419 68.6846 18.0308 67.4985 16.7806C66.3125 15.4985 64.6937 14.8574 62.6422 14.8574C60.5907 14.8574 58.9559 15.4985 57.7379 16.7806C56.5518 18.0308 55.9588 19.8419 55.9588 22.2139V37.0233H50.4774V1.44243H55.9588V13.6072C56.8884 12.4853 58.0584 11.6198 59.4688 11.0108C60.9113 10.4017 62.482 10.0972 64.1809 10.0972ZM79.6251 23.6564C79.6251 20.9959 80.1701 18.6398 81.2599 16.5883C82.3819 14.5368 83.8884 12.9501 85.7797 11.8282C87.703 10.6742 89.8186 10.0972 92.1265 10.0972C94.2101 10.0972 96.0212 10.5139 97.5598 11.3474C99.1305 12.1487 100.381 13.1585 101.31 14.3765V10.53H106.84V37.0233H101.31V33.0805C100.381 34.3307 99.1145 35.3724 97.5117 36.2059C95.909 37.0393 94.0819 37.456 92.0304 37.456C89.7545 37.456 87.6709 36.879 85.7797 35.725C83.8884 34.539 82.3819 32.9042 81.2599 30.8207C80.1701 28.705 79.6251 26.317 79.6251 23.6564ZM101.31 23.7526C101.31 21.9254 100.926 20.3387 100.156 18.9924C99.419 17.6461 98.4413 16.6204 97.2232 15.9152C96.0052 15.21 94.6909 14.8574 93.2805 14.8574C91.8701 14.8574 90.5558 15.21 89.3378 15.9152C88.1197 16.5883 87.126 17.598 86.3567 18.9443C85.6194 20.2586 85.2508 21.8293 85.2508 23.6564C85.2508 25.4835 85.6194 27.0863 86.3567 28.4646C87.126 29.843 88.1197 30.9008 89.3378 31.6381C90.5879 32.3433 91.9021 32.6959 93.2805 32.6959C94.6909 32.6959 96.0052 32.3433 97.2232 31.6381C98.4413 30.9328 99.419 29.9071 100.156 28.5608C100.926 27.1824 101.31 25.5797 101.31 23.7526ZM120.184 15.0016V29.6667C120.184 30.6604 120.408 31.3816 120.857 31.8304C121.338 32.2471 122.139 32.4555 123.261 32.4555H126.627V37.0233H122.299C119.831 37.0233 117.94 36.4463 116.626 35.2923C115.311 34.1383 114.654 32.2631 114.654 29.6667V15.0016H111.529V10.53H114.654V3.9427H120.184V10.53H126.627V15.0016H120.184ZM158.91 37.3598C155.801 37.3598 152.932 36.6386 150.303 35.1961C147.707 33.7216 145.639 31.6861 144.101 29.0897C142.594 26.4612 141.841 23.5122 141.841 20.2426C141.841 16.973 142.594 14.04 144.101 11.4435C145.639 8.84709 147.707 6.82763 150.303 5.38517C152.932 3.91064 155.801 3.17338 158.91 3.17338C162.051 3.17338 164.92 3.91064 167.517 5.38517C170.145 6.82763 172.213 8.84709 173.719 11.4435C175.226 14.04 175.979 16.973 175.979 20.2426C175.979 23.5122 175.226 26.4612 173.719 29.0897C172.213 31.6861 170.145 33.7216 167.517 35.1961C164.92 36.6386 162.051 37.3598 158.91 37.3598ZM158.91 32.5997C161.122 32.5997 163.093 32.1028 164.824 31.1091C166.555 30.0834 167.901 28.6409 168.863 26.7817C169.857 24.8905 170.354 22.7108 170.354 20.2426C170.354 17.7743 169.857 15.6106 168.863 13.7515C167.901 11.8923 166.555 10.4659 164.824 9.47215C163.093 8.47846 161.122 7.98161 158.91 7.98161C156.698 7.98161 154.727 8.47846 152.996 9.47215C151.265 10.4659 149.903 11.8923 148.909 13.7515C147.947 15.6106 147.467 17.7743 147.467 20.2426C147.467 22.7108 147.947 24.8905 148.909 26.7817C149.903 28.6409 151.265 30.0834 152.996 31.1091C154.727 32.1028 156.698 32.5997 158.91 32.5997ZM205.116 10.53V37.0233H199.634V33.8979C198.769 34.9878 197.631 35.8533 196.22 36.4944C194.842 37.1034 193.368 37.4079 191.797 37.4079C189.713 37.4079 187.838 36.9752 186.171 36.1097C184.537 35.2442 183.238 33.962 182.277 32.2631C181.347 30.5642 180.882 28.5127 180.882 26.1086V10.53H186.316V25.2912C186.316 27.6633 186.909 29.4904 188.095 30.7726C189.281 32.0227 190.899 32.6478 192.951 32.6478C195.002 32.6478 196.621 32.0227 197.807 30.7726C199.025 29.4904 199.634 27.6633 199.634 25.2912V10.53H205.116ZM217.579 14.3765C218.38 13.0302 219.438 11.9885 220.752 11.2512C222.099 10.4819 223.685 10.0972 225.512 10.0972V15.7709H224.118C221.97 15.7709 220.336 16.3159 219.214 17.4057C218.124 18.4956 217.579 20.3868 217.579 23.0794V37.0233H212.098V10.53H217.579V14.3765ZM240.713 20.2426C240.713 16.973 241.466 14.04 242.973 11.4435C244.512 8.84709 246.579 6.82763 249.176 5.38517C251.804 3.91064 254.673 3.17338 257.782 3.17338C261.34 3.17338 264.498 4.05489 267.254 5.81791C270.043 7.54887 272.063 10.0171 273.313 13.2226H266.726C265.86 11.4596 264.658 10.1453 263.119 9.27983C261.581 8.41435 259.802 7.98161 257.782 7.98161C255.57 7.98161 253.599 8.47846 251.868 9.47215C250.137 10.4659 248.775 11.8923 247.781 13.7515C246.82 15.6106 246.339 17.7743 246.339 20.2426C246.339 22.7108 246.82 24.8745 247.781 26.7337C248.775 28.5928 250.137 30.0353 251.868 31.0611C253.599 32.0548 255.57 32.5516 257.782 32.5516C259.802 32.5516 261.581 32.1189 263.119 31.2534C264.658 30.3879 265.86 29.0737 266.726 27.3107H273.313C272.063 30.5161 270.043 32.9844 267.254 34.7153C264.498 36.4463 261.34 37.3118 257.782 37.3118C254.641 37.3118 251.772 36.5905 249.176 35.1481C246.579 33.6735 244.512 31.6381 242.973 29.0416C241.466 26.4452 240.713 23.5122 240.713 20.2426ZM284.96 1.44243V37.0233H279.478V1.44243H284.96ZM294.695 7.01996C293.701 7.01996 292.867 6.68339 292.194 6.01023C291.521 5.33708 291.185 4.50366 291.185 3.50996C291.185 2.51626 291.521 1.68284 292.194 1.00969C292.867 0.336535 293.701 -4.10782e-05 294.695 -4.10782e-05C295.656 -4.10782e-05 296.474 0.336535 297.147 1.00969C297.82 1.68284 298.157 2.51626 298.157 3.50996C298.157 4.50366 297.82 5.33708 297.147 6.01023C296.474 6.68339 295.656 7.01996 294.695 7.01996ZM297.387 10.53V37.0233H291.906V10.53H297.387ZM328.615 23.1275C328.615 24.1212 328.551 25.0187 328.423 25.8201H308.18C308.34 27.9357 309.126 29.6346 310.536 30.9168C311.946 32.199 313.677 32.8401 315.729 32.8401C318.678 32.8401 320.761 31.606 321.98 29.1378H327.894C327.092 31.5739 325.634 33.5774 323.518 35.1481C321.435 36.6867 318.838 37.456 315.729 37.456C313.196 37.456 310.921 36.895 308.901 35.7731C306.914 34.6191 305.343 33.0164 304.189 30.9649C303.067 28.8813 302.506 26.4772 302.506 23.7526C302.506 21.0279 303.051 18.6398 304.141 16.5883C305.263 14.5048 306.818 12.902 308.805 11.7801C310.824 10.6582 313.132 10.0972 315.729 10.0972C318.229 10.0972 320.457 10.6422 322.412 11.732C324.368 12.8219 325.89 14.3605 326.98 16.3479C328.07 18.3033 328.615 20.5631 328.615 23.1275ZM322.893 21.3965C322.861 19.3771 322.14 17.7583 320.729 16.5402C319.319 15.3222 317.572 14.7131 315.488 14.7131C313.597 14.7131 311.978 15.3222 310.632 16.5402C309.286 17.7263 308.484 19.345 308.228 21.3965H322.893ZM347.125 10.0972C349.209 10.0972 351.068 10.53 352.703 11.3954C354.37 12.2609 355.668 13.5431 356.598 15.242C357.527 16.9409 357.992 18.9924 357.992 21.3965V37.0233H352.559V22.2139C352.559 19.8419 351.966 18.0308 350.78 16.7806C349.594 15.4985 347.975 14.8574 345.923 14.8574C343.872 14.8574 342.237 15.4985 341.019 16.7806C339.833 18.0308 339.24 19.8419 339.24 22.2139V37.0233H333.759V10.53H339.24V13.5591C340.138 12.4693 341.275 11.6198 342.654 11.0108C344.064 10.4017 345.555 10.0972 347.125 10.0972ZM371.128 15.0016V29.6667C371.128 30.6604 371.353 31.3816 371.802 31.8304C372.282 32.2471 373.084 32.4555 374.206 32.4555H377.571V37.0233H373.244C370.776 37.0233 368.885 36.4463 367.57 35.2923C366.256 34.1383 365.599 32.2631 365.599 29.6667V15.0016H362.474V10.53H365.599V3.9427H371.128V10.53H377.571V15.0016H371.128ZM391.989 37.456C389.906 37.456 388.031 37.0874 386.364 36.3501C384.729 35.5808 383.431 34.555 382.469 33.2728C381.508 31.9586 380.995 30.5001 380.931 28.8974H386.604C386.7 30.0193 387.229 30.9649 388.191 31.7342C389.185 32.4715 390.419 32.8401 391.893 32.8401C393.432 32.8401 394.618 32.5516 395.451 31.9746C396.317 31.3656 396.75 30.5963 396.75 29.6667C396.75 28.673 396.269 27.9357 395.307 27.4549C394.378 26.9741 392.887 26.4452 390.835 25.8682C388.848 25.3233 387.229 24.7944 385.979 24.2815C384.729 23.7686 383.639 22.9833 382.71 21.9254C381.812 20.8676 381.363 19.4733 381.363 17.7423C381.363 16.3319 381.78 15.0497 382.613 13.8957C383.447 12.7097 384.633 11.7801 386.172 11.1069C387.742 10.4338 389.537 10.0972 391.557 10.0972C394.57 10.0972 396.99 10.8665 398.817 12.4052C400.676 13.9117 401.67 15.9793 401.798 18.6078H396.317C396.221 17.4217 395.74 16.4761 394.874 15.7709C394.009 15.0657 392.839 14.7131 391.364 14.7131C389.922 14.7131 388.816 14.9856 388.047 15.5305C387.277 16.0754 386.893 16.7967 386.893 17.6942C386.893 18.3994 387.149 18.9924 387.662 19.4733C388.175 19.9541 388.8 20.3387 389.537 20.6272C390.275 20.8837 391.364 21.2202 392.807 21.637C394.73 22.1498 396.301 22.6787 397.519 23.2237C398.769 23.7365 399.843 24.5059 400.74 25.5316C401.638 26.5574 402.103 27.9197 402.135 29.6186C402.135 31.1252 401.718 32.4715 400.885 33.6575C400.051 34.8435 398.865 35.7731 397.327 36.4463C395.82 37.1194 394.041 37.456 391.989 37.456Z" fill="black"/>
<path d="M431.058 37.3598C428.814 37.3598 426.794 36.9752 424.999 36.2059C423.204 35.4045 421.794 34.2826 420.768 32.8401C419.742 31.3976 419.229 29.7148 419.229 27.7915H425.095C425.224 29.2339 425.785 30.42 426.778 31.3496C427.804 32.2791 429.23 32.7439 431.058 32.7439C432.949 32.7439 434.423 32.2952 435.481 31.3976C436.539 30.4681 437.068 29.282 437.068 27.8396C437.068 26.7176 436.731 25.8041 436.058 25.0989C435.417 24.3937 434.6 23.8487 433.606 23.4641C432.644 23.0794 431.298 22.6627 429.567 22.2139C427.387 21.637 425.608 21.06 424.23 20.483C422.884 19.8739 421.73 18.9443 420.768 17.6942C419.806 16.4441 419.326 14.7772 419.326 12.6937C419.326 10.7704 419.806 9.0875 420.768 7.64503C421.73 6.20256 423.076 5.09667 424.807 4.32736C426.538 3.55804 428.541 3.17338 430.817 3.17338C434.055 3.17338 436.699 3.99078 438.751 5.62558C440.834 7.22832 441.988 9.4401 442.213 12.2609H436.154C436.058 11.0428 435.481 10.0011 434.423 9.13558C433.366 8.2701 431.971 7.83736 430.24 7.83736C428.67 7.83736 427.387 8.23804 426.394 9.03941C425.4 9.84078 424.903 10.9948 424.903 12.5013C424.903 13.5271 425.208 14.3765 425.817 15.0497C426.458 15.6908 427.259 16.2037 428.221 16.5883C429.182 16.973 430.497 17.3897 432.164 17.8385C434.375 18.4475 436.17 19.0565 437.549 19.6656C438.959 20.2746 440.145 21.2202 441.107 22.5024C442.101 23.7526 442.597 25.4354 442.597 27.5511C442.597 29.25 442.133 30.8527 441.203 32.3593C440.305 33.8659 438.975 35.0839 437.212 36.0135C435.481 36.9111 433.43 37.3598 431.058 37.3598ZM446.988 23.6564C446.988 20.9959 447.533 18.6398 448.622 16.5883C449.744 14.5368 451.251 12.9501 453.142 11.8282C455.065 10.6742 457.181 10.0972 459.489 10.0972C461.573 10.0972 463.384 10.5139 464.922 11.3474C466.493 12.1487 467.743 13.1585 468.673 14.3765V10.53H474.202V37.0233H468.673V33.0805C467.743 34.3307 466.477 35.3724 464.874 36.2059C463.271 37.0393 461.444 37.456 459.393 37.456C457.117 37.456 455.033 36.879 453.142 35.725C451.251 34.539 449.744 32.9042 448.622 30.8207C447.533 28.705 446.988 26.317 446.988 23.6564ZM468.673 23.7526C468.673 21.9254 468.288 20.3387 467.519 18.9924C466.781 17.6461 465.804 16.6204 464.586 15.9152C463.368 15.21 462.053 14.8574 460.643 14.8574C459.233 14.8574 457.918 15.21 456.7 15.9152C455.482 16.5883 454.488 17.598 453.719 18.9443C452.982 20.2586 452.613 21.8293 452.613 23.6564C452.613 25.4835 452.982 27.0863 453.719 28.4646C454.488 29.843 455.482 30.9008 456.7 31.6381C457.95 32.3433 459.265 32.6959 460.643 32.6959C462.053 32.6959 463.368 32.3433 464.586 31.6381C465.804 30.9328 466.781 29.9071 467.519 28.5608C468.288 27.1824 468.673 25.5797 468.673 23.7526ZM505 10.53L488.748 49.4766H483.075L488.46 36.5905L478.026 10.53H484.132L491.585 30.7245L499.326 10.53H505Z" fill="url(#paint0_linear_1492_415)"/>
<defs>
<linearGradient id="paint0_linear_1492_415" x1="337.722" y1="19.9941" x2="505.953" y2="19.9941" gradientUnits="userSpaceOnUse">
<stop stop-color="#AE8631"/>
<stop offset="1" stop-color="#28705A"/>
</linearGradient>
</defs>
</svg>
